<?xml version="1.0" encoding="UTF-8"?>
<svg width="800" height="400" viewBox="0 0 800 400" fill="none" xmlns="http://www.w3.org/2000/svg">
  <!-- Light, minimal map for white backgrounds -->
  <g stroke="#D0D4DD" stroke-width="1.3" stroke-linecap="round" stroke-linejoin="round">

    <!-- North & South America -->
    <path d="
      M120 95
      L135 80 L165 78 L185 90 L195 110 L188 130
      L180 150 L170 165 L165 185 L160 205
      L155 225 L150 245 L145 260 L140 275
      L130 280 L118 270 L112 255 L108 235
      L102 210 L100 190 L98 170 L95 155
      L90 135 L92 120 L105 105 Z" />

    <!-- Europe & Asia -->
    <path d="
      M320 80
      L345 70 L375 70 L400 78 L425 80 L450 90
      L470 100 L490 110 L505 125 L520 135
      L540 145 L555 160 L570 170 L585 185
      L600 195 L620 210 L635 225 L650 240
      L660 255 L665 270 L662 280 L650 285
      L635 280 L620 270 L605 260 L590 250
      L575 240 L560 230 L545 220 L530 210
      L515 200 L500 190 L480 180 L460 172
      L440 167 L420 165 L400 165 L380 167
      L360 170 L345 175 L330 180 L320 182
      L310 175 L308 160 L310 145 L312 130
      L315 115 Z" />

    <!-- Africa -->
    <path d="
      M400 180
      L415 185 L430 195 L440 210 L450 230
      L455 250 L460 270 L462 290 L455 305
      L445 320 L430 330 L415 335 L405 332
      L395 320 L388 305 L382 285 L380 265
      L382 245 L388 225 L395 210 Z" />

    <!-- Australia -->
    <path d="
      M620 260
      L640 255 L660 258 L678 268 L690 280
      L700 295 L702 310 L695 322 L680 330
      L660 332 L640 328 L625 318 L618 305
      L615 290 L615 275 Z" />

    <!-- Simple Greenland / Iceland -->
    <path d="M220 55 L235 50 L255 52 L260 60 L245 65 L230 63 Z" />
    <path d="M295 90 L305 88 L315 92 L310 100 L300 98 Z" />
  </g>
</svg>
