<svg version="1.2" xmlns="http://www.w3.org/2000/svg" viewBox="0 0 996 239" width="996" height="239">
	<style>
		.s0 { fill: #272728 } 
		.s1 { fill: #ec2f37 } 
		.s2 { fill: #050406 } 
	</style>
	<g id="Layer 1">
		<g id="&lt;Group&gt;">
			<path id="&lt;Path&gt;" class="s0" d="m225.69 22.49v188.9h-2.74v-188.9z"/>
			<path id="&lt;Compound Path&gt;" fill-rule="evenodd" class="s1" d="m346.39 113.82q0 9.49-4.06 16.64-4.08 7.17-12.1 11.71l-0.02 0.01q-5.67 3.2-12.42 4.78-6.67 1.57-14.35 1.57h-25v-0.02q-3.26 0-6.27-0.94-0.51-0.16-0.98-0.33-2.48-0.9-4.78-2.44h-0.01q-3.59-2.42-5.45-5.81-1.87-3.41-1.91-7.67l-0.02-0.03v-88.94c0-3.29 0.27-4.86 1.85-7.95q0.63-1.22 1.43-2.27 1.61-2.08 3.97-3.62 2.6-1.7 5.67-2.55 3.04-0.85 6.42-0.85v0.02l21.23-0.07v-0.01q7.01 0 13.31 1.69 6.29 1.69 11.86 5.12l0.01-0.01q7.52 4.59 11.33 11.38 3.83 6.79 3.83 15.56 0 16.43-14.44 24.66 2.28 0.95 4.37 2.09 16.52 9.04 16.52 28.28zm-22.24-54.35q0-4.58-1.64-8.16-1.65-3.56-5-6.34v-0.01q-2.51-2.1-4.78-3.4-2.12-1.21-4.02-1.75l-0.01 0.01q-1.09-0.29-3.3-0.46-2.58-0.19-6.05-0.19v0.01h-21.57q-2.08 0.33-2.9 1.12-0.61 0.59-0.61 1.99v36.22h18.8v-0.02h4.02q9.9 0 17.49-3.94v0.01q9.57-5 9.57-15.09zm6.47 54.35q0-21.51-31.39-21.52h-24.96l0.15 39.04q0.02 1.39 0.67 2.02 0.81 0.8 2.86 1.13h24.09q28.57 0 28.58-20.67zm109.55-8.32v0.04h-0.02q0 1.34-0.15 2.41-0.07 0.49-0.12 0.76-0.16 0.78-0.38 1.45l-0.86 2.62h-75.22q0.81 4.83 2.85 8.7 2.81 5.32 8.03 8.94l0.03 0.01 0.01 0.01v0.01q1.14 0.79 2.43 1.53 1.22 0.69 2.58 1.3 6.86 3.09 15.59 3.09v0.01q3.67 0 7.57-0.58 3.89-0.58 7.81-1.72l-0.01-0.01h0.02 0.03q0.99-0.29 2.38-0.77 1.27-0.44 2.2-0.81 5.2-2.09 8.14-4.88l2.46-2.33 2.58 2.2 5.47 4.66 3.23 2.75-3.09 2.88q-6.77 6.29-16.64 9.39-9.63 3.02-22.15 3.02h-0.02v-0.01q-8.77-0.01-16.36-2.29-1.08-0.32-2.48-0.83-6.3-2.26-11.75-6.12v-0.01q-2.33-1.66-4.31-3.5-2-1.87-3.69-3.97c-10.14-12.57-11.43-31.62-4.6-46q0.67-1.4 1.44-2.74 3.97-6.83 10.75-11.87l0.01-0.02q6.46-4.76 14.04-7.14 7.54-2.36 16.09-2.36 8.33 0 15.77 2.31 7.49 2.33 13.92 6.94v0.01q8.18 5.8 12.31 14.11 4.11 8.27 4.11 18.81zm-15.91-6.63q-0.36-1.6-0.82-2.98h-0.01q-2.73-8.25-9.81-13.21l-0.01-0.01v-0.01q-1.04-0.72-2.36-1.48-1.31-0.75-2.47-1.28-6.53-2.99-14.75-3h-0.01v-0.01q-5.67 0-10.63 1.47-0.73 0.22-1.56 0.52-3.99 1.41-7.46 3.81-5 3.47-7.82 8.47-1.95 3.45-2.91 7.71zm109.61 7.47v0.04h-0.01q-0.01 1.34-0.16 2.41-0.07 0.48-0.12 0.76h-0.01q-0.14 0.78-0.37 1.45l-0.86 2.62h-75.22q0.81 4.82 2.85 8.69 2.81 5.33 8.03 8.94l0.03 0.02 0.01 0.01q1.14 0.8 2.44 1.53 1.21 0.69 2.57 1.31 6.86 3.08 15.59 3.08v0.02q3.67 0 7.58-0.58 3.89-0.58 7.8-1.72v-0.01l0.01-0.01h0.03q1-0.29 2.38-0.76 1.27-0.44 2.2-0.81 5.2-2.09 8.15-4.88l2.46-2.33 2.57 2.2 5.48 4.66 3.22 2.75-3.09 2.88q-6.77 6.28-16.64 9.38-9.63 3.02-22.15 3.03h-0.02v-0.02q-8.76 0-16.36-2.29-1.08-0.32-2.48-0.82-6.3-2.26-11.74-6.12l-0.01-0.01q-2.33-1.66-4.3-3.5-2.01-1.87-3.7-3.98-8.64-10.72-8.64-26.65v-0.01h0.01q0.01-10.85 4.03-19.33 0.67-1.41 1.44-2.74 3.97-6.83 10.75-11.87l0.02-0.02q6.46-4.76 14.03-7.14 7.55-2.37 16.09-2.37 8.33 0.01 15.77 2.32 7.49 2.33 13.92 6.94 8.18 5.81 12.31 14.12 4.11 8.26 4.11 18.81zm-15.91-6.63q-0.36-1.61-0.81-2.98-2.73-8.23-9.83-13.21l-0.01-0.01 0.01-0.01q-1.04-0.72-2.37-1.48-1.31-0.75-2.47-1.28-6.53-3-14.74-3h-0.02v-0.02q-5.67 0.01-10.62 1.48-0.74 0.22-1.56 0.51-3.99 1.41-7.47 3.82-5 3.47-7.82 8.47-1.94 3.45-2.91 7.71zm32.35-20.22v50.82q0 3.38 1.01 4.65 0.69 0.89 2.57 0.89v0.01h8.85v13.73h-7.56q-9.45 0-14.52-4.73-5.2-4.84-5.2-13.9v-87.06h14.83v21.68h18.52v13.91zm24.25-49.58h14.85v120.76h-14.85zm109.17 76.44v0.04h-0.02q0 1.33-0.15 2.41-0.07 0.48-0.12 0.76h-0.01q-0.14 0.77-0.37 1.45l-0.86 2.61h-75.22q0.81 4.83 2.85 8.7 2.81 5.32 8.03 8.94l0.03 0.01 0.01 0.01v0.01q1.14 0.8 2.43 1.53 1.22 0.69 2.58 1.31 6.86 3.08 15.59 3.08v0.02q3.67 0 7.57-0.58 3.9-0.58 7.81-1.72v-0.01l0.01-0.01h0.03q0.99-0.29 2.38-0.76 1.27-0.44 2.2-0.81 5.2-2.09 8.15-4.88l2.46-2.33 2.57 2.2 5.47 4.66 3.23 2.75-3.09 2.87q-6.77 6.29-16.64 9.39-9.63 3.02-22.15 3.02h-0.02v-0.01q-8.77 0-16.36-2.29-1.08-0.32-2.48-0.82-6.3-2.26-11.74-6.13h-0.01q-2.33-1.66-4.31-3.51-2-1.86-3.69-3.97-8.64-10.72-8.64-26.65v-0.01h0.01q0.01-10.86 4.03-19.34 0.67-1.4 1.44-2.73 3.97-6.84 10.75-11.88l0.02-0.01q6.46-4.76 14.03-7.14 7.54-2.37 16.09-2.37 8.33 0 15.77 2.32 7.49 2.33 13.92 6.93l-0.01 0.01q8.19 5.81 12.32 14.12 4.11 8.26 4.11 18.81zm-15.03-6.63q-0.37-1.61-0.82-2.98-2.73-8.23-9.82-13.22h-0.02l0.01-0.01q-1.04-0.73-2.36-1.48-1.31-0.75-2.47-1.28-6.54-3-14.75-3h-0.02v-0.02q-5.67 0.01-10.62 1.48-0.73 0.22-1.56 0.51-3.99 1.41-7.46 3.82-5 3.46-7.82 8.47-1.95 3.45-2.92 7.71zm-394.26 31.63v0.04z"/>
			<path id="&lt;Path&gt;" class="s0" d="m733.65 77.22v73.8h-37.15v-104.95h47.71q21.79-0.01 33.77 10.02 13.37 11.22 13.37 28.43c0 11.74-5.53 17.95-16.55 26l18.36 38.67h-38.99l-14.99-28.24v-29.79h2.94c7.81 0 11.71 0.52 11.71-5.71q0-8.22-13.55-8.23z"/>
			<path id="&lt;Path&gt;" class="s0" d="m834.68 56.77v94.25h-34.24v-94.25z"/>
			<path id="&lt;Path&gt;" class="s2" d="m817.66 14.7c4.62 0 8.65 1.68 12.02 5.07 3.41 3.36 5.1 7.35 5.1 11.94q0 7.4-4.81 12.09-4.8 4.75-12.31 4.75-7.52 0-12.31-4.75-4.82-4.69-4.81-12.09c0-4.59 1.68-8.58 5.09-11.94 3.37-3.39 7.4-5.07 12.03-5.07z"/>
			<path id="&lt;Path&gt;" class="s0" d="m980.01 151.02h-34.24v-50.85q0-5.9-1.18-8.16-1.17-2.27-4.31-2.26-5.76 0.01-5.75 10.52v50.75h-34.24v-50.85q0.01-5.9-1.25-8.16-1.21-2.27-4.34-2.26-5.67 0.01-5.66 10.52v50.75h-34.24v-58.05q0-15.87 10.34-27c6.91-7.39 15.25-11.1 25.09-11.1q15.18 0 27.27 13.26 13.45-13.26 26.9-13.26 17.15 0 27.46 12.87 8.15 10.03 8.15 29.2z"/>
			<path id="&lt;Path&gt;" class="s1" d="m817.69 12.17c10.6 0 19.2 8.6 19.2 19.2 0 10.61-8.6 19.21-19.2 19.21-10.61 0-19.21-8.6-19.21-19.21 0-10.6 8.6-19.2 19.21-19.2z"/>
			<path id="&lt;Compound Path&gt;" fill-rule="evenodd" class="s0" d="m283.78 175.15v38.82h-4v-38.82h-16.15v-3.23h36.16v3.23zm71.65 18.13h-21.68v17.35h25.39v3.34h-29.39v-42.05h29.39v3.23h-25.39v14.79h21.68zm68.81-13.21q-2.77-2.38-6.15-3.71-3.38-1.34-7.09-1.34-3.86 0-7.28 1.4-3.41 1.4-6 3.83-2.58 2.43-4.07 5.73-1.49 3.28-1.49 6.99 0 3.65 1.42 6.97 1.41 3.32 3.93 5.78 2.51 2.47 5.96 3.93 3.46 1.46 7.53 1.46 3.71 0 7.02-1.34 3.31-1.34 6.07-3.65l2.77 2.25q-3.27 2.86-7.31 4.5-4.04 1.65-8.55 1.65-4.51 0-8.66-1.71-4.15-1.7-7.31-4.62-3.16-2.92-5.05-6.85-1.9-3.92-1.9-8.37 0.01-4.26 1.79-8.12 1.78-3.87 4.91-6.79 3.13-2.92 7.27-4.65 4.15-1.74 8.95-1.74 4.58 0 8.73 1.64 4.15 1.65 7.27 4.51zm36.38 13.2v20.7h-4.01v-42.06h4.01v18.02h26.18v-18.02h3.93v42.06h-3.93v-20.7zm64.3-21.36l24.73 35.06v-35.06h4.01v42.06h-3.79l-24.73-35.24v35.24h-3.93v-42.06zm97.04 36.7q-3.13 2.86-7.17 4.38-4.04 1.53-8.69 1.53-4.58 0-8.77-1.65-4.18-1.64-7.31-4.53-3.12-2.89-4.98-6.85-1.86-3.96-1.86-8.52 0-4.44 1.78-8.31 1.79-3.86 4.91-6.75 3.13-2.89 7.31-4.57 4.19-1.67 8.92-1.67 4.87 0 9.06 1.67 4.18 1.68 7.23 4.54 3.06 2.86 4.8 6.75 1.75 3.9 1.75 8.34 0 4.75-1.82 8.73-1.82 3.99-5.16 6.91zm-2.91-28.79q-2.48-2.31-5.82-3.52-3.35-1.22-7.13-1.22-3.93 0-7.35 1.4-3.42 1.4-6 3.8-2.58 2.4-4.04 5.69-1.45 3.29-1.45 7 0 3.78 1.45 7.09 1.46 3.32 4 5.78 2.55 2.47 6 3.87 3.46 1.4 7.39 1.4 4.07 0 7.53-1.4 3.45-1.4 6-3.87 2.55-2.46 4-5.78 1.46-3.31 1.45-7.09 0-3.96-1.6-7.33-1.6-3.38-4.43-5.82zm43.42 30.8h24.08v3.35h-28.01v-42.06h3.93zm90.93-2q-3.13 2.86-7.17 4.38-4.03 1.52-8.69 1.52-4.58 0-8.76-1.64-4.19-1.65-7.31-4.54-3.13-2.89-4.99-6.84-1.85-3.96-1.85-8.53 0-4.44 1.78-8.3 1.78-3.87 4.91-6.76 3.13-2.89 7.31-4.56 4.18-1.68 8.91-1.68 4.87 0 9.06 1.68 4.18 1.67 7.24 4.53 3.05 2.86 4.8 6.76 1.74 3.89 1.74 8.33 0 4.75-1.82 8.74-1.81 3.98-5.16 6.91zm-2.91-28.79q-2.47-2.31-5.82-3.53-3.35-1.22-7.13-1.22-3.93 0-7.35 1.4-3.42 1.4-6 3.81-2.58 2.4-4.04 5.69-1.45 3.28-1.45 6.99 0 3.78 1.45 7.09 1.46 3.32 4 5.79 2.55 2.46 6.01 3.86 3.45 1.4 7.38 1.4 4.08 0 7.53-1.4 3.45-1.4 6-3.86 2.55-2.47 4-5.79 1.46-3.31 1.46-7.09 0-3.95-1.6-7.33-1.6-3.38-4.44-5.81zm76.89 28.97q-3.13 2.74-7.13 4.23-4 1.49-8.59 1.49-4.73 0-8.91-1.67-4.18-1.68-7.31-4.6-3.13-2.92-4.95-6.82-1.81-3.89-1.81-8.27 0-4.45 1.81-8.34 1.82-3.9 4.95-6.82 3.13-2.92 7.31-4.62 4.18-1.71 8.91-1.71 4.59 0 8.69 1.62 4.11 1.61 7.39 4.53l-2.76 2.31q-2.77-2.37-6.19-3.71-3.42-1.34-7.13-1.34-3.92 0-7.38 1.4-3.46 1.4-6.07 3.84-2.62 2.43-4.11 5.75-1.49 3.31-1.5 7.09 0.01 3.77 1.5 7.06 1.49 3.28 4.11 5.75 2.61 2.47 6.07 3.89 3.46 1.44 7.38 1.44 3.42 0 6.48-1.1 3.05-1.1 5.38-2.92v-11.2h-13.6v-3.22h17.6v15.45zm34.91 5.17h-4v-42.05h4zm55.65-20.69h-21.68v17.34h25.39v3.35h-29.39v-42.05h29.39v3.22h-25.39v14.79h21.68zm36.88 13.03q1.74 2.25 4.58 3.55 2.84 1.32 6.47 1.32 2.19-0.01 4.19-0.58 1.99-0.58 3.49-1.65 1.49-1.06 2.4-2.46 0.91-1.4 0.91-3.04 0-1.58-0.84-3.02-0.83-1.43-2.25-2.58-1.42-1.16-3.35-1.92-1.93-0.76-4.11-1.07-3.13-0.3-5.78-1.34-2.66-1.03-4.62-2.61-1.96-1.59-3.1-3.59-1.12-2.01-1.12-4.2 0-2.43 1.24-4.54 1.23-2.1 3.34-3.62 2.11-1.52 4.95-2.37 2.84-0.86 6.11-0.85 4.29 0 7.64 1.3 3.34 1.31 5.89 3.69l-3.27 2.19q-1.82-1.89-4.44-2.95-2.62-1.07-5.82-1.07-2.25 0-4.33 0.61-2.07 0.61-3.67 1.7-1.6 1.1-2.55 2.56-0.94 1.46-0.95 3.1 0.01 1.65 0.84 3.14 0.84 1.49 2.29 2.68 1.46 1.18 3.46 1.94 2 0.76 4.33 0.95 3.05 0.36 5.67 1.4 2.62 1.03 4.51 2.61 1.89 1.59 2.98 3.54 1.1 1.94 1.1 4.13-0.01 2.38-1.21 4.41-1.2 2.04-3.27 3.57-2.07 1.52-4.87 2.4-2.81 0.88-5.93 0.88-4.59 0-8.26-1.67-3.67-1.68-5.85-4.41z"/>
			<path id="&lt;Path&gt;" class="s0" d="m80.24 215.04c48.18 4.85 94.47-32.36 103.67-81.15 9.06-48.07-21.92-91.97-63.14-114.52-32.92-18.01-50.24-12.68-38.57 26.47 2.16 7.25 5.42 15.04 9.28 22.54 35.34 3.52 64.18 33.27 65.71 69.66 1.5 35.83-22.83 66.55-55.51 74.47-6.65 1.61-13.45 2.69-21.44 2.53z"/>
			<path id="&lt;Path&gt;" class="s1" d="m60.2 71.83c-7.97 2.98-16.86 8.05-24.34 14.25-15.51 12.82-24.47 32.85-25.15 53.2-1.08 32.66 19.52 63.79 56.27 72.54 8.75 2.08 22.02 2.61 33.21-0.21 13.05-3.29 0.03-18.88-10.67-28.24q-4.73 0.83-9.69 0.84c-5.1 0-10.05-0.69-14.75-1.96-4.07-0.95-7.82-2.43-11.1-4.02-5.84-2.83-10.97-6.91-15.24-11.85-9.43-10.06-15.2-23.59-15.2-38.46 0-12.79 4.27-24.59 11.46-34.05 5.74-8.45 14.01-16.08 25.2-22.04z"/>
			<path id="&lt;Compound Path&gt;" fill-rule="evenodd" class="s0" d="m81.51 85.85v9.15c12.89-8.52 48.25-4.22 52 21.2 0.98 6.61 0.71 22.62 0.57 29.28-0.55 25.47-35.22 31.71-52.59 24.21l-0.02 2.84-20.67-0.11 0.04-28.45q-0.11-1.66-0.11-3.44v-68.92c14.29 0 20.78 0.62 20.78 14.24zm4.41 25.98c-2.21 2.43-3.83 5.85-4.22 10.66l-0.22 11.51 0.13 9.62c0.24 17.53 31.58 17.51 31.58 0v-22.8c0-7.33-7.07-13.34-15.71-13.34-1.99 0-4.03 0.2-5.79 0.78-2.27 0.76-4.16 2.07-5.77 3.57z"/>
			<path id="&lt;Path&gt;" class="s1" d="m60.73 172.54l0.07-48.22c0.02-22.27 17.72-33.85 39.63-33.25l-0.28 16.6c-8.77-1.25-18.48 2.8-18.54 17.41l-0.21 47.57z"/>
		</g>
	</g>
</svg>