<svg width="436" height="367" viewBox="0 0 436 367" fill="none" xmlns="http://www.w3.org/2000/svg">
<g opacity="0.2">
<path d="M391.191 123.692L358.296 104.701L391.19 85.7109L424.083 104.702L391.191 123.692ZM360.625 104.701L391.192 122.348L421.756 104.702L391.191 87.0539L360.625 104.701Z" fill="white"/>
<path d="M327.732 123.692L294.837 104.701L327.731 85.71L360.624 104.701L327.732 123.692ZM297.166 104.701L327.732 122.348L358.296 104.701L327.731 87.0529L297.166 104.701Z" fill="white"/>
<path d="M359.462 142.01L326.568 123.02L359.461 104.029L392.355 123.02L359.462 142.01ZM328.896 123.02L359.461 140.666L390.026 123.02L359.46 105.372L328.896 123.02Z" fill="white"/>
<path d="M391.192 160.329L358.298 141.338L391.192 122.348L424.085 141.339L391.192 160.329ZM360.626 141.338L391.192 158.985L421.757 141.339L391.192 123.692L360.626 141.338Z" fill="white"/>
<path d="M264.272 123.691L231.379 104.7L264.272 85.71L297.167 104.701L264.272 123.691ZM233.707 104.699L264.272 122.347L294.837 104.701L264.271 87.0529L233.707 104.699Z" fill="white"/>
<path d="M296.003 142.01L263.108 123.019L296.002 104.029L328.897 123.02L296.003 142.01ZM265.436 123.019L296.002 140.667L326.567 123.021L296.001 105.373L265.436 123.019Z" fill="white"/>
<path d="M327.732 160.329L294.838 141.338L327.732 122.348L360.625 141.338L327.732 160.329ZM297.167 141.338L327.733 158.985L358.298 141.338L327.733 123.692L297.167 141.338Z" fill="white"/>
<path d="M359.463 178.649L326.568 159.658L359.462 140.667L392.357 159.658L359.463 178.649ZM328.896 159.658L359.462 177.305L390.027 159.658L359.461 142.01L328.896 159.658Z" fill="white"/>
<path d="M391.192 196.968L358.299 177.977L391.192 158.986L424.086 177.977L391.192 196.968ZM360.627 177.977L391.192 195.624L421.758 177.977L391.192 160.33L360.627 177.977Z" fill="white"/>
<path d="M200.813 123.69L167.92 104.699L200.812 85.709L233.707 104.7L200.813 123.69ZM170.248 104.699L200.813 122.346L231.378 104.7L200.812 87.053L170.248 104.699Z" fill="white"/>
<path d="M232.544 142.009L199.649 123.018L232.542 104.028L265.436 123.019L232.544 142.009ZM201.977 123.018L232.543 140.665L263.107 123.019L232.542 105.372L201.977 123.018Z" fill="white"/>
<path d="M264.273 160.328L231.379 141.337L264.272 122.347L297.167 141.338L264.273 160.328ZM233.708 141.337L264.273 158.984L294.838 141.338L264.272 123.691L233.708 141.337Z" fill="white"/>
<path d="M296.004 178.648L263.109 159.657L296.003 140.667L328.897 159.658L296.004 178.648ZM265.437 159.656L296.003 177.304L326.567 159.658L296.002 142.01L265.437 159.656Z" fill="white"/>
<path d="M327.733 196.967L294.84 177.976L327.733 158.986L360.628 177.977L327.733 196.967ZM297.168 177.976L327.733 195.623L358.298 177.977L327.732 160.33L297.168 177.976Z" fill="white"/>
<path d="M359.464 215.286L326.569 196.295L359.462 177.305L392.356 196.296L359.464 215.286ZM328.897 196.295L359.463 213.942L390.027 196.296L359.462 178.648L328.897 196.295Z" fill="white"/>
<path d="M391.193 233.606L358.3 214.615L391.192 195.625L424.087 214.616L391.193 233.606ZM360.628 214.615L391.193 232.262L421.758 214.616L391.192 196.969L360.628 214.615Z" fill="white"/>
<path d="M137.354 123.69L104.46 104.699L137.353 85.708L170.248 104.699L137.354 123.69ZM106.789 104.699L137.354 122.346L167.92 104.699L137.354 87.052L106.789 104.699Z" fill="white"/>
<path d="M169.085 142.009L136.19 123.018L169.084 104.027L201.978 123.018L169.085 142.009ZM138.518 123.018L169.084 140.665L199.649 123.018L169.084 105.371L138.518 123.018Z" fill="white"/>
<path d="M200.814 160.328L167.92 141.337L200.813 122.346L233.708 141.337L200.814 160.328ZM170.249 141.337L200.814 158.984L231.379 141.337L200.813 123.689L170.249 141.337Z" fill="white"/>
<path d="M232.545 178.648L199.65 159.657L232.544 140.666L265.437 159.657L232.545 178.648ZM201.978 159.656L232.544 177.304L263.108 159.656L232.543 142.009L201.978 159.656Z" fill="white"/>
<path d="M264.274 196.967L231.38 177.976L264.273 158.985L297.168 177.976L264.274 196.967ZM233.709 177.976L264.274 195.623L294.839 177.976L264.273 160.328L233.709 177.976Z" fill="white"/>
<path d="M296.005 215.286L263.11 196.295L296.004 177.304L328.897 196.295L296.005 215.286ZM265.438 196.295L296.004 213.942L326.568 196.295L296.003 178.648L265.438 196.295Z" fill="white"/>
<path d="M327.734 233.606L294.841 214.615L327.733 195.624L360.628 214.615L327.734 233.606ZM297.169 214.615L327.734 232.262L358.3 214.615L327.733 196.968L297.169 214.615Z" fill="white"/>
<path d="M359.465 251.925L326.57 232.934L359.464 213.943L392.358 232.934L359.465 251.925ZM328.898 232.934L359.464 250.581L390.028 232.934L359.463 215.287L328.898 232.934Z" fill="white"/>
<path d="M391.194 270.244L358.3 251.253L391.193 232.262L424.087 251.253L391.194 270.244ZM360.629 251.253L391.194 268.9L421.759 251.253L391.193 233.606L360.629 251.253Z" fill="white"/>
<path d="M73.895 123.689L41 104.698L73.894 85.708L106.789 104.699L73.895 123.689ZM43.33 104.697L73.896 122.345L104.461 104.699L73.896 87.052L43.33 104.697Z" fill="white"/>
<path d="M105.625 142.008L72.7305 123.017L105.624 104.027L138.518 123.018L105.625 142.008ZM75.0605 123.017L105.625 140.664L136.19 123.018L105.625 105.371L75.0605 123.017Z" fill="white"/>
<path d="M137.355 160.327L104.46 141.336L137.353 122.346L170.248 141.337L137.355 160.327ZM106.79 141.336L137.355 158.984L167.92 141.338L137.354 123.69L106.79 141.336Z" fill="white"/>
<path d="M169.086 178.647L136.191 159.656L169.084 140.666L201.978 159.657L169.086 178.647ZM138.519 159.656L169.085 177.303L199.649 159.657L169.084 142.01L138.519 159.656Z" fill="white"/>
<path d="M200.815 196.966L167.921 177.975L200.814 158.985L233.709 177.976L200.815 196.966ZM170.25 177.975L200.815 195.622L231.38 177.976L200.814 160.328L170.25 177.975Z" fill="white"/>
<path d="M232.546 215.285L199.651 196.294L232.545 177.304L265.438 196.295L232.546 215.285ZM201.979 196.294L232.545 213.942L263.11 196.295L232.545 178.648L201.979 196.294Z" fill="white"/>
<path d="M264.275 233.605L231.382 214.614L264.275 195.624L297.17 214.615L264.275 233.605ZM233.71 214.614L264.275 232.261L294.841 214.615L264.275 196.968L233.71 214.614Z" fill="white"/>
<path d="M296.006 251.924L263.111 232.933L296.005 213.943L328.899 232.934L296.006 251.924ZM265.439 232.933L296.005 250.581L326.569 232.934L296.004 215.287L265.439 232.933Z" fill="white"/>
<path d="M327.735 270.243L294.841 251.252L327.734 232.262L360.629 251.253L327.735 270.243ZM297.17 251.252L327.735 268.899L358.3 251.253L327.734 233.606L297.17 251.252Z" fill="white"/>
<path d="M359.466 288.563L326.571 269.572L359.465 250.582L392.358 269.573L359.466 288.563ZM328.899 269.572L359.465 287.219L390.029 269.573L359.464 251.926L328.899 269.572Z" fill="white"/>
<path d="M391.195 306.882L358.301 287.891L391.194 268.901L424.089 287.892L391.195 306.882ZM360.63 287.891L391.195 305.538L421.76 287.892L391.194 270.244L360.63 287.891Z" fill="white"/>
<path d="M73.896 160.327L41.002 141.336L73.896 122.345L106.79 141.336L73.896 160.327ZM43.3309 141.336L73.896 158.984L104.46 141.336L73.895 123.689L43.3309 141.336Z" fill="white"/>
<path d="M105.626 178.647L72.7324 159.656L105.626 140.665L138.52 159.656L105.626 178.647ZM75.0614 159.656L105.626 177.303L136.191 159.656L105.625 142.009L75.0614 159.656Z" fill="white"/>
<path d="M137.356 196.966L104.461 177.975L137.354 158.984L170.249 177.975L137.356 196.966ZM106.791 177.975L137.356 195.622L167.921 177.975L137.355 160.327L106.791 177.975Z" fill="white"/>
<path d="M169.087 215.285L136.192 196.294L169.086 177.303L201.979 196.294L169.087 215.285ZM138.52 196.294L169.086 213.942L199.65 196.294L169.085 178.647L138.52 196.294Z" fill="white"/>
<path d="M200.816 233.605L167.922 214.614L200.815 195.623L233.71 214.614L200.816 233.605ZM170.251 214.614L200.816 232.261L231.381 214.614L200.815 196.967L170.251 214.614Z" fill="white"/>
<path d="M232.547 251.924L199.652 232.933L232.545 213.942L265.439 232.933L232.547 251.924ZM201.98 232.933L232.546 250.581L263.11 232.933L232.545 215.286L201.98 232.933Z" fill="white"/>
<path d="M264.276 270.243L231.383 251.252L264.275 232.261L297.17 251.252L264.276 270.243ZM233.711 251.252L264.276 268.899L294.841 251.252L264.275 233.605L233.711 251.252Z" fill="white"/>
<path d="M296.007 288.563L263.112 269.572L296.006 250.581L328.9 269.572L296.007 288.563ZM265.44 269.572L296.006 287.219L326.57 269.572L296.005 251.925L265.44 269.572Z" fill="white"/>
<path d="M327.736 306.882L294.842 287.891L327.735 268.9L360.629 287.891L327.736 306.882ZM297.171 287.891L327.736 305.538L358.301 287.891L327.735 270.244L297.171 287.891Z" fill="white"/>
<path d="M359.466 325.202L326.571 306.211L359.465 287.22L392.358 306.211L359.466 325.202ZM328.9 306.21L359.466 323.857L390.031 306.21L359.466 288.563L328.9 306.21Z" fill="white"/>
<path d="M391.196 343.521L358.303 324.53L391.196 305.539L424.091 324.53L391.196 343.521ZM360.631 324.53L391.196 342.177L421.761 324.53L391.195 306.883L360.631 324.53Z" fill="white"/>
<path d="M73.897 196.965L41.002 177.974L73.895 158.984L106.79 177.975L73.897 196.965ZM43.332 177.974L73.897 195.621L104.461 177.975L73.895 160.327L43.332 177.974Z" fill="white"/>
<path d="M105.627 215.284L72.7324 196.293L105.625 177.303L138.519 196.294L105.627 215.284ZM75.0624 196.293L105.627 213.941L136.192 196.295L105.626 178.648L75.0624 196.293Z" fill="white"/>
<path d="M137.357 233.604L104.462 214.613L137.356 195.623L170.251 214.614L137.357 233.604ZM106.792 214.613L137.358 232.26L167.923 214.614L137.357 196.967L106.792 214.613Z" fill="white"/>
<path d="M169.088 251.923L136.193 232.932L169.087 213.942L201.98 232.933L169.088 251.923ZM138.521 232.932L169.087 250.58L199.651 232.933L169.086 215.286L138.521 232.932Z" fill="white"/>
<path d="M200.817 270.242L167.924 251.251L200.817 232.261L233.712 251.252L200.817 270.242ZM170.252 251.251L200.817 268.898L231.382 251.251L200.816 233.604L170.252 251.251Z" fill="white"/>
<path d="M232.548 288.562L199.653 269.571L232.546 250.581L265.44 269.572L232.548 288.562ZM201.981 269.571L232.547 287.219L263.111 269.572L232.546 251.925L201.981 269.571Z" fill="white"/>
<path d="M264.277 306.881L231.383 287.89L264.276 268.9L297.171 287.891L264.277 306.881ZM233.712 287.89L264.277 305.538L294.842 287.891L264.276 270.244L233.712 287.89Z" fill="white"/>
<path d="M296.008 325.201L263.113 306.21L296.007 287.22L328.9 306.21L296.008 325.201ZM265.441 306.209L296.007 323.856L326.571 306.21L296.006 288.563L265.441 306.209Z" fill="white"/>
<path d="M327.737 343.52L294.843 324.529L327.736 305.539L360.631 324.53L327.737 343.52ZM297.172 324.529L327.737 342.176L358.302 324.53L327.736 306.883L297.172 324.529Z" fill="white"/>
<path d="M73.8979 233.604L41.0029 214.613L73.8959 195.622L106.79 214.613L73.8979 233.604ZM43.3329 214.613L73.8979 232.26L104.462 214.613L73.8969 196.965L43.3329 214.613Z" fill="white"/>
<path d="M105.628 251.923L72.7334 232.932L105.627 213.941L138.521 232.932L105.628 251.923ZM75.0634 232.932L105.629 250.58L136.194 232.932L105.628 215.285L75.0634 232.932Z" fill="white"/>
<path d="M137.358 270.242L104.463 251.251L137.357 232.26L170.252 251.251L137.358 270.242ZM106.793 251.251L137.358 268.898L167.924 251.251L137.358 233.603L106.793 251.251Z" fill="white"/>
<path d="M169.089 288.562L136.194 269.571L169.088 250.58L201.982 269.571L169.089 288.562ZM138.522 269.571L169.088 287.219L199.653 269.571L169.088 251.924L138.522 269.571Z" fill="white"/>
<path d="M200.818 306.88L167.925 287.89L200.818 268.899L233.713 287.89L200.818 306.88ZM170.253 287.89L200.818 305.537L231.383 287.89L200.817 270.243L170.253 287.89Z" fill="white"/>
<path d="M232.549 325.199L199.654 306.208L232.548 287.218L265.442 306.209L232.549 325.199ZM201.982 306.208L232.548 323.855L263.112 306.209L232.547 288.562L201.982 306.208Z" fill="white"/>
<path d="M264.278 343.519L231.384 324.528L264.277 305.538L297.172 324.529L264.278 343.519ZM233.713 324.528L264.278 342.176L294.843 324.529L264.277 306.882L233.713 324.528Z" fill="white"/>
<path d="M73.8989 270.241L41.0039 251.25L73.8979 232.26L106.792 251.251L73.8989 270.241ZM43.3339 251.25L73.8989 268.897L104.463 251.251L73.8979 233.603L43.3339 251.25Z" fill="white"/>
<path d="M105.629 288.561L72.7354 269.57L105.629 250.58L138.523 269.571L105.629 288.561ZM75.0643 269.57L105.629 287.217L136.194 269.57L105.628 251.923L75.0643 269.57Z" fill="white"/>
<path d="M137.359 306.88L104.464 287.889L137.357 268.899L170.252 287.89L137.359 306.88ZM106.794 287.889L137.359 305.536L167.924 287.889L137.358 270.242L106.794 287.889Z" fill="white"/>
<path d="M169.09 325.199L136.195 306.208L169.088 287.218L201.982 306.208L169.09 325.199ZM138.523 306.208L169.089 323.855L199.653 306.208L169.088 288.561L138.523 306.208Z" fill="white"/>
<path d="M200.819 343.519L167.925 324.528L200.818 305.537L233.713 324.528L200.819 343.519ZM170.254 324.528L200.819 342.176L231.384 324.528L200.818 306.881L170.254 324.528Z" fill="white"/>
<path d="M73.8999 306.879L41.0049 287.888L73.8989 268.898L106.794 287.889L73.8999 306.879ZM43.3349 287.888L73.8999 305.535L104.464 287.889L73.8989 270.241L43.3349 287.888Z" fill="white"/>
<path d="M105.63 325.198L72.7363 306.207L105.629 287.217L138.523 306.208L105.63 325.198ZM75.0653 306.207L105.63 323.854L136.195 306.208L105.629 288.56L75.0653 306.207Z" fill="white"/>
<path d="M137.36 343.518L104.465 324.527L137.358 305.537L170.253 324.528L137.36 343.518ZM106.795 324.527L137.36 342.174L167.925 324.527L137.359 306.88L106.795 324.527Z" fill="white"/>
<path d="M73.9009 343.518L41.0059 324.527L73.8989 305.536L106.794 324.527L73.9009 343.518ZM43.3359 324.527L73.9009 342.174L104.465 324.527L73.8999 306.879L43.3359 324.527Z" fill="white"/>
<path d="M200.814 200.809C203.308 200.809 205.33 198.787 205.33 196.293C205.33 193.799 203.308 191.777 200.814 191.777C198.32 191.777 196.298 193.799 196.298 196.293C196.298 198.787 198.32 200.809 200.814 200.809Z" fill="white"/>
<path d="M200.813 90.898C203.307 90.898 205.329 88.8761 205.329 86.382C205.329 83.8879 203.307 81.866 200.813 81.866C198.319 81.866 196.297 83.8879 196.297 86.382C196.297 88.8761 198.319 90.898 200.813 90.898Z" fill="white"/>
<path d="M137.355 310.724C139.849 310.724 141.871 308.702 141.871 306.208C141.871 303.714 139.849 301.692 137.355 301.692C134.861 301.692 132.839 303.714 132.839 306.208C132.839 308.702 134.861 310.724 137.355 310.724Z" fill="white"/>
<path d="M327.737 347.362C330.231 347.362 332.253 345.34 332.253 342.846C332.253 340.352 330.231 338.33 327.737 338.33C325.243 338.33 323.221 340.352 323.221 342.846C323.221 345.34 325.243 347.362 327.737 347.362Z" fill="white"/>
<path d="M363.982 251.253C363.982 253.747 361.96 255.769 359.466 255.769C356.972 255.769 354.95 253.747 354.95 251.253C354.95 248.759 356.972 246.737 359.466 246.737C361.96 246.738 363.982 248.759 363.982 251.253Z" fill="white"/>
<path d="M300.523 287.889C300.523 290.383 298.501 292.405 296.007 292.405C293.513 292.405 291.491 290.383 291.491 287.889C291.491 285.395 293.513 283.373 296.007 283.373C298.501 283.373 300.523 285.395 300.523 287.889Z" fill="white"/>
<path d="M110.14 141.339C110.14 143.833 108.118 145.855 105.624 145.855C103.13 145.855 101.108 143.833 101.108 141.339C101.108 138.845 103.13 136.823 105.624 136.823C108.118 136.823 110.14 138.845 110.14 141.339Z" fill="white"/>
</g>
<path d="M284.305 278.068L281.901 276.81C283.471 273.806 285.77 271.276 288.208 269.869C289.729 268.991 291.202 268.585 292.596 268.651C294.674 268.783 297.248 267.212 299.48 264.524C300.69 263.065 302.076 261.863 303.488 261.048C305.006 260.17 306.479 259.763 307.874 259.829C309.921 259.94 312.526 258.39 314.759 255.702C315.97 254.243 317.355 253.041 318.765 252.226C320.286 251.348 321.767 250.944 323.154 251.008C325.226 251.142 327.805 249.568 330.038 246.88C331.25 245.42 332.635 244.219 334.045 243.405C336.279 242.114 338.5 241.833 340.298 242.615L339.216 245.103C338.228 244.671 336.873 244.906 335.402 245.754C334.267 246.408 333.135 247.397 332.127 248.611C329.311 252.004 325.994 253.856 323.02 253.717C322.172 253.669 321.17 253.971 320.124 254.574C318.99 255.229 317.857 256.219 316.85 257.432C314.034 260.825 310.724 262.662 307.743 262.537C306.904 262.487 305.893 262.791 304.848 263.394C303.712 264.049 302.579 265.038 301.572 266.252C298.756 269.644 295.453 271.477 292.465 271.357C291.613 271.321 290.616 271.61 289.57 272.214C287.561 273.375 285.644 275.507 284.305 278.068Z" fill="white"/>
<path d="M15.5141 176.427C15.5141 178.345 14.167 180.678 12.506 181.637C10.845 182.596 9.49805 181.819 9.49805 179.9C9.49805 177.982 10.845 175.649 12.506 174.69C14.167 173.731 15.5141 174.508 15.5141 176.427Z" fill="white"/>
<path d="M25.265 170.797C25.265 172.715 23.918 175.048 22.257 176.008C20.596 176.967 19.249 176.19 19.249 174.271C19.249 172.353 20.596 170.02 22.257 169.06C23.918 168.101 25.265 168.879 25.265 170.797Z" fill="white"/>
<path d="M35.016 165.167C35.016 167.085 33.669 169.418 32.008 170.377C30.347 171.336 29 170.559 29 168.64C29 166.721 30.347 164.389 32.008 163.43C33.669 162.471 35.016 163.249 35.016 165.167Z" fill="white"/>
<path d="M44.767 159.537C44.767 161.455 43.42 163.788 41.759 164.747C40.098 165.706 38.751 164.929 38.751 163.01C38.751 161.092 40.098 158.759 41.759 157.8C43.42 156.841 44.767 157.619 44.767 159.537Z" fill="white"/>
<path d="M278.176 22.2681C278.176 24.1291 276.869 26.3931 275.257 27.3241C273.645 28.2551 272.338 27.5001 272.338 25.6391C272.338 23.7781 273.645 21.5141 275.257 20.5831C276.869 19.6521 278.176 20.4071 278.176 22.2681Z" fill="white"/>
<path d="M286.229 17.619C286.229 19.48 284.922 21.744 283.31 22.675C281.698 23.606 280.391 22.851 280.391 20.99C280.391 19.129 281.698 16.865 283.31 15.934C284.922 15.003 286.229 15.758 286.229 17.619Z" fill="white"/>
<path d="M278.176 12.9701C278.176 14.8311 276.869 17.0951 275.257 18.0261C273.645 18.9571 272.338 18.2021 272.338 16.3411C272.338 14.4791 273.645 12.2161 275.257 11.2851C276.869 10.3541 278.176 11.1091 278.176 12.9701Z" fill="white"/>
<path d="M286.229 8.32104C286.229 10.182 284.922 12.446 283.31 13.377C281.698 14.308 280.391 13.553 280.391 11.692C280.391 9.83104 281.698 7.56704 283.31 6.63604C284.922 5.70504 286.229 6.46004 286.229 8.32104Z" fill="white"/>
<path d="M33.849 308.224L27.832 311.698V304.75L33.849 301.277V308.224Z" fill="white"/>
<path d="M42.1996 303.343L36.1826 306.816V299.869L42.1996 296.395V303.343Z" fill="white"/>
<path d="M33.9008 317.237L27.8838 320.711V313.764L33.9008 310.29V317.237Z" fill="white"/>
<path d="M42.1996 312.446L36.1826 315.92V308.972L42.1996 305.499V312.446Z" fill="white"/>
<path d="M368.011 178.823L276.081 125.588C271.088 122.696 262.357 123.045 256.582 126.369L63.6486 237.403C57.8736 240.727 57.2396 245.766 62.2336 248.658L154.164 301.893C159.158 304.785 167.887 304.436 173.663 301.112L366.597 190.078C372.371 186.754 373.005 181.715 368.011 178.823Z" fill="#7DC3EA"/>
<path d="M162.681 292.23C159.26 292.23 155.981 291.518 153.482 290.07L61.5518 236.836C58.9408 235.323 57.5038 233.168 57.5078 230.766C57.5118 227.973 59.5028 225.227 62.9698 223.232L255.904 112.198C262.149 108.603 271.31 108.26 276.759 111.419L368.689 164.654C371.3 166.166 372.736 168.321 372.733 170.722C372.729 173.515 370.739 176.262 367.271 178.258L174.338 289.291C170.957 291.237 166.72 292.23 162.681 292.23ZM267.585 111.97C264.007 111.97 260.219 112.844 257.259 114.548L64.3248 225.582C61.7198 227.081 60.2248 228.972 60.2218 230.768C60.2188 232.552 61.6828 233.775 62.9118 234.487L154.841 287.721C159.453 290.393 167.592 290.041 172.984 286.939L365.919 175.905C368.523 174.406 370.019 172.514 370.021 170.717C370.024 168.933 368.56 167.711 367.331 166.999L275.401 113.764C273.321 112.56 270.523 111.97 267.585 111.97Z" fill="white"/>
<path d="M151.487 274.605L55.816 219.203C52.673 217.382 51.208 214.928 51.312 212.376L51.291 212.383L51.33 198.501L56.65 204.733C56.995 204.505 57.342 204.278 57.72 204.061L253.434 91.427C261.204 86.955 272.949 86.485 279.668 90.376L373.996 145C375.905 142.91 379.908 138.496 379.908 138.496L379.863 152.075L379.861 152.073C380.003 155.134 377.823 158.395 373.436 160.92L177.721 273.554C169.951 278.026 158.206 278.496 151.487 274.605Z" fill="#396CAA"/>
<path d="M99.7537 240.616L105.264 243.797C105.996 244.22 106.589 243.771 106.589 242.795C106.589 241.819 105.996 240.686 105.264 240.263L99.7537 237.082C99.0217 236.66 98.4287 237.108 98.4287 238.084C98.4287 239.061 99.0227 240.194 99.7537 240.616Z" fill="#173D7A"/>
<path d="M253.435 91.426C261.205 86.954 272.95 86.4841 279.669 90.3751L373.997 144.999C375.906 142.909 379.909 138.495 379.909 138.495L379.864 152.074L379.862 152.072C380.004 155.133 377.825 158.394 373.437 160.919L177.722 273.554C173.668 275.887 168.535 277.119 163.596 277.223L163.782 143.022L253.435 91.426Z" fill="url(#paint0_linear_110_861)"/>
<path d="M375.381 131.82L279.709 76.418C272.991 72.527 261.245 72.997 253.475 77.469L57.7607 190.103C49.9907 194.575 49.1377 201.354 55.8567 205.245L151.529 260.647C158.247 264.538 169.992 264.068 177.762 259.596L373.476 146.962C381.246 142.491 382.099 135.712 375.381 131.82Z" fill="#D4ECFF"/>
<path d="M151.454 262.129L55.7823 206.727C52.3173 204.72 50.8823 201.945 51.3553 199.115C51.5253 201.414 52.9993 203.592 55.8553 205.246L151.527 260.648C158.245 264.539 169.99 264.069 177.76 259.597L373.474 146.963C377.237 144.797 379.362 142.091 379.806 139.433C380.035 142.542 377.868 145.874 373.402 148.445L177.688 261.078C169.918 265.55 158.173 266.02 151.454 262.129Z" fill="white"/>
<path d="M368.011 134.003L276.081 80.7681C271.088 77.8761 262.357 78.2251 256.582 81.5491L63.6486 192.584C57.8736 195.908 57.2396 200.947 62.2336 203.839L154.164 257.074C159.158 259.966 167.887 259.617 173.663 256.293L366.597 145.259C372.371 141.935 373.005 136.896 368.011 134.003Z" fill="url(#paint1_radial_110_861)"/>
<path d="M130.241 256.461C130.241 257.494 129.516 257.913 128.621 257.396C127.726 256.879 127.001 255.623 127.001 254.59C127.001 253.557 127.726 253.138 128.621 253.655C129.516 254.172 130.241 255.428 130.241 256.461Z" fill="#092E63"/>
<path d="M135.214 259.332C135.214 260.365 134.489 260.784 133.594 260.267C132.699 259.751 131.974 258.494 131.974 257.462C131.974 256.429 132.699 256.01 133.594 256.527C134.489 257.044 135.214 258.299 135.214 259.332Z" fill="#092E63"/>
<path d="M140.187 262.203C140.187 263.236 139.462 263.655 138.567 263.138C137.672 262.621 136.947 261.365 136.947 260.332C136.947 259.299 137.672 258.88 138.567 259.397C139.462 259.914 140.187 261.17 140.187 262.203Z" fill="#092E63"/>
<path d="M145.16 265.074C145.16 266.107 144.435 266.526 143.54 266.009C142.645 265.492 141.92 264.236 141.92 263.203C141.92 262.17 142.645 261.751 143.54 262.268C144.435 262.785 145.16 264.042 145.16 265.074Z" fill="#092E63"/>
<path d="M150.134 267.946C150.134 268.979 149.409 269.398 148.514 268.881C147.619 268.365 146.894 267.108 146.894 266.076C146.894 265.043 147.619 264.624 148.514 265.141C149.409 265.658 150.134 266.913 150.134 267.946Z" fill="#092E63"/>
<path d="M68.8672 207.681L145.973 252.332L359.48 129.064L282.374 84.4131L68.8672 207.681Z" fill="url(#paint2_radial_110_861)"/>
<path d="M300.99 47.483C291.991 52.598 283.057 60.34 275.165 69.789C266.75 79.865 257.218 88.126 247.601 93.679C237.984 99.232 228.452 101.977 220.036 101.618C204.041 100.935 184.945 111.96 168.952 131.111C160.536 141.188 151.004 149.449 141.387 155.001C131.77 160.553 122.238 163.299 113.823 162.939C97.8278 162.256 78.7308 173.282 62.7388 192.432C54.3228 202.509 44.7918 210.77 35.1738 216.322V218.833L112.002 263.221L113.302 261.151L127.586 249.876L137.475 241.086L142.502 234.493L150.896 226.027L161.45 218.168L170.109 213.145L176.325 211.163L185.821 208.2L194.767 208.543L204.5 206.63L213.035 203.288L217.842 200.027L225.533 196.008L233.931 189.373L242.747 180.575L250.177 171.837L259.7 162.994L269.641 155.983L281.361 149.757L296.281 148.03L309.51 146.199L315.475 143.766L326.505 138.367L334.939 132.15L342.473 125.931L348.909 118.374L362.958 103.596L377.816 91.869L300.99 47.483Z" fill="url(#paint3_radial_110_861)"/>
<path d="M324.429 140.578C314.454 146.337 304.567 149.184 295.835 148.812C280.486 148.158 262.159 158.739 246.809 177.117C238.078 187.571 228.19 196.141 218.215 201.9C208.24 207.659 198.353 210.506 189.622 210.133C174.273 209.479 155.944 220.061 140.596 238.438C131.865 248.892 121.977 257.462 112.002 263.222V260.711C121.619 255.159 131.151 246.898 139.567 236.821C155.559 217.671 174.657 206.645 190.651 207.328C199.066 207.687 208.598 204.942 218.215 199.39C227.832 193.838 237.364 185.577 245.78 175.5C261.773 156.349 280.87 145.324 296.864 146.007C305.28 146.366 314.812 143.621 324.429 138.068C334.046 132.516 343.578 124.255 351.993 114.178C359.885 104.729 368.819 96.9871 377.818 91.8721L377.806 94.3901C377.716 94.4411 377.625 94.4941 377.536 94.5451C368.986 99.4811 360.517 106.822 353.022 115.795C344.291 126.249 334.404 134.819 324.429 140.578Z" fill="#396CAA"/>
<path d="M186.712 118.672C182.211 122.418 177.819 126.793 173.663 131.724L187.461 139.743C191.617 134.812 196.01 130.437 200.51 126.691L186.712 118.672Z" fill="white"/>
<path d="M195.352 112.336C193.737 113.364 192.124 114.477 190.521 115.669L204.319 123.688C205.922 122.495 207.534 121.383 209.15 120.355L195.352 112.336Z" fill="white"/>
<path d="M204.064 107.625C202.453 108.342 200.836 109.148 199.217 110.041L204.082 112.868C205.701 111.975 207.318 111.168 208.929 110.452L204.064 107.625Z" fill="#EC2F37"/>
<path d="M212.478 112.515C210.867 113.232 209.249 114.038 207.631 114.932L269.065 150.623C270.684 149.73 272.301 148.923 273.912 148.207L212.478 112.515Z" fill="#D4ECFF"/>
<path d="M212.64 104.653C211.073 105.036 209.489 105.515 207.894 106.086L212.759 108.913C214.354 108.342 215.938 107.863 217.506 107.48L212.64 104.653Z" fill="white"/>
<path d="M221.054 109.543C219.487 109.926 217.903 110.405 216.308 110.976L242.879 126.407C244.474 125.836 246.058 125.357 247.625 124.974L221.054 109.543Z" fill="#EC2F37"/>
<path d="M251.401 127.168C249.834 127.551 248.25 128.03 246.655 128.601L277.743 146.667C279.338 146.096 280.922 145.617 282.489 145.234L251.401 127.168Z" fill="white"/>
<path d="M220.897 103.531C219.406 103.56 217.889 103.691 216.35 103.921L221.215 106.748C222.754 106.519 224.271 106.388 225.762 106.358L220.897 103.531Z" fill="white"/>
<path d="M282.732 134.676C281.242 134.851 279.782 134.94 278.355 134.947L283.22 137.774C284.647 137.768 286.107 137.678 287.597 137.503L282.732 134.676Z" fill="white"/>
<path d="M273.693 129.424C272.203 129.599 270.743 129.688 269.316 129.695L274.176 132.52C275.603 132.514 277.063 132.424 278.553 132.249L273.693 129.424Z" fill="#EC2F37"/>
<path d="M237.148 108.196C235.658 108.371 234.198 108.46 232.771 108.467L265.139 127.267C266.566 127.261 268.026 127.171 269.516 126.996L237.148 108.196Z" fill="white"/>
<path d="M245.44 106.421C243.854 106.907 242.293 107.304 240.759 107.615L248.309 112.002C249.843 111.691 251.404 111.293 252.99 110.808L245.44 106.421Z" fill="white"/>
<path d="M257.86 113.639C256.274 114.125 254.713 114.522 253.179 114.833L273.128 126.415C274.662 126.104 276.223 125.706 277.809 125.221L257.86 113.639Z" fill="#D4ECFF"/>
<path d="M228.732 103.306C227.242 103.481 225.782 103.57 224.355 103.577L229.22 106.404C230.647 106.398 232.107 106.308 233.597 106.133L228.732 103.306Z" fill="#EC2F37"/>
<path d="M237.026 101.532C235.44 102.018 233.879 102.415 232.345 102.726L237.21 105.553C238.744 105.242 240.305 104.844 241.891 104.359L237.026 101.532Z" fill="#D4ECFF"/>
<path d="M245.799 98.049C244.132 98.858 242.485 99.575 240.859 100.203L245.724 103.03C247.349 102.402 248.996 101.685 250.663 100.876L245.799 98.049Z" fill="white"/>
<path d="M254.875 92.847C253.448 93.79 252.007 94.683 250.553 95.523C250.306 95.666 250.06 95.8061 249.813 95.9451L254.678 98.772C254.924 98.633 255.171 98.4931 255.418 98.3501C256.872 97.5111 258.313 96.618 259.74 95.674L254.875 92.847Z" fill="#EC2F37"/>
<path d="M263.657 86.266C262.069 87.6 260.457 88.874 258.822 90.083L263.687 92.91C265.321 91.701 266.934 90.427 268.522 89.093L263.657 86.266Z" fill="white"/>
<path d="M271.962 78.521C270.471 80.056 268.949 81.54 267.401 82.967L272.266 85.794C273.814 84.366 275.335 82.882 276.827 81.348L271.962 78.521Z" fill="white"/>
<path d="M281.987 127.65C280.401 128.136 278.84 128.533 277.306 128.844L282.166 131.668C283.7 131.357 285.261 130.959 286.847 130.474L281.987 127.65Z" fill="white"/>
<path d="M290.761 124.167C289.094 124.976 287.447 125.693 285.822 126.321L290.682 129.145C292.307 128.517 293.954 127.8 295.621 126.991L290.761 124.167Z" fill="#EC2F37"/>
<path d="M287.438 111.77C286.011 112.713 284.57 113.606 283.116 114.446C282.869 114.589 282.622 114.729 282.376 114.868L299.635 124.887C299.881 124.748 300.128 124.608 300.375 124.465C301.829 123.626 303.27 122.733 304.697 121.789L287.438 111.77Z" fill="white"/>
<path d="M296.219 105.19C294.631 106.524 293.019 107.798 291.384 109.007L308.643 119.026C310.278 117.817 311.89 116.543 313.478 115.209L296.219 105.19Z" fill="white"/>
<path d="M316.924 104.639C315.433 106.174 313.912 107.658 312.363 109.085L317.223 111.909C318.771 110.481 320.292 108.997 321.784 107.463L316.924 104.639Z" fill="#D4ECFF"/>
<path d="M291.026 132.902C289.44 133.388 287.879 133.785 286.345 134.096L291.21 136.923C292.744 136.612 294.305 136.214 295.891 135.729L291.026 132.902Z" fill="white"/>
<path d="M299.799 129.42C298.132 130.229 296.485 130.946 294.86 131.574L299.725 134.401C301.35 133.773 302.997 133.056 304.664 132.247L299.799 129.42Z" fill="white"/>
<path d="M308.875 124.218C307.448 125.161 306.007 126.054 304.553 126.894C304.306 127.037 304.059 127.177 303.813 127.316L308.678 130.143C308.924 130.004 309.171 129.864 309.418 129.721C310.872 128.882 312.313 127.989 313.74 127.045L308.875 124.218Z" fill="#D4ECFF"/>
<path d="M317.656 117.637C316.068 118.971 314.456 120.245 312.821 121.454L317.686 124.281C319.32 123.072 320.933 121.798 322.521 120.464L317.656 117.637Z" fill="white"/>
<path d="M325.961 109.892C324.47 111.427 322.949 112.911 321.4 114.338L326.265 117.165C327.813 115.737 329.334 114.253 330.826 112.719L325.961 109.892Z" fill="white"/>
<path d="M325.725 94.751C324.883 95.692 324.05 96.656 323.226 97.641C322.616 98.371 321.999 99.092 321.376 99.805L326.236 102.629C326.859 101.916 327.476 101.195 328.086 100.465C328.91 99.479 329.743 98.516 330.585 97.575L325.725 94.751Z" fill="white"/>
<path d="M334.763 100.003C333.921 100.944 333.088 101.908 332.264 102.893C331.654 103.623 331.037 104.344 330.414 105.057L335.279 107.884C335.902 107.171 336.519 106.45 337.129 105.72C337.953 104.734 338.786 103.771 339.628 102.83L334.763 100.003Z" fill="#D4ECFF"/>
<path d="M254.213 102.939C252.546 103.748 250.899 104.465 249.274 105.093L254.139 107.92C255.764 107.292 257.411 106.575 259.079 105.766L254.213 102.939Z" fill="white"/>
<path d="M262.877 107.974C261.21 108.783 259.563 109.5 257.938 110.128L281.642 123.893C283.267 123.265 284.914 122.548 286.581 121.739L262.877 107.974Z" fill="white"/>
<path d="M271.954 102.772C270.527 103.715 269.086 104.608 267.632 105.448C267.385 105.591 267.138 105.731 266.892 105.87L278.198 112.44C278.444 112.301 278.691 112.161 278.938 112.018C280.392 111.179 281.833 110.286 283.26 109.342L271.954 102.772Z" fill="#D4ECFF"/>
<path d="M280.734 96.191C279.146 97.525 277.534 98.799 275.899 100.008L287.205 106.578C288.839 105.369 290.452 104.095 292.04 102.761L280.734 96.191Z" fill="#EC2F37"/>
<path d="M289.04 88.446C287.549 89.981 286.028 91.465 284.479 92.892L308.183 106.657C309.731 105.229 311.252 103.745 312.744 102.211L289.04 88.446Z" fill="#D4ECFF"/>
<path d="M297.842 78.558C297 79.499 296.167 80.463 295.343 81.448C294.733 82.178 294.116 82.899 293.493 83.612L317.197 97.377C317.82 96.664 318.437 95.943 319.047 95.213C319.871 94.227 320.704 93.264 321.546 92.323L297.842 78.558Z" fill="white"/>
<path d="M280.764 68.6331C279.922 69.5741 279.089 70.5381 278.265 71.5231C277.655 72.2531 277.038 72.974 276.415 73.687L289.694 81.4041C290.317 80.6911 290.934 79.9701 291.544 79.2401C292.368 78.2541 293.201 77.2911 294.043 76.3501L280.764 68.6331Z" fill="#EC2F37"/>
<path d="M263.29 97.7371C261.863 98.6801 260.422 99.5731 258.968 100.413C258.721 100.556 258.474 100.696 258.228 100.835L263.093 103.662C263.339 103.523 263.586 103.383 263.833 103.24C265.287 102.401 266.728 101.508 268.155 100.564L263.29 97.7371Z" fill="#EC2F37"/>
<path d="M272.07 91.156C270.482 92.49 268.869 93.764 267.235 94.973L272.1 97.8C273.735 96.591 275.347 95.317 276.935 93.983L272.07 91.156Z" fill="white"/>
<path d="M280.376 83.411C278.885 84.946 277.364 86.43 275.815 87.857L280.68 90.684C282.228 89.256 283.749 87.772 285.241 86.238L280.376 83.411Z" fill="white"/>
<path d="M229.311 108.421C227.82 108.451 226.303 108.582 224.764 108.811L266.171 132.863C267.71 132.634 269.227 132.503 270.718 132.473L229.311 108.421Z" fill="#D4ECFF"/>
<path d="M274.897 134.902C273.406 134.932 271.889 135.063 270.35 135.292L286.199 144.502C287.738 144.273 289.255 144.142 290.746 144.112L274.897 134.902Z" fill="#D4ECFF"/>
<path d="M291.233 139.616C289.743 139.791 288.283 139.88 286.856 139.887L294.204 144.157C295.631 144.151 297.091 144.061 298.581 143.886L291.233 139.616Z" fill="white"/>
<path d="M299.526 137.842C297.94 138.328 296.379 138.725 294.845 139.036L302.193 143.306C303.727 142.995 305.288 142.597 306.874 142.112L299.526 137.842Z" fill="#D4ECFF"/>
<path d="M308.3 134.36C306.633 135.169 304.986 135.886 303.361 136.514L310.709 140.784C312.334 140.156 313.981 139.439 315.648 138.63L308.3 134.36Z" fill="#EC2F37"/>
<path d="M317.375 129.158C315.948 130.101 314.507 130.994 313.053 131.834C312.806 131.977 312.559 132.117 312.313 132.256L319.661 136.526C319.907 136.387 320.154 136.247 320.401 136.104C321.855 135.265 323.296 134.372 324.723 133.428L317.375 129.158Z" fill="white"/>
<path d="M326.157 122.577C324.569 123.911 322.957 125.185 321.322 126.394L328.67 130.664C330.304 129.455 331.917 128.181 333.505 126.847L326.157 122.577Z" fill="white"/>
<path d="M334.462 114.832C332.971 116.367 331.45 117.851 329.901 119.278L337.249 123.548C338.797 122.12 340.318 120.637 341.81 119.102L334.462 114.832Z" fill="#D4ECFF"/>
<path d="M343.264 104.943C342.422 105.884 341.589 106.848 340.765 107.833C340.155 108.563 339.538 109.284 338.915 109.997L346.263 114.267C346.886 113.554 347.503 112.833 348.113 112.103C348.937 111.117 349.77 110.154 350.612 109.213L343.264 104.943Z" fill="#EC2F37"/>
<path d="M335.032 85.541C333.456 86.911 331.895 88.359 330.356 89.88L355.243 104.343C356.783 102.822 358.343 101.374 359.919 100.004L335.032 85.541Z" fill="white"/>
<path d="M290.071 59.423C288.495 60.793 286.934 62.241 285.395 63.762L326.178 87.452C327.718 85.931 329.278 84.483 330.854 83.113L290.071 59.423Z" fill="white"/>
<path d="M212.988 122.585C211.372 123.613 209.76 124.725 208.157 125.918L231.199 139.298C232.802 138.105 234.414 136.993 236.03 135.965L212.988 122.585Z" fill="#D4ECFF"/>
<path d="M239.882 138.203C238.267 139.231 236.654 140.344 235.051 141.536L245.699 147.724C247.302 146.531 248.914 145.419 250.53 144.391L239.882 138.203Z" fill="#EC2F37"/>
<path d="M254.554 146.73C247.066 151.496 239.65 158.066 232.863 166.117L243.51 172.305C250.296 164.253 257.712 157.684 265.201 152.918L254.554 146.73Z" fill="#EC2F37"/>
<path d="M204.347 128.92C199.846 132.666 195.454 137.041 191.298 141.972L228.839 163.778C232.995 158.847 237.388 154.471 241.888 150.726L204.347 128.92Z" fill="#D4ECFF"/>
<path d="M354.548 80.089C351.857 81.643 349.167 83.433 346.504 85.446L294.925 55.482C297.589 53.469 300.279 51.678 302.969 50.125L354.548 80.089Z" fill="#D4ECFF"/>
<path d="M372.817 90.706C370.126 92.259 367.436 94.05 364.773 96.063L351.575 88.393C354.239 86.38 356.929 84.589 359.619 83.036L372.817 90.706Z" fill="#EC2F37"/>
<path d="M63.4378 218.763C60.5288 220.954 57.5478 222.94 54.5138 224.692L40.7158 216.673C43.7508 214.921 46.7308 212.935 49.6398 210.744L63.4378 218.763Z" fill="white"/>
<path d="M58.1843 203.541C56.6443 204.982 55.0773 206.368 53.4863 207.694L67.2843 215.713C68.8753 214.387 70.4423 213.001 71.9823 211.56L58.1843 203.541Z" fill="white"/>
<path d="M66.2045 195.264C64.7715 196.889 63.3055 198.468 61.8105 199.995L66.6755 202.822C68.1715 201.295 69.6365 199.716 71.0695 198.091L66.2045 195.264Z" fill="#EC2F37"/>
<path d="M74.6186 200.154C73.1856 201.779 71.7196 203.358 70.2246 204.885L131.659 240.576C133.155 239.049 134.62 237.47 136.053 235.845L74.6186 200.154Z" fill="#D4ECFF"/>
<path d="M74.1339 186.347C72.6079 187.914 71.1039 189.553 69.6279 191.263L74.4929 194.09C75.9689 192.381 77.4729 190.741 78.9989 189.174L74.1339 186.347Z" fill="white"/>
<path d="M82.548 191.236C81.021 192.803 79.518 194.442 78.042 196.152L104.613 211.583C106.089 209.874 107.593 208.234 109.119 206.667L82.548 191.236Z" fill="#EC2F37"/>
<path d="M112.895 208.861C111.369 210.428 109.865 212.067 108.389 213.777L139.477 231.843C140.953 230.134 142.457 228.494 143.983 226.927L112.895 208.861Z" fill="white"/>
<path d="M82.5513 178.623C80.9603 179.919 79.3823 181.293 77.8213 182.743L82.6863 185.57C84.2463 184.12 85.8253 182.745 87.4163 181.45L82.5513 178.623Z" fill="white"/>
<path d="M145.21 203.795C143.592 204.797 141.977 205.884 140.369 207.052L145.234 209.879C146.841 208.711 148.457 207.624 150.075 206.622L145.21 203.795Z" fill="white"/>
<path d="M123.772 191.348C122.154 192.35 120.539 193.437 118.931 194.605L136.19 204.624C137.797 203.456 139.413 202.369 141.031 201.367L123.772 191.348Z" fill="#EC2F37"/>
<path d="M99.6242 177.314C98.0062 178.316 96.3912 179.403 94.7832 180.571L114.753 192.176C116.36 191.008 117.976 189.921 119.594 188.919L99.6242 177.314Z" fill="white"/>
<path d="M108.326 172.755C106.719 173.442 105.104 174.22 103.488 175.085L111.038 179.472C112.654 178.607 114.269 177.83 115.876 177.143L108.326 172.755Z" fill="white"/>
<path d="M120.746 179.972C119.139 180.659 117.524 181.437 115.908 182.302L123.458 186.689C125.074 185.824 126.689 185.047 128.296 184.359L120.746 179.972Z" fill="#D4ECFF"/>
<path d="M91.2101 172.424C89.5921 173.426 87.9771 174.513 86.3691 175.681L91.2341 178.508C92.8411 177.34 94.4571 176.253 96.0751 175.251L91.2101 172.424Z" fill="#EC2F37"/>
<path d="M99.9112 167.865C98.3042 168.552 96.6892 169.33 95.0732 170.195L99.9382 173.022C101.555 172.157 103.169 171.38 104.776 170.692L99.9112 167.865Z" fill="#D4ECFF"/>
<path d="M108.47 165.052C106.907 165.405 105.326 165.854 103.733 166.396L108.598 169.223C110.191 168.681 111.772 168.232 113.335 167.879L108.47 165.052Z" fill="white"/>
<path d="M116.69 164.1C115.208 164.097 113.698 164.196 112.167 164.394L117.032 167.221C118.564 167.023 120.073 166.924 121.555 166.927L116.69 164.1Z" fill="#EC2F37"/>
<path d="M124.527 163.791C123.029 163.993 121.56 164.109 120.124 164.143L124.989 166.97C126.425 166.937 127.894 166.82 129.392 166.618L124.527 163.791Z" fill="white"/>
<path d="M132.872 161.866C131.277 162.38 129.705 162.806 128.161 163.145L133.026 165.972C134.57 165.633 136.142 165.207 137.737 164.692L132.872 161.866Z" fill="white"/>
<path d="M132.474 186.788C130.867 187.475 129.252 188.253 127.636 189.118L144.895 199.137C146.511 198.272 148.126 197.495 149.733 196.807L132.474 186.788Z" fill="white"/>
<path d="M141.034 183.975C139.471 184.328 137.89 184.777 136.297 185.319L153.556 195.338C155.149 194.796 156.73 194.347 158.293 193.994L141.034 183.975Z" fill="#EC2F37"/>
<path d="M161.651 190.218C160.169 190.215 158.659 190.314 157.128 190.511L161.988 193.336C163.52 193.138 165.03 193.039 166.511 193.042L161.651 190.218Z" fill="white"/>
<path d="M169.488 189.909C167.99 190.111 166.522 190.227 165.085 190.26L169.945 193.085C171.381 193.052 172.85 192.935 174.348 192.733L169.488 189.909Z" fill="white"/>
<path d="M177.833 187.984C176.237 188.498 174.666 188.924 173.122 189.263L177.982 192.088C179.526 191.749 181.098 191.323 182.693 190.808L177.833 187.984Z" fill="#D4ECFF"/>
<path d="M153.911 199.236C152.304 199.923 150.689 200.701 149.073 201.566L153.938 204.393C155.555 203.528 157.169 202.751 158.776 202.063L153.911 199.236Z" fill="white"/>
<path d="M162.47 196.423C160.907 196.776 159.326 197.225 157.733 197.767L162.598 200.594C164.191 200.052 165.772 199.603 167.336 199.25L162.47 196.423Z" fill="white"/>
<path d="M170.69 195.471C169.208 195.468 167.698 195.567 166.167 195.765L171.032 198.592C172.564 198.394 174.074 198.295 175.555 198.298L170.69 195.471Z" fill="#D4ECFF"/>
<path d="M178.527 195.161C177.029 195.363 175.56 195.479 174.124 195.512L178.989 198.339C180.425 198.306 181.894 198.189 183.392 197.987L178.527 195.161Z" fill="white"/>
<path d="M186.872 193.236C185.276 193.75 183.705 194.176 182.161 194.515L187.026 197.342C188.57 197.003 190.142 196.577 191.737 196.063L186.872 193.236Z" fill="white"/>
<path d="M187.756 183.778C186.075 184.656 184.412 185.443 182.771 186.139L187.631 188.963C189.272 188.267 190.935 187.481 192.616 186.602L187.756 183.778Z" fill="white"/>
<path d="M196.795 189.03C195.114 189.908 193.452 190.695 191.81 191.391L196.675 194.218C198.317 193.522 199.979 192.736 201.66 191.857L196.795 189.03Z" fill="#D4ECFF"/>
<path d="M116.885 169.942C115.322 170.295 113.741 170.744 112.148 171.286L117.013 174.113C118.606 173.571 120.187 173.122 121.75 172.769L116.885 169.942Z" fill="white"/>
<path d="M125.549 174.977C123.986 175.33 122.406 175.779 120.812 176.321L132.118 182.891C133.711 182.349 135.292 181.9 136.855 181.547L125.549 174.977Z" fill="white"/>
<path d="M133.768 174.025C132.286 174.022 130.776 174.121 129.245 174.319L152.949 188.084C154.481 187.886 155.991 187.787 157.472 187.79L133.768 174.025Z" fill="#D4ECFF"/>
<path d="M141.605 173.716C140.107 173.918 138.638 174.034 137.202 174.067L160.906 187.832C162.342 187.799 163.811 187.682 165.309 187.48L141.605 173.716Z" fill="#EC2F37"/>
<path d="M149.95 171.791C148.355 172.305 146.783 172.731 145.239 173.071L168.943 186.836C170.487 186.497 172.059 186.071 173.654 185.556L149.95 171.791Z" fill="#D4ECFF"/>
<path d="M159.874 167.585C158.193 168.463 156.531 169.25 154.889 169.946L178.593 183.711C180.235 183.015 181.897 182.229 183.578 181.35L159.874 167.585Z" fill="white"/>
<path d="M142.795 157.66C141.114 158.538 139.452 159.324 137.81 160.021L151.089 167.738C152.731 167.042 154.393 166.256 156.074 165.377L142.795 157.66Z" fill="#EC2F37"/>
<path d="M125.104 168.99C123.622 168.987 122.112 169.086 120.581 169.284L125.446 172.111C126.978 171.913 128.487 171.814 129.969 171.818L125.104 168.99Z" fill="#EC2F37"/>
<path d="M132.941 168.681C131.443 168.883 129.974 169 128.538 169.033L133.403 171.86C134.839 171.827 136.308 171.71 137.806 171.508L132.941 168.681Z" fill="white"/>
<path d="M141.286 166.756C139.691 167.27 138.119 167.696 136.575 168.035L141.44 170.862C142.984 170.523 144.556 170.097 146.151 169.583L141.286 166.756Z" fill="white"/>
<path d="M90.9644 183.513C89.3734 184.809 87.7954 186.183 86.2344 187.633L127.641 211.685C129.201 210.235 130.78 208.86 132.371 207.565L90.9644 183.513Z" fill="#D4ECFF"/>
<path d="M136.551 209.994C134.96 211.29 133.382 212.664 131.821 214.114L147.67 223.324C149.23 221.874 150.809 220.499 152.4 219.204L136.551 209.994Z" fill="#D4ECFF"/>
<path d="M153.71 208.735C152.092 209.737 150.477 210.824 148.869 211.992L156.217 216.262C157.824 215.094 159.44 214.007 161.058 213.005L153.71 208.735Z" fill="white"/>
<path d="M162.412 204.176C160.805 204.863 159.19 205.641 157.574 206.506L164.922 210.776C166.538 209.911 168.153 209.134 169.76 208.447L162.412 204.176Z" fill="#D4ECFF"/>
<path d="M170.971 201.363C169.408 201.716 167.827 202.165 166.234 202.707L173.582 206.977C175.175 206.435 176.756 205.986 178.319 205.633L170.971 201.363Z" fill="#EC2F37"/>
<path d="M179.191 200.411C177.709 200.408 176.199 200.507 174.668 200.705L182.016 204.975C183.548 204.777 185.058 204.678 186.539 204.681L179.191 200.411Z" fill="white"/>
<path d="M187.027 200.101C185.529 200.303 184.06 200.42 182.624 200.453L189.972 204.723C191.408 204.69 192.877 204.573 194.375 204.371L187.027 200.101Z" fill="white"/>
<path d="M195.372 198.176C193.777 198.69 192.205 199.116 190.661 199.455L198.009 203.725C199.553 203.386 201.125 202.96 202.72 202.446L195.372 198.176Z" fill="#D4ECFF"/>
<path d="M205.296 193.97C203.615 194.848 201.953 195.635 200.311 196.331L207.659 200.601C209.3 199.905 210.963 199.119 212.644 198.24L205.296 193.97Z" fill="#EC2F37"/>
<path d="M197.906 177.476C196.263 178.66 194.599 179.777 192.916 180.824L217.803 195.287C219.486 194.24 221.15 193.122 222.793 191.939L197.906 177.476Z" fill="white"/>
<path d="M152.945 151.358C151.302 152.542 149.638 153.659 147.955 154.706L188.738 178.396C190.421 177.349 192.085 176.231 193.728 175.048L152.945 151.358Z" fill="white"/>
<path d="M75.821 213.789C74.281 215.23 72.714 216.616 71.123 217.942L94.165 231.322C95.756 229.996 97.3231 228.61 98.8631 227.169L75.821 213.789Z" fill="#D4ECFF"/>
<path d="M102.714 229.408C101.174 230.849 99.6076 232.235 98.0156 233.561L108.664 239.749C110.255 238.423 111.822 237.037 113.362 235.596L102.714 229.408Z" fill="#EC2F37"/>
<path d="M128.034 244.122C122.518 249.286 116.65 253.74 110.564 257.254L99.917 251.066C106.003 247.552 111.871 243.097 117.387 237.934L128.034 244.122Z" fill="#EC2F37"/>
<path d="M104.816 242.799C101.906 244.99 98.9256 246.976 95.8916 248.728L58.3506 226.922C61.3856 225.17 64.3656 223.184 67.2746 220.993L104.816 242.799Z" fill="#D4ECFF"/>
<path d="M170.309 135.602C166.388 139.962 162.231 143.975 157.896 147.54L209.475 177.504C213.811 173.939 217.968 169.926 221.888 165.566L170.309 135.602Z" fill="#D4ECFF"/>
<path d="M226.961 168.514C223.04 172.874 218.883 176.887 214.548 180.452L227.746 188.122C232.082 184.557 236.239 180.544 240.159 176.184L226.961 168.514Z" fill="#EC2F37"/>
<path d="M35.1758 216.322L112.003 260.71V263.222L35.1758 218.833V216.322Z" fill="#B3E0FF"/>
<path d="M192.916 235.234C192.769 235.234 192.625 235.157 192.546 235.02C192.428 234.815 192.498 234.554 192.702 234.436L330.034 155.147C330.237 155.03 330.5 155.098 330.618 155.303C330.736 155.508 330.666 155.769 330.462 155.887L193.13 235.176C193.062 235.215 192.989 235.234 192.916 235.234Z" fill="white"/>
<path d="M243.145 205.794C241.605 204.905 239.108 204.905 237.568 205.794L222.094 214.728C220.554 215.617 220.554 217.059 222.094 217.948C223.634 218.837 226.131 218.837 227.672 217.948L243.146 209.014C244.685 208.125 244.685 206.683 243.145 205.794Z" fill="#D4ECFF"/>
<path d="M252.338 203.691C250.824 204.565 248.369 204.565 246.855 203.691C245.341 202.817 245.341 201.4 246.855 200.526C248.369 199.652 250.824 199.652 252.338 200.526C253.852 201.399 253.852 202.816 252.338 203.691Z" fill="#EC2F37"/>
<path d="M370.3 252.59L346.061 238.596C344.573 237.737 344.76 236.237 346.478 235.245L369.883 221.732C371.601 220.74 374.199 220.633 375.687 221.492L399.926 235.486C401.414 236.345 401.227 237.845 399.509 238.837L376.104 252.35C374.386 253.341 371.787 253.448 370.3 252.59Z" fill="#7DC3EA"/>
<path d="M372.826 246.81C371.648 246.81 370.515 246.564 369.646 246.062L345.408 232.068C344.354 231.46 343.751 230.517 343.751 229.481C343.751 228.319 344.507 227.215 345.825 226.455L369.229 212.943C371.339 211.724 374.462 211.62 376.339 212.701L400.577 226.697C401.63 227.304 402.234 228.247 402.235 229.282C402.235 230.445 401.479 231.549 400.161 232.309L376.756 245.822C375.622 246.477 374.195 246.81 372.826 246.81ZM373.18 214.557C372.263 214.557 371.273 214.779 370.535 215.205L347.131 228.718C346.493 229.086 346.362 229.414 346.362 229.483C346.362 229.515 346.445 229.652 346.714 229.807L370.952 243.801C372.04 244.428 374.141 244.316 375.449 243.56L398.854 230.048C399.492 229.68 399.622 229.351 399.622 229.283C399.622 229.251 399.539 229.114 399.271 228.96L375.032 214.964C374.558 214.69 373.891 214.557 373.18 214.557Z" fill="white"/>
<path d="M400.922 220.707V212.344L382.169 212.334L375.687 208.592C374.199 207.733 371.601 207.841 369.883 208.833L363.835 212.325L345.065 212.315V220.916C345.023 221.497 345.347 222.058 346.062 222.471L370.301 236.465C371.789 237.324 374.387 237.216 376.105 236.224L399.51 222.711C400.499 222.138 400.977 221.397 400.922 220.707Z" fill="#396CAA"/>
<path d="M372.993 208.015C371.904 208.041 370.774 208.316 369.882 208.831L363.834 212.323L345.064 212.313V220.914C345.022 221.495 345.346 222.056 346.061 222.469L370.3 236.463C371.015 236.876 371.987 237.063 372.994 237.038V208.015H372.993Z" fill="url(#paint4_radial_110_861)"/>
<path d="M347.189 212.313L345.065 212.312V220.913C345.023 221.494 345.347 222.055 346.062 222.468L347.19 223.119V212.313H347.189Z" fill="#D4ECFF"/>
<path d="M370.673 236.646C371.956 237.196 373.812 237.165 375.312 236.593V226.827H370.673V236.646Z" fill="#5793CE"/>
<path d="M370.3 227.893L346.061 213.899C344.573 213.04 344.76 211.54 346.478 210.548L369.883 197.035C371.601 196.043 374.199 195.936 375.687 196.794L399.926 210.788C401.414 211.647 401.227 213.147 399.509 214.139L376.104 227.652C374.386 228.644 371.787 228.751 370.3 227.893Z" fill="url(#paint5_linear_110_861)"/>
<path d="M399.508 212.493L376.104 226.006C374.386 226.998 371.788 227.106 370.3 226.247L346.061 212.253C345.729 212.062 345.485 211.837 345.319 211.594C344.808 212.416 345.04 213.309 346.061 213.898L370.3 227.892C371.788 228.751 374.386 228.643 376.104 227.651L399.508 214.138C400.843 213.367 401.248 212.291 400.667 211.446C400.434 211.822 400.046 212.183 399.508 212.493Z" fill="white"/>
<path d="M392.006 222.914C392.006 223.538 391.568 224.297 391.027 224.61C390.486 224.922 390.048 224.669 390.048 224.045C390.048 223.421 390.486 222.661 391.027 222.349C391.568 222.036 392.006 222.289 392.006 222.914Z" fill="#D4ECFF"/>
<path d="M395.156 221.095C395.156 221.719 394.718 222.478 394.177 222.791C393.636 223.103 393.198 222.85 393.198 222.226C393.198 221.602 393.636 220.842 394.177 220.53C394.718 220.218 395.156 220.471 395.156 221.095Z" fill="white"/>
<path d="M398.306 219.277C398.306 219.901 397.868 220.66 397.327 220.973C396.786 221.285 396.348 221.032 396.348 220.408C396.348 219.784 396.786 219.024 397.327 218.712C397.868 218.399 398.306 218.652 398.306 219.277Z" fill="#D4ECFF"/>
<path d="M371.733 219.216L360.39 212.667C359.694 212.265 359.781 211.563 360.585 211.099L371.537 204.776C372.341 204.312 373.557 204.261 374.253 204.663L385.596 211.212C386.292 211.614 386.205 212.316 385.401 212.78L374.449 219.103C373.645 219.568 372.429 219.618 371.733 219.216Z" fill="url(#paint6_radial_110_861)"/>
<path d="M372.819 213.733L371.25 212.827C371.154 212.771 371.166 212.674 371.277 212.61L372.792 211.735C372.903 211.671 373.071 211.664 373.168 211.719L374.737 212.625C374.833 212.681 374.821 212.778 374.71 212.842L373.195 213.717C373.083 213.782 372.915 213.789 372.819 213.733Z" fill="#D4ECFF"/>
<path d="M360.39 212.668L360.422 212.687C360.475 212.649 360.524 212.61 360.585 212.575L371.537 206.252C372.341 205.788 373.557 205.737 374.253 206.139L385.563 212.669C386.205 212.21 386.238 211.584 385.595 211.213L374.252 204.664C373.556 204.262 372.34 204.312 371.536 204.777L360.584 211.1C359.781 211.564 359.693 212.266 360.39 212.668Z" fill="#396CAA"/>
<path d="M86.2363 324.271L68.7803 314.194L86.2353 304.116L103.69 314.194L86.2363 324.271Z" fill="#7DC3EA"/>
<path d="M86.2364 318.27L66.0674 306.625L86.2364 294.981L106.404 306.626L86.2364 318.27ZM71.4934 306.625L86.2354 315.137L100.976 306.626L86.2344 298.114L71.4934 306.625Z" fill="white"/>
<path d="M103.69 298.751L86.2363 308.829V288.674L103.69 278.597V298.751Z" fill="url(#paint7_radial_110_861)"/>
<path d="M86.2362 288.674L68.7812 278.597L86.2352 268.52L103.69 278.597L86.2362 288.674Z" fill="url(#paint8_linear_110_861)"/>
<path d="M86.2362 308.829L68.7812 298.751V278.597L86.2362 288.674V308.829Z" fill="url(#paint9_radial_110_861)"/>
<path d="M79.9494 297.941L75.0674 295.122V289.485L79.9494 292.304V297.941Z" fill="white"/>
<path d="M145.239 127.879L127.784 117.801L145.238 107.724L162.694 117.802L145.239 127.879Z" fill="#7DC3EA"/>
<path d="M145.239 121.878L125.07 110.233L145.238 98.589L165.408 110.233L145.239 121.878ZM130.497 110.234L145.239 118.746L159.98 110.234L145.238 101.723L130.497 110.234Z" fill="white"/>
<path d="M162.694 102.359L145.239 112.437V92.282L162.694 82.205V102.359Z" fill="url(#paint10_radial_110_861)"/>
<path d="M145.239 92.282L127.784 82.205L145.238 72.127L162.693 82.205L145.239 92.282Z" fill="url(#paint11_linear_110_861)"/>
<path d="M145.239 112.437L127.784 102.359V82.205L145.239 92.282V112.437Z" fill="url(#paint12_radial_110_861)"/>
<path d="M138.953 101.549L134.07 98.73V93.093L138.953 95.912V101.549Z" fill="white"/>
<path d="M390.473 133.598C390.229 133.598 389.986 133.535 389.767 133.409C389.331 133.157 389.061 132.691 389.061 132.186V114.099C389.061 113.594 389.331 113.128 389.767 112.876L405.432 103.832C405.87 103.58 406.407 103.58 406.844 103.832C407.281 104.084 407.55 104.55 407.55 105.055V123.142C407.55 123.647 407.281 124.113 406.844 124.365L391.179 133.409C390.961 133.535 390.717 133.598 390.473 133.598ZM391.885 114.914V129.74L404.726 122.326V107.5L391.885 114.914Z" fill="white"/>
<path d="M235.052 331.841C250.628 331.841 263.256 324.551 263.256 315.558C263.256 306.565 250.628 299.275 235.052 299.275C219.475 299.275 206.848 306.565 206.848 315.558C206.848 324.551 219.475 331.841 235.052 331.841Z" fill="#7DC3EA"/>
<path d="M235.052 323.93C227.538 323.93 220.026 322.28 214.305 318.977C208.461 315.602 205.242 311.02 205.242 306.073C205.242 301.127 208.461 296.544 214.305 293.17C225.745 286.567 244.357 286.567 255.796 293.171C261.64 296.545 264.859 301.127 264.859 306.074C264.859 311.021 261.64 315.603 255.796 318.978C250.079 322.28 242.564 323.93 235.052 323.93ZM235.05 291.379C228.118 291.379 221.188 292.901 215.91 295.948C211.101 298.724 208.452 302.32 208.452 306.072C208.452 309.824 211.1 313.42 215.911 316.197C226.464 322.291 243.638 322.292 254.192 316.198C259.003 313.421 261.65 309.825 261.65 306.073C261.65 302.321 259.002 298.725 254.192 295.949C248.915 292.903 241.981 291.379 235.05 291.379Z" fill="white"/>
<path d="M263.819 294.527V286.45H262.294C260.925 284.092 258.644 281.872 255.393 279.995C244.158 273.508 225.943 273.508 214.708 279.995C211.456 281.872 209.176 284.092 207.807 286.45H206.284V294.484H206.286C206.267 298.749 209.072 303.018 214.709 306.272C225.944 312.759 244.159 312.759 255.394 306.273C261.012 303.03 263.82 298.778 263.819 294.527Z" fill="#FF6168"/>
<path d="M255.393 279.995C249.776 276.752 242.414 275.13 235.052 275.13V311.137C242.414 311.137 249.777 309.516 255.394 306.273C261.012 303.03 263.82 298.778 263.82 294.527V286.45H262.295C260.925 284.093 258.645 281.873 255.393 279.995Z" fill="#EC2F37"/>
<path d="M235.051 303.059C250.939 303.059 263.819 295.623 263.819 286.45C263.819 277.277 250.939 269.841 235.051 269.841C219.163 269.841 206.283 277.277 206.283 286.45C206.283 295.623 219.163 303.059 235.051 303.059Z" fill="url(#paint13_linear_110_861)"/>
<path d="M255.394 298.195C244.159 304.682 225.944 304.682 214.709 298.195C209.325 295.087 206.55 291.052 206.326 286.979C206.083 291.405 208.858 295.875 214.709 299.252C225.944 305.739 244.159 305.739 255.394 299.252C261.244 295.874 264.019 291.405 263.776 286.979C263.553 291.052 260.778 295.086 255.394 298.195Z" fill="white"/>
<path d="M219.615 292.266C219.075 291.981 218.767 291.594 218.768 291.186L218.8 280.161C218.802 279.321 220.099 278.64 221.696 278.641C223.294 278.641 224.583 279.325 224.583 280.167L224.556 289.309L253.641 286.06C255.204 285.885 256.738 286.411 257.07 287.234C257.402 288.057 256.403 288.866 254.842 289.04L222.26 292.679C221.405 292.774 220.516 292.662 219.837 292.372C219.76 292.338 219.685 292.303 219.615 292.266Z" fill="white"/>
<defs>
<linearGradient id="paint0_linear_110_861" x1="163.596" y1="182.481" x2="392.494" y2="182.481" gradientUnits="userSpaceOnUse">
<stop stop-color="#86B8E0"/>
<stop offset="0.1163" stop-color="#98C4E7"/>
<stop offset="0.3255" stop-color="#B2D6F2"/>
<stop offset="0.5401" stop-color="#C5E2F9"/>
<stop offset="0.7615" stop-color="#D0EAFE"/>
<stop offset="1" stop-color="#D4ECFF"/>
</linearGradient>
<radialGradient id="paint1_radial_110_861" cx="0" cy="0" r="1" gradientUnits="userSpaceOnUse" gradientTransform="translate(370.148 137.809) scale(222.965 222.965)">
<stop stop-color="#173D7A"/>
<stop offset="0.4231" stop-color="#153B76"/>
<stop offset="0.8152" stop-color="#0E336B"/>
<stop offset="1" stop-color="#092E63"/>
</radialGradient>
<radialGradient id="paint2_radial_110_861" cx="0" cy="0" r="1" gradientUnits="userSpaceOnUse" gradientTransform="translate(304.703 87.5715) scale(180.758 180.758)">
<stop stop-color="#082C60"/>
<stop offset="0.4876" stop-color="#072B5C"/>
<stop offset="0.9396" stop-color="#052851"/>
<stop offset="1" stop-color="#05274F"/>
</radialGradient>
<radialGradient id="paint3_radial_110_861" cx="0" cy="0" r="1" gradientUnits="userSpaceOnUse" gradientTransform="translate(182.717 -48.2668) scale(211.624 211.624)">
<stop stop-color="#173D7A"/>
<stop offset="0.4231" stop-color="#153B76"/>
<stop offset="0.8152" stop-color="#0E336B"/>
<stop offset="1" stop-color="#092E63"/>
</radialGradient>
<radialGradient id="paint4_radial_110_861" cx="0" cy="0" r="1" gradientUnits="userSpaceOnUse" gradientTransform="translate(346.6 209.879) scale(30.6375 30.6375)">
<stop stop-color="#699DD1"/>
<stop offset="0.2662" stop-color="#6396CC"/>
<stop offset="0.6412" stop-color="#5184BD"/>
<stop offset="1" stop-color="#396CAA"/>
</radialGradient>
<linearGradient id="paint5_linear_110_861" x1="352.383" y1="200.056" x2="400.373" y2="228.667" gradientUnits="userSpaceOnUse">
<stop stop-color="#D4ECFF"/>
<stop offset="0.2009" stop-color="#D0EAFE"/>
<stop offset="0.3874" stop-color="#C5E2F9"/>
<stop offset="0.5682" stop-color="#B2D6F2"/>
<stop offset="0.7444" stop-color="#98C4E7"/>
<stop offset="0.8423" stop-color="#86B8E0"/>
</linearGradient>
<radialGradient id="paint6_radial_110_861" cx="0" cy="0" r="1" gradientUnits="userSpaceOnUse" gradientTransform="translate(372.993 211.94) scale(10.6739 10.6739)">
<stop stop-color="#173D7A"/>
<stop offset="0.4231" stop-color="#153B76"/>
<stop offset="0.8152" stop-color="#0E336B"/>
<stop offset="1" stop-color="#092E63"/>
</radialGradient>
<radialGradient id="paint7_radial_110_861" cx="0" cy="0" r="1" gradientUnits="userSpaceOnUse" gradientTransform="translate(84.5842 288.037) scale(26.0152 26.0152)">
<stop stop-color="#274F89"/>
<stop offset="1" stop-color="#173D7A"/>
</radialGradient>
<linearGradient id="paint8_linear_110_861" x1="68.781" y1="278.597" x2="114.815" y2="278.597" gradientUnits="userSpaceOnUse">
<stop stop-color="#D4ECFF"/>
<stop offset="0.2385" stop-color="#D0EAFE"/>
<stop offset="0.4599" stop-color="#C5E2F9"/>
<stop offset="0.6745" stop-color="#B2D6F2"/>
<stop offset="0.8837" stop-color="#98C4E7"/>
<stop offset="1" stop-color="#86B8E0"/>
</linearGradient>
<radialGradient id="paint9_radial_110_861" cx="0" cy="0" r="1" gradientUnits="userSpaceOnUse" gradientTransform="translate(47.182 261.116) scale(47.025 47.025)">
<stop stop-color="#699DD1"/>
<stop offset="0.2662" stop-color="#6396CC"/>
<stop offset="0.6412" stop-color="#5184BD"/>
<stop offset="1" stop-color="#396CAA"/>
</radialGradient>
<radialGradient id="paint10_radial_110_861" cx="0" cy="0" r="1" gradientUnits="userSpaceOnUse" gradientTransform="translate(143.588 91.6447) scale(26.0152 26.0152)">
<stop stop-color="#274F89"/>
<stop offset="1" stop-color="#173D7A"/>
</radialGradient>
<linearGradient id="paint11_linear_110_861" x1="127.784" y1="82.2048" x2="173.819" y2="82.2048" gradientUnits="userSpaceOnUse">
<stop stop-color="#D4ECFF"/>
<stop offset="0.2385" stop-color="#D0EAFE"/>
<stop offset="0.4599" stop-color="#C5E2F9"/>
<stop offset="0.6745" stop-color="#B2D6F2"/>
<stop offset="0.8837" stop-color="#98C4E7"/>
<stop offset="1" stop-color="#86B8E0"/>
</linearGradient>
<radialGradient id="paint12_radial_110_861" cx="0" cy="0" r="1" gradientUnits="userSpaceOnUse" gradientTransform="translate(106.185 64.7238) scale(47.025 47.025)">
<stop stop-color="#699DD1"/>
<stop offset="0.2662" stop-color="#6396CC"/>
<stop offset="0.6412" stop-color="#5184BD"/>
<stop offset="1" stop-color="#396CAA"/>
</radialGradient>
<linearGradient id="paint13_linear_110_861" x1="206.283" y1="286.45" x2="263.82" y2="286.45" gradientUnits="userSpaceOnUse">
<stop stop-color="#EC2F37"/>
<stop offset="0.312" stop-color="#EC2F37"/>
<stop offset="0.6016" stop-color="#EC2F37"/>
<stop offset="0.8814" stop-color="#EC2F37"/>
<stop offset="1" stop-color="#EC2F37"/>
</linearGradient>
</defs>
</svg>
