<svg width="800" height="800" viewBox="0 0 800 800" fill="none" xmlns="http://www.w3.org/2000/svg">
<path d="M43.6899 461.13V521.89H43.7399C44.4399 534 53.0199 545.61 66.2499 554.52C138.17 602.93 217.87 642.48 292.85 685.98C327.47 706.06 358.15 728.2 399.57 728.2C440.99 728.2 471.69 706.05 506.29 685.98C581.82 642.16 657.36 598.34 732.89 554.52C738.33 551.43 743.84 547.44 747.84 542.57C753.84 535.27 756.3 528.35 756.27 521.89H756.29V461.13H43.6899Z" fill="white" stroke="#373A3A" stroke-width="2.5" stroke-linecap="round" stroke-linejoin="round"/>
<path d="M733.2 488.71C657.6 532.49 582 576.27 506.4 620.05C471.75 640.11 441 662.24 399.58 662.24C358.13 662.24 327.42 640.12 292.76 620.05C217.71 576.59 137.94 537.09 65.9601 488.71C42.4201 472.89 33.6001 448.55 57.6001 427.98C74.6801 413.34 98.2501 403.71 117.54 392.63C164.91 365.41 212.28 338.19 259.66 310.97C298.85 288.45 341 254.39 387.9 250.43C423.81 247.4 450.87 260.03 481.07 277.39C562.96 324.44 646.1 369.81 726.93 418.66C748.38 431.63 768.55 452.01 748.17 476.77C744.17 481.63 738.64 485.62 733.2 488.71Z" fill="white" stroke="#373A3A" stroke-width="2.5" stroke-linecap="round" stroke-linejoin="round"/>
<path d="M326.04 309.19V397.35L402.38 441.41V353.27L326.04 309.19Z" fill="#373A3A" stroke="#373A3A" stroke-width="2.5" stroke-miterlimit="10"/>
<path d="M326.04 309.19L402.38 353.27L478.71 309.19L402.38 265.12L326.04 309.19Z" fill="white"/>
<path d="M402.38 353.27V441.42L478.71 397.36V309.2L402.38 353.27Z" fill="#DAE0E5" stroke="#373A3A" stroke-width="2.5" stroke-miterlimit="10"/>
<path d="M402.38 353.27V441.41" stroke="#373A3A" stroke-width="2.5" stroke-linecap="round" stroke-linejoin="round"/>
<path d="M438.81 419.23L450.04 412.93V327.36L438.81 334.26V419.23Z" fill="#FF8385"/>
<path d="M369.65 421.91L358.43 415.77V328.39L369.65 335.28V421.91Z" fill="#FF8385"/>
<path d="M478.71 309.19L402.38 265.12L326.04 309.19L402.38 353.27L478.71 309.19Z" stroke="#373A3A" stroke-width="2.5" stroke-linecap="round" stroke-linejoin="round"/>
<path d="M362.91 289.34L437.59 332.45L448.28 326.44L373.62 283.33L362.91 289.34Z" fill="#FF8385"/>
<path d="M444.11 289.87L369.43 332.98L358.73 326.97L433.4 283.86L444.11 289.87Z" fill="#FF8385"/>
<path d="M632.05 344.37V366.01L626.42 367.37V358.67L619.33 354.06L622.2 346.76L632.05 344.37Z" fill="#373A3A"/>
<path d="M542.84 354.46C547.29 358.1 553.99 360.83 562.1 361.89C575.26 363.62 588.37 360.45 595.72 354.46C597.26 353.22 598.54 351.85 599.52 350.36C600.08 349.54 600.53 348.68 600.88 347.79C604.85 337.72 593.91 327.7 576.47 325.41C559.02 323.12 541.66 329.43 537.69 339.5C536.21 343.26 536.81 347.02 539.05 350.36C540.02 351.82 541.3 353.19 542.86 354.46H542.84ZM630.8 336.41L632.05 344.37L622.2 346.76L619.33 354.06L626.41 358.67L619.33 365.53L608.93 364.12L599.17 369.05L600.21 375.19L587.49 378.34L580.51 373.67L567.6 374.35L562.19 379.67L548.7 377.9L547.8 371.76L536.67 367.93L526.88 370.39L517.76 364.38L523.29 359.1L518.19 352.22L507.75 350.89L506.5 342.93L512.14 341.56L516.35 340.54L519.22 333.25L512.14 328.63L519.22 321.77L529.62 323.18L539.38 318.25L538.33 312.11L551.06 308.96L558.04 313.63L570.96 312.95L576.37 307.63L589.86 309.4L590.76 315.54L601.89 319.37L611.68 316.9L620.8 322.91L615.27 328.19L620.38 335.07L620.79 335.12H620.8L630.81 336.4L630.8 336.41Z" fill="white"/>
<path d="M626.42 367.37V380.31L619.33 387.17V365.53L626.42 358.67V367.37Z" fill="#FF8385"/>
<path d="M620.79 322.93V335.13H620.78L620.37 335.09L615.26 328.21L620.79 322.93Z" fill="#373A3A"/>
<path d="M619.33 375.7V387.17L608.93 385.76L600.21 390.17V375.19L599.17 369.06L608.93 364.13L619.33 365.53V375.7Z" fill="#373A3A"/>
<path d="M576.46 325.41C593.91 327.7 604.84 337.72 600.87 347.79C600.52 348.68 600.07 349.54 599.51 350.36C598.53 351.85 597.24 353.22 595.71 354.46C591.26 350.83 584.56 348.1 576.45 347.04C563.29 345.31 550.18 348.48 542.83 354.46C541.28 353.2 540 351.82 539.02 350.36C536.79 347.02 536.19 343.26 537.66 339.5C541.63 329.43 558.99 323.11 576.44 325.41H576.46Z" fill="#373A3A"/>
<path d="M600.21 390.17V396.84L587.49 399.98V378.34L600.21 375.19V390.17Z" fill="#8989E5"/>
<path d="M587.49 378.34V399.98L580.51 395.31L567.6 395.99L562.19 401.31V379.67L567.6 374.36L580.51 373.67L587.49 378.34Z" fill="#373A3A"/>
<path d="M562.19 379.67V401.31L548.7 399.54V377.9L562.19 379.67Z" fill="#FF8385"/>
<path d="M548.7 377.9V399.54L547.8 393.39L536.67 389.55L526.87 392.03V370.39L536.67 367.92L547.8 371.76L548.7 377.9Z" fill="#373A3A"/>
<path d="M526.87 370.39V392.03L517.76 386.01V364.38L526.87 370.39Z" fill="#FF8385"/>
<path d="M518.19 352.22L523.29 359.1L517.76 364.38V373.81L507.75 372.53L506.5 364.57V342.93L507.75 350.89L518.19 352.22Z" fill="#373A3A"/>
<path d="M519.22 333.25L516.35 340.54L512.14 341.56L512.13 341.55V328.63L519.22 333.25Z" fill="#373A3A"/>
<path d="M626.42 358.67L619.33 354.06L622.2 346.76L632.05 344.37L630.8 336.41L620.79 335.13H620.78L620.37 335.09L615.26 328.21L620.79 322.93L611.68 316.92L601.88 319.39L590.75 315.55L589.85 309.41L576.36 307.64L570.95 312.95L558.03 313.63L551.06 308.96L538.33 312.11L539.38 318.25L529.62 323.18L519.22 321.77L512.13 328.63L519.22 333.25L516.35 340.54L512.14 341.56V341.57L506.5 342.93L507.75 350.89L518.19 352.22L523.29 359.1L517.76 364.38L526.87 370.39L536.67 367.92L547.8 371.76L548.7 377.9L562.19 379.67L567.6 374.36L580.51 373.67L587.49 378.34L600.21 375.19L599.17 369.06L608.93 364.13L619.33 365.53L626.42 358.67Z" stroke="#3A3A3A" stroke-width="2.5" stroke-linecap="round" stroke-linejoin="round"/>
<path d="M542.84 354.46C541.29 353.2 540.01 351.82 539.03 350.36C536.8 347.02 536.2 343.26 537.67 339.5C541.64 329.43 559 323.11 576.45 325.41C593.9 327.7 604.83 337.72 600.86 347.79C600.51 348.68 600.06 349.54 599.5 350.36C598.52 351.85 597.23 353.22 595.7 354.46C588.34 360.44 575.24 363.61 562.08 361.89C553.97 360.83 547.28 358.09 542.82 354.46H542.84Z" stroke="#3A3A3A" stroke-width="2.5" stroke-linecap="round" stroke-linejoin="round"/>
<path d="M542.83 354.47C550.18 348.49 563.3 345.32 576.45 347.05C584.55 348.11 591.25 350.85 595.71 354.47" stroke="#3A3A3A" stroke-width="2.5" stroke-linecap="round" stroke-linejoin="round"/>
<path d="M506.5 342.93V364.57L507.75 372.53L517.76 373.81" stroke="#3A3A3A" stroke-width="2.5" stroke-linecap="round" stroke-linejoin="round"/>
<path d="M512.13 328.63V341.55" stroke="#3A3A3A" stroke-width="2.5" stroke-linecap="round" stroke-linejoin="round"/>
<path d="M526.87 370.39V392.03" stroke="#3A3A3A" stroke-width="2.5" stroke-linecap="round" stroke-linejoin="round"/>
<path d="M548.7 377.9V399.54" stroke="#3A3A3A" stroke-width="2.5" stroke-linecap="round" stroke-linejoin="round"/>
<path d="M562.19 379.67V401.31" stroke="#3A3A3A" stroke-width="2.5" stroke-linecap="round" stroke-linejoin="round"/>
<path d="M587.49 378.34V399.98" stroke="#3A3A3A" stroke-width="2.5" stroke-linecap="round" stroke-linejoin="round"/>
<path d="M600.21 375.19V396.84L587.49 399.98L580.51 395.31L567.6 395.99L562.19 401.31L548.7 399.54L547.8 393.39L536.67 389.55L526.87 392.03L517.76 386.01V364.38" stroke="#3A3A3A" stroke-width="2.5" stroke-linecap="round" stroke-linejoin="round"/>
<path d="M632.05 344.37V366.01L626.42 367.37" stroke="#3A3A3A" stroke-width="2.5" stroke-linecap="round" stroke-linejoin="round"/>
<path d="M619.33 365.53V387.17" stroke="#3A3A3A" stroke-width="2.5" stroke-linecap="round" stroke-linejoin="round"/>
<path d="M626.42 358.67V380.31L619.33 387.17L608.93 385.76L600.21 390.17" stroke="#3A3A3A" stroke-width="2.5" stroke-linecap="round" stroke-linejoin="round"/>
<path d="M620.79 322.93V335.13" stroke="#3A3A3A" stroke-width="2.5" stroke-linecap="round" stroke-linejoin="round"/>
<path d="M712.07 424.89V457.82L703.5 459.9V446.65L692.71 439.64L697.08 428.53L712.07 424.89Z" fill="#373A3A"/>
<path d="M576.32 440.25C583.1 445.79 593.29 449.94 605.63 451.56C625.65 454.19 645.59 449.37 656.78 440.26C659.12 438.37 661.07 436.28 662.56 434.02C663.41 432.77 664.09 431.47 664.62 430.11C670.66 414.78 654.02 399.53 627.47 396.05C600.91 392.56 574.5 402.17 568.46 417.49C566.21 423.22 567.13 428.93 570.52 434.01C572 436.23 573.95 438.32 576.31 440.24L576.32 440.25ZM710.17 412.79L712.08 424.9L697.09 428.54L692.72 439.64L703.5 446.66L692.72 457.1L676.89 454.96L662.04 462.46L663.62 471.8L644.26 476.59L633.64 469.49L613.99 470.53L605.76 478.62L585.23 475.93L583.86 466.58L566.92 460.75L552.02 464.5L538.15 455.36L546.57 447.33L538.81 436.86L522.93 434.84L521.03 422.73L529.61 420.65L536.02 419.09L540.39 407.99L529.61 400.96L540.39 390.52L556.22 392.67L571.07 385.16L569.48 375.82L588.84 371.03L599.45 378.13L619.1 377.1L627.33 369.01L647.86 371.7L649.23 381.05L666.17 386.88L681.07 383.13L694.94 392.28L686.52 400.31L694.29 410.78L694.92 410.85H694.94L710.17 412.8V412.79Z" fill="white"/>
<path d="M703.5 459.9V479.58L692.71 490.02V457.09L703.5 446.65V459.9Z" fill="#FF8385"/>
<path d="M694.94 392.27V410.84H694.92L694.29 410.77L686.521 400.3L694.94 392.27Z" fill="#373A3A"/>
<path d="M692.71 472.56V490.02L676.89 487.88L663.62 494.58V471.79L662.04 462.46L676.89 454.96L692.71 457.09V472.56Z" fill="#373A3A"/>
<path d="M627.48 396.05C654.03 399.53 670.67 414.78 664.63 430.11C664.1 431.47 663.41 432.77 662.57 434.02C661.08 436.28 659.12 438.37 656.79 440.26C650.01 434.74 639.82 430.58 627.49 428.97C607.47 426.34 587.52 431.17 576.33 440.26C573.97 438.34 572.02 436.25 570.54 434.03C567.14 428.95 566.23 423.23 568.48 417.51C574.52 402.18 600.94 392.58 627.49 396.07L627.48 396.05Z" fill="#373A3A"/>
<path d="M663.62 494.58V504.72L644.271 509.51V476.58L663.62 471.79V494.58Z" fill="#FF8385"/>
<path d="M644.271 476.58V509.51L633.641 502.4L614 503.43L605.771 511.54V478.61L614 470.52L633.641 469.48L644.271 476.58Z" fill="#373A3A"/>
<path d="M605.771 478.61V511.54L585.23 508.83V475.91L605.771 478.61Z" fill="#FF8385"/>
<path d="M585.23 475.91V508.83L583.87 499.48L566.93 493.65L552.03 497.41V464.48L566.93 460.73L583.87 466.57L585.23 475.91Z" fill="#373A3A"/>
<path d="M552.03 464.48V497.41L538.16 488.25V455.34L552.03 464.48Z" fill="#FF8385"/>
<path d="M538.81 436.84L546.58 447.31L538.16 455.34V469.68L522.93 467.74L521.03 455.63V422.71L522.93 434.82L538.81 436.84Z" fill="#373A3A"/>
<path d="M540.38 407.97L536.01 419.07L529.61 420.62L529.6 420.6V400.95L540.38 407.97Z" fill="#373A3A"/>
<path d="M703.5 446.65L692.71 439.64L697.08 428.53L712.07 424.89L710.17 412.79L694.94 410.84H694.92L694.29 410.77L686.52 400.3L694.94 392.27L681.06 383.12L666.17 386.88L649.23 381.04L647.86 371.7L627.33 369L619.1 377.09L599.45 378.12L588.83 371.02L569.47 375.81L571.06 385.15L556.21 392.65L540.38 390.51L529.6 400.95L540.38 407.97L536.01 419.07L529.61 420.62V420.63L521.03 422.71L522.93 434.82L538.81 436.84L546.58 447.31L538.16 455.34L552.03 464.48L566.93 460.73L583.87 466.57L585.23 475.91L605.77 478.61L614 470.52L633.64 469.48L644.27 476.58L663.62 471.79L662.04 462.46L676.89 454.96L692.71 457.09L703.5 446.65Z" stroke="#3A3A3A" stroke-width="2.5" stroke-linecap="round" stroke-linejoin="round"/>
<path d="M576.32 440.25C573.96 438.33 572.01 436.24 570.53 434.02C567.13 428.94 566.22 423.22 568.47 417.5C574.51 402.17 600.93 392.57 627.48 396.06C654.03 399.54 670.67 414.79 664.63 430.12C664.1 431.48 663.41 432.78 662.57 434.03C661.08 436.29 659.12 438.38 656.79 440.27C645.59 449.36 625.66 454.2 605.64 451.57C593.3 449.95 583.11 445.79 576.33 440.26L576.32 440.25Z" stroke="#3A3A3A" stroke-width="2.5" stroke-linecap="round" stroke-linejoin="round"/>
<path d="M576.31 440.26C587.5 431.16 607.45 426.34 627.47 428.97C639.8 430.59 649.99 434.75 656.77 440.26" stroke="#3A3A3A" stroke-width="2.5" stroke-linecap="round" stroke-linejoin="round"/>
<path d="M521.03 422.71V455.63L522.93 467.74L538.16 469.68" stroke="#3A3A3A" stroke-width="2.5" stroke-linecap="round" stroke-linejoin="round"/>
<path d="M529.6 400.95V420.6" stroke="#3A3A3A" stroke-width="2.5" stroke-linecap="round" stroke-linejoin="round"/>
<path d="M552.03 464.48V497.41" stroke="#3A3A3A" stroke-width="2.5" stroke-linecap="round" stroke-linejoin="round"/>
<path d="M585.23 475.91V508.83" stroke="#3A3A3A" stroke-width="2.5" stroke-linecap="round" stroke-linejoin="round"/>
<path d="M605.771 478.61V511.54" stroke="#3A3A3A" stroke-width="2.5" stroke-linecap="round" stroke-linejoin="round"/>
<path d="M644.271 476.58V509.51" stroke="#3A3A3A" stroke-width="2.5" stroke-linecap="round" stroke-linejoin="round"/>
<path d="M663.62 471.79V504.72L644.27 509.51L633.64 502.4L614 503.43L605.77 511.54L585.23 508.83L583.87 499.48L566.93 493.65L552.03 497.41L538.16 488.25V455.34" stroke="#3A3A3A" stroke-width="2.5" stroke-linecap="round" stroke-linejoin="round"/>
<path d="M712.07 424.89V457.82L703.5 459.9" stroke="#3A3A3A" stroke-width="2.5" stroke-linecap="round" stroke-linejoin="round"/>
<path d="M692.71 457.09V490.02" stroke="#3A3A3A" stroke-width="2.5" stroke-linecap="round" stroke-linejoin="round"/>
<path d="M703.5 446.65V479.58L692.71 490.02L676.89 487.88L663.62 494.58" stroke="#3A3A3A" stroke-width="2.5" stroke-linecap="round" stroke-linejoin="round"/>
<path d="M694.94 392.27V410.84" stroke="#3A3A3A" stroke-width="2.5" stroke-linecap="round" stroke-linejoin="round"/>
<path d="M124.919 466.31L82.9795 442.09C88.9895 456.12 98.0495 466.63 109.409 473.18L150.679 497C139.639 490.42 130.819 480.06 124.929 466.31H124.919Z" fill="#373A3A"/>
<path d="M146.47 428.51L139.73 444.56L118.04 441.06L109.34 436.05L108.22 439.79L82.9697 442.09L124.92 466.31L150.16 464.01L158.74 435.55L146.47 428.51Z" fill="#5F646B"/>
<path d="M158.74 435.55L158.64 435.89C158.73 435.89 158.81 435.88 158.9 435.87C158.85 435.77 158.79 435.66 158.74 435.55Z" fill="white"/>
<path d="M193.05 424.6C180.89 431.62 169.33 435.28 158.91 435.87C171.98 461.82 201.18 468.35 235.01 448.82C278.37 423.8 314.1 364.77 318.05 313.6C318.3 310.49 318.42 307.4 318.42 304.36C318.42 300.08 318.18 296.02 317.7 292.16L275.76 267.94C276.23 271.79 276.48 275.86 276.48 280.14C276.48 333.24 239.06 398.05 193.07 424.6H193.05Z" fill="#C2C7CC"/>
<path d="M284.72 246.52L275.74 267.94L317.68 292.16L331.21 259.9L351.83 263.22L319.03 246.27L311.74 270.5C305.9 258.08 296.5 249.87 284.72 246.53V246.52Z" fill="#5F646B"/>
<path d="M150.16 464.01L158.64 435.89C158.73 435.89 158.81 435.88 158.9 435.87C171.97 461.82 201.17 468.35 235 448.82C278.36 423.8 314.09 364.77 318.04 313.6C318.29 310.49 318.41 307.4 318.41 304.36C318.41 300.08 318.17 296.02 317.69 292.16L331.22 259.9L351.84 263.22C352.84 269.76 353.35 276.75 353.35 284.18C353.35 288.57 353.17 293.03 352.8 297.52C347.11 370.09 296.45 453.7 234.99 489.18C202.36 508.02 172.77 509.77 151.33 497.4L150.65 497.01C139.61 490.43 130.79 480.07 124.9 466.32L150.15 464.02L150.16 464.01Z" fill="white"/>
<path d="M284.72 246.52L275.74 267.94C276.21 271.79 276.46 275.86 276.46 280.14C276.46 333.24 239.04 398.05 193.05 424.6C180.89 431.62 169.33 435.28 158.91 435.87C158.82 435.88 158.74 435.89 158.65 435.89" stroke="#373A3A" stroke-width="2.5" stroke-linecap="round" stroke-linejoin="round"/>
<path d="M109.34 436.05L108.22 439.79L82.9697 442.09C88.9797 456.12 98.0397 466.63 109.4 473.18" stroke="#373A3A" stroke-width="2.5" stroke-linecap="round" stroke-linejoin="round"/>
<path d="M151.34 497.4C172.77 509.77 202.37 508.01 235 489.18C296.46 453.7 347.03 370.08 352.81 297.52C353.17 293.03 353.36 288.57 353.36 284.18C353.36 276.75 352.85 269.76 351.85 263.22L331.23 259.9L317.7 292.16C318.17 296.01 318.42 300.08 318.42 304.36C318.42 307.41 318.3 310.49 318.05 313.6C314 364.76 278.37 423.79 235.01 448.82C201.18 468.35 171.94 461.84 158.91 435.87C158.86 435.77 158.8 435.66 158.75 435.55L150.17 464.01L124.92 466.31C130.81 480.06 139.63 490.43 150.67 497" stroke="#373A3A" stroke-width="2.5" stroke-linecap="round" stroke-linejoin="round"/>
<path d="M151.34 497.4L109.4 473.18" stroke="#373A3A" stroke-width="2.5" stroke-linecap="round" stroke-linejoin="round"/>
<path d="M317.69 292.16L275.74 267.94" stroke="#373A3A" stroke-width="2.5" stroke-linecap="round" stroke-linejoin="round"/>
<path d="M351.84 263.22L319.04 246.27" stroke="#373A3A" stroke-width="2.5" stroke-linecap="round" stroke-linejoin="round"/>
<path d="M158.74 435.55L146.47 428.51" stroke="#373A3A" stroke-width="2.5" stroke-linecap="round" stroke-linejoin="round"/>
<path d="M124.92 466.31L82.9697 442.09" stroke="#373A3A" stroke-width="2.5" stroke-linecap="round" stroke-linejoin="round"/>
<path d="M271.28 323.61C272.18 324.73 272.94 325.96 273.6 327.29C274.79 329.67 275.61 332.36 276.07 335.28C278.34 349.3 272.63 368.65 260.55 384.41C253.1 394.12 244.54 400.75 236.5 403.81C233.7 404.88 230.95 405.51 228.34 405.68C222.34 406.07 217.03 404.04 213.26 399.3C210.34 395.63 208.66 390.72 208.16 385.11C206.91 371.37 212.64 353.34 224.01 338.5C230.63 329.85 238.15 323.64 245.4 320.23C255.65 315.4 265.37 316.18 271.28 323.61ZM304.49 298.64L293.21 304.38L285.9 295.2L290.17 280.65L278.93 276.32L269.78 288.33L269.4 288.84L256.67 290.32L253.97 279.19L239.36 286.51L235.23 301.05L221.93 312.61L213.3 309.17L200.91 325.33L203.75 336.32L194.97 353.56L183.7 359.11L178.25 377.95L186.99 381.19L186.08 397.53L176.47 409.96L180.06 424.28L191.34 418.55L198.65 427.72L196.82 433.94L194.37 442.27L205.62 446.6L215.16 434.07L227.89 432.6L230.59 443.72L245.2 436.4L249.34 421.87L262.63 410.3L271.26 413.74L283.66 397.58L280.81 386.6L289.59 369.36L300.86 363.8L306.3 344.97L297.57 341.72L298.48 325.38L308.08 312.95L304.49 298.63V298.64Z" fill="white"/>
<path d="M304.49 298.64L293.21 304.38L285.9 295.2L287.87 288.46L304.49 298.64Z" fill="white"/>
<path d="M290.16 280.64L278.93 276.31L269.78 288.33L269.77 288.34L269.39 288.84L256.66 290.32L253.96 279.19L238.88 270.64L247.95 258.74L259.18 263.07L290.16 280.64Z" fill="#D7DCE0"/>
<path d="M276.07 335.29C278.34 349.31 272.63 368.66 260.55 384.42C253.1 394.13 244.54 400.76 236.5 403.82C233.7 404.89 230.95 405.52 228.34 405.69C222.34 406.08 217.03 404.05 213.26 399.31C210.34 395.64 208.66 390.73 208.16 385.12C215.41 381.7 222.92 375.5 229.57 366.85C240.94 352 246.66 333.99 245.4 320.24C255.65 315.41 265.37 316.19 271.28 323.62C272.18 324.74 272.94 325.97 273.6 327.3C274.79 329.68 275.61 332.37 276.07 335.29Z" fill="#3A3A3A"/>
<path d="M238.88 270.64L253.96 279.19L239.35 286.51L208.37 268.93L222.98 261.62L238.88 270.64Z" fill="white"/>
<path d="M239.35 286.51L235.22 301.05L221.92 312.6L213.28 309.17L182.31 291.6L190.94 295.03L204.24 283.48L208.37 268.93L239.35 286.51Z" fill="#D7DCE0"/>
<path d="M213.28 309.17L200.89 325.33L169.91 307.76L182.31 291.6L213.28 309.17Z" fill="white" stroke="#373A3A" stroke-width="2.5" stroke-miterlimit="10"/>
<path d="M200.89 325.33L203.73 336.32L194.95 353.56L183.68 359.12L152.7 341.54L163.97 335.99L172.76 318.74L169.91 307.76L200.89 325.33Z" fill="#D7DCE0"/>
<path d="M186.98 381.2L186.06 397.53L176.45 409.96L145.47 392.39L155.08 379.97L155.9 365.28L178.23 377.96L186.98 381.2Z" fill="#D7DCE0"/>
<path d="M183.68 359.12L178.23 377.96L147.25 360.39L152.7 341.54L183.68 359.12Z" fill="white" stroke="#373A3A" stroke-width="2.5" stroke-miterlimit="10"/>
<path d="M176.45 409.96L180.04 424.28L149.06 406.71L145.47 392.39L176.45 409.96Z" fill="white" stroke="#373A3A" stroke-width="2.5" stroke-miterlimit="10"/>
<path d="M165.87 416.24L180.04 424.28L191.33 418.55L198.64 427.72L196.81 433.94L196.82 433.95L194.37 442.28L163.39 424.71L165.84 416.37H165.83L165.87 416.24Z" fill="#D7DCE0"/>
<path d="M304.49 298.64L293.21 304.38L285.9 295.2L290.16 280.64L278.93 276.31L269.78 288.33L269.77 288.34L269.39 288.84L256.66 290.32L253.96 279.19L239.35 286.51L235.22 301.05L221.92 312.6L213.28 309.17L200.89 325.33L203.73 336.32L194.95 353.56L183.68 359.12L178.23 377.96L186.98 381.2L186.06 397.53L176.45 409.96L180.04 424.28L191.33 418.55L198.64 427.72L196.81 433.94L196.82 433.95L194.37 442.28L205.62 446.61L215.15 434.08L227.88 432.61L230.58 443.73L245.19 436.41L249.32 421.88L262.62 410.32L271.25 413.75L283.65 397.59L280.8 386.61L289.58 369.37L300.85 363.8L306.29 344.97L297.56 341.72L298.48 325.38L308.08 312.96L304.49 298.64Z" stroke="#3A3A3A" stroke-width="2.5" stroke-linecap="round" stroke-linejoin="round"/>
<path d="M245.4 320.23C255.65 315.4 265.37 316.18 271.28 323.61C272.18 324.73 272.94 325.96 273.6 327.29C274.79 329.67 275.61 332.36 276.07 335.28C278.34 349.3 272.63 368.65 260.55 384.41C253.1 394.12 244.54 400.75 236.5 403.81C233.7 404.88 230.95 405.51 228.34 405.68C222.34 406.07 217.03 404.04 213.26 399.3C210.34 395.63 208.67 390.72 208.16 385.11C206.92 371.37 212.64 353.34 224.01 338.5C230.63 329.85 238.15 323.64 245.4 320.23Z" stroke="#3A3A3A" stroke-width="2.5" stroke-linecap="round" stroke-linejoin="round"/>
<path d="M245.4 320.22C246.66 333.98 240.94 352 229.57 366.84C222.93 375.49 215.42 381.7 208.16 385.11" stroke="#3A3A3A" stroke-width="2.5" stroke-linecap="round" stroke-linejoin="round"/>
<path d="M165.87 416.24L165.83 416.37H165.84L163.39 424.71L194.37 442.28" stroke="#3A3A3A" stroke-width="2.5" stroke-linecap="round" stroke-linejoin="round"/>
<path d="M238.8 270.75L247.95 258.74L259.18 263.07L290.16 280.64" stroke="#3A3A3A" stroke-width="2.5" stroke-linecap="round" stroke-linejoin="round"/>
<path d="M178.23 377.96L147.25 360.39L152.7 341.54L163.97 335.99L172.76 318.74L169.91 307.76L182.31 291.6L190.94 295.03L204.24 283.48L208.37 268.93L222.98 261.62L253.96 279.19" stroke="#3A3A3A" stroke-width="2.5" stroke-linecap="round" stroke-linejoin="round"/>
<path d="M208.37 268.93L239.35 286.51" stroke="#3A3A3A" stroke-width="2.5" stroke-linecap="round" stroke-linejoin="round"/>
<path d="M182.31 291.6L213.28 309.17" stroke="#3A3A3A" stroke-width="2.5" stroke-linecap="round" stroke-linejoin="round"/>
<path d="M169.91 307.76L200.89 325.33" stroke="#3A3A3A" stroke-width="2.5" stroke-linecap="round" stroke-linejoin="round"/>
<path d="M152.7 341.54L183.68 359.12" stroke="#3A3A3A" stroke-width="2.5" stroke-linecap="round" stroke-linejoin="round"/>
<path d="M145.47 392.39L176.45 409.96" stroke="#3A3A3A" stroke-width="2.5" stroke-linecap="round" stroke-linejoin="round"/>
<path d="M155.9 365.28L155.08 379.97L145.47 392.39L149.06 406.71L180.04 424.28" stroke="#3A3A3A" stroke-width="2.5" stroke-linecap="round" stroke-linejoin="round"/>
<path d="M304.49 298.64L287.87 288.46" stroke="#3A3A3A" stroke-width="2.5" stroke-linecap="round" stroke-linejoin="round"/>
<path d="M117.44 404.48C124.27 332.63 174.39 250.83 235 215.84C267.25 197.21 296.54 195.29 317.91 207.2L318.65 207.62C329.88 214.1 338.86 224.45 344.87 238.25L320.8 240.44L311.75 270.49C305.91 258.07 296.51 249.86 284.73 246.52C270.84 242.59 253.62 245.45 235.01 256.19C192.35 280.82 157.05 338.37 152.18 388.97C151.79 392.92 151.6 396.82 151.6 400.66C151.6 405.42 151.9 409.94 152.49 414.19L139.75 444.55L118.06 441.06C117.14 434.73 116.66 427.99 116.66 420.84C116.66 415.46 116.93 409.99 117.47 404.47L117.44 404.48Z" fill="white"/>
<path d="M117.44 404.48C124.27 332.63 174.39 250.83 235 215.84C267.25 197.21 296.54 195.29 317.91 207.2L277.76 184.02C256.25 170.97 226.22 172.47 193.05 191.62C127.79 229.31 74.6899 321.27 74.6899 396.63C74.6899 403.77 75.1599 410.52 76.0899 416.85L118.03 441.07C117.11 434.74 116.63 428 116.63 420.85C116.63 415.47 116.9 410 117.44 404.48Z" fill="#DAE0E5"/>
<path d="M317.91 207.2L318.65 207.62C318.41 207.47 318.16 207.33 317.91 207.2Z" fill="white"/>
<path d="M146.47 428.51L152.47 414.19C151.88 409.94 151.58 405.42 151.58 400.66C151.58 396.82 151.77 392.91 152.16 388.97C157.12 338.39 192.33 280.82 234.99 256.19C253.61 245.44 270.82 242.59 284.71 246.52C296.5 249.85 305.89 258.07 311.73 270.49L320.78 240.44L344.85 238.25C338.84 224.45 329.74 214.29 318.63 207.62C318.39 207.47 318.13 207.33 317.89 207.2C296.45 195.41 267.23 197.21 234.98 215.84C174.37 250.83 124.32 332.64 117.42 404.48C116.89 410 116.61 415.47 116.61 420.85C116.61 428 117.09 434.74 118.01 441.07L139.7 444.56L146.44 428.52L146.47 428.51Z" stroke="#373A3A" stroke-width="2.5" stroke-linecap="round" stroke-linejoin="round"/>
<path d="M318.65 207.62L276.7 183.39" stroke="#373A3A" stroke-width="2.5" stroke-linecap="round" stroke-linejoin="round"/>
<path d="M118.04 441.06L76.0997 416.84C75.1697 410.51 74.6997 403.76 74.6997 396.62C74.6997 321.26 127.79 229.3 193.06 191.61C226.24 172.46 256.26 170.96 277.77 184.01C278.39 184.38 278.99 184.77 279.59 185.17" stroke="#373A3A" stroke-width="2.5" stroke-linecap="round" stroke-linejoin="round"/>
<path d="M540.43 467.34V555.49L464.09 599.56V511.41L540.43 467.34Z" fill="#373A3A" stroke="#373A3A" stroke-width="2.5" stroke-miterlimit="10"/>
<path d="M540.43 467.34L464.09 511.41L387.75 467.34L464.09 423.26L540.43 467.34Z" fill="white"/>
<path d="M464.09 511.41V599.56L387.76 555.5V467.34L464.09 511.41Z" fill="#DAE0E5" stroke="#373A3A" stroke-width="2.5" stroke-miterlimit="10"/>
<path d="M464.09 511.41V599.56" stroke="#373A3A" stroke-width="2.5" stroke-linecap="round" stroke-linejoin="round"/>
<path d="M427.65 577.37L416.42 571.07V485.5L427.65 492.4V577.37Z" fill="#FF8385"/>
<path d="M496.81 580.05L508.04 573.91V486.53L496.81 493.43V580.05Z" fill="#FF8385"/>
<path d="M387.75 467.34L464.09 423.26L540.43 467.34L464.09 511.41L387.75 467.34Z" stroke="#373A3A" stroke-width="2.5" stroke-linecap="round" stroke-linejoin="round"/>
<path d="M503.56 447.48L428.88 490.59L418.18 484.58L492.85 441.47L503.56 447.48Z" fill="#FF8385"/>
<path d="M422.36 448.02L497.03 491.13L507.73 485.12L433.07 442L422.36 448.02Z" fill="#FF8385"/>
<path d="M400.15 490.38V578.54L323.8 622.6V534.46L400.15 490.38Z" fill="#373A3A" stroke="#373A3A" stroke-width="2.5" stroke-miterlimit="10"/>
<path d="M400.15 490.38L323.8 534.46L247.47 490.38L323.8 446.31L400.15 490.38Z" fill="white"/>
<path d="M323.8 534.46V622.61L247.47 578.55V490.39L323.8 534.46Z" fill="#DAE0E5" stroke="#373A3A" stroke-width="2.5" stroke-miterlimit="10"/>
<path d="M323.8 534.46V622.6" stroke="#373A3A" stroke-width="2.5" stroke-linecap="round" stroke-linejoin="round"/>
<path d="M287.37 600.42L276.14 594.12V508.55L287.37 515.44V600.42Z" fill="#FF8385"/>
<path d="M356.53 603.09L367.76 596.96V509.57L356.53 516.47V603.09Z" fill="#FF8385"/>
<path d="M247.47 490.38L323.8 446.31L400.15 490.38L323.8 534.46L247.47 490.38Z" stroke="#373A3A" stroke-width="2.5" stroke-linecap="round" stroke-linejoin="round"/>
<path d="M363.27 470.53L288.6 513.64L277.9 507.63L352.57 464.51L363.27 470.53Z" fill="#FF8385"/>
<path d="M282.08 471.06L356.75 514.17L367.45 508.16L292.78 465.05L282.08 471.06Z" fill="#FF8385"/>
</svg>
