<svg width="800" height="800" viewBox="0 0 800 800" fill="none" xmlns="http://www.w3.org/2000/svg">
<path d="M43.6899 461.13V521.89H43.7399C44.4399 534 53.0199 545.61 66.2499 554.52C138.17 602.93 217.87 642.48 292.85 685.98C327.47 706.06 358.15 728.2 399.57 728.2C440.99 728.2 471.69 706.05 506.29 685.98C581.82 642.16 657.36 598.34 732.89 554.52C738.33 551.43 743.84 547.44 747.84 542.57C753.84 535.27 756.3 528.35 756.27 521.89H756.29V461.13H43.6899Z" fill="white" stroke="#373A3A" stroke-width="2.5" stroke-linecap="round" stroke-linejoin="round"/>
<path d="M733.2 488.71C657.6 532.49 582 576.27 506.4 620.05C471.75 640.11 441 662.24 399.58 662.24C358.13 662.24 327.42 640.12 292.76 620.05C217.71 576.59 137.94 537.09 65.9601 488.71C42.4201 472.89 33.6001 448.55 57.6001 427.98C74.6801 413.34 98.2501 403.71 117.54 392.63C164.91 365.41 212.28 338.19 259.66 310.97C298.85 288.45 341 254.39 387.9 250.43C423.81 247.4 450.87 260.03 481.07 277.39C562.96 324.44 646.1 369.81 726.93 418.66C748.38 431.63 768.55 452.01 748.17 476.77C744.17 481.63 738.64 485.62 733.2 488.71Z" fill="white" stroke="#373A3A" stroke-width="2.5" stroke-linecap="round" stroke-linejoin="round"/>
<path d="M240.53 381.5C240.2 385.27 243.08 388.93 249.19 392.45L279.81 410.13C283.69 412.38 285.61 414.31 285.55 415.94C285.5 417.57 283.41 419.58 279.31 421.95L294.28 430.6C298.39 428.23 301.86 427.03 304.68 426.99C307.51 426.96 310.86 428.07 314.75 430.31L345.37 447.99C351.47 451.51 357.79 453.17 364.34 452.99C370.88 452.79 376.88 451.13 382.31 447.99L391.63 442.61L376.66 433.96L374 435.49C371 437.23 367.93 438.01 364.76 437.85C361.6 437.69 357.8 436.33 353.36 433.76L328.4 419.35C320.63 414.87 312.37 414 303.61 416.75L303.28 416.56C308.05 411.5 306.56 406.73 298.78 402.24L273.82 387.83C269.39 385.26 267.03 383.07 266.75 381.24C266.48 379.42 267.83 377.64 270.83 375.91L273.49 374.37L258.52 365.72L249.2 371.1C243.76 374.24 240.88 377.7 240.54 381.48L240.53 381.5Z" fill="white"/>
<path d="M314.59 369.68L327.08 376.88L339.57 369.68L327.08 362.47L314.59 369.68Z" fill="white"/>
<path d="M321.141 329.57L336.111 338.22L338.771 336.69C341.771 334.95 344.851 334.17 348.011 334.33C351.171 334.49 354.971 335.86 359.411 338.42L384.381 352.83C392.151 357.31 400.411 358.18 409.171 355.43L409.501 355.62C404.731 360.68 406.221 365.45 413.991 369.94L438.961 384.36C443.401 386.92 445.761 389.11 446.031 390.94C446.311 392.76 444.951 394.54 441.951 396.27L439.291 397.81L454.261 406.46L463.581 401.08C469.021 397.94 471.901 394.48 472.241 390.7C472.571 386.92 469.691 383.27 463.581 379.75L432.961 362.07C429.081 359.83 427.171 357.89 427.221 356.26C427.281 354.63 429.361 352.62 433.461 350.25L418.491 341.6C414.381 343.97 410.921 345.17 408.091 345.21C405.261 345.24 401.911 344.13 398.021 341.89L367.401 324.21C361.301 320.69 354.981 319.03 348.431 319.21C341.891 319.41 335.891 321.07 330.451 324.21L321.141 329.59V329.57Z" fill="white"/>
<path d="M332.06 401.95C337.534 401.95 341.97 399.389 341.97 396.23C341.97 393.071 337.534 390.51 332.06 390.51C326.587 390.51 322.15 393.071 322.15 396.23C322.15 399.389 326.587 401.95 332.06 401.95Z" fill="#373A3A"/>
<path d="M340.08 384.39L352.56 391.6L365.05 384.39L352.56 377.18L340.08 384.39Z" fill="#FF8385"/>
<path d="M341.24 354.3L347.59 365.05L360.07 357.84L341.24 354.3Z" fill="#373A3A"/>
<path d="M345.061 410.94L357.541 418.15L370.031 410.94L357.541 403.73L345.061 410.94Z" fill="#FF8385"/>
<path d="M365.561 399.1L378.051 406.31L390.541 399.1L378.051 391.9L365.561 399.1Z" fill="white"/>
<path d="M388.351 385.15C386.641 385.15 385.261 385.95 385.261 386.94C385.261 387.93 386.641 388.72 388.351 388.72H396.041V393.16C396.041 394.14 397.421 394.94 399.131 394.94C399.981 394.94 400.761 394.74 401.311 394.42C401.871 394.1 402.211 393.65 402.211 393.16V388.72H409.901C410.751 388.72 411.531 388.52 412.081 388.2C412.631 387.88 412.981 387.43 412.981 386.94C412.981 385.95 411.601 385.15 409.891 385.15H402.201V380.71C402.201 379.73 400.821 378.93 399.111 378.93C397.401 378.93 396.021 379.73 396.021 380.71V385.15H388.331H388.351Z" fill="#373A3A"/>
<path d="M472.24 390.69C472.57 386.91 469.69 383.26 463.58 379.74L432.96 362.06C429.08 359.82 427.17 357.88 427.22 356.25C427.28 354.62 429.36 352.61 433.46 350.24L418.49 341.59C414.38 343.96 410.92 345.16 408.09 345.2C405.26 345.23 401.91 344.12 398.02 341.88L367.4 324.2C361.3 320.68 354.98 319.02 348.43 319.2C341.89 319.4 335.89 321.06 330.45 324.2L321.14 329.58L336.11 338.23L338.77 336.7C341.77 334.96 344.85 334.18 348.01 334.34C351.17 334.5 354.97 335.87 359.41 338.43L384.38 352.84C392.15 357.32 400.41 358.19 409.17 355.44L409.5 355.63C404.73 360.69 406.22 365.46 413.99 369.95L438.96 384.37C443.4 386.93 445.76 389.12 446.03 390.95C446.31 392.77 444.95 394.55 441.95 396.28L439.29 397.82L454.26 406.47L463.58 401.09C469.02 397.95 471.9 394.49 472.24 390.71V390.69Z" stroke="#373A3A" stroke-width="2.5" stroke-linecap="round" stroke-linejoin="round"/>
<path d="M376.66 433.96L374 435.49C371 437.23 367.93 438.01 364.76 437.85C361.6 437.69 357.8 436.33 353.36 433.76L328.4 419.35C320.63 414.87 312.37 414 303.61 416.75L303.28 416.56C308.05 411.5 306.56 406.73 298.78 402.24L273.82 387.83C269.39 385.26 267.03 383.07 266.75 381.24C266.48 379.42 267.83 377.64 270.83 375.91L273.49 374.37L258.52 365.72L249.2 371.1C243.76 374.24 240.88 377.7 240.54 381.48C240.21 385.25 243.09 388.91 249.2 392.43L279.82 410.11C283.7 412.36 285.62 414.29 285.56 415.92C285.51 417.55 283.42 419.56 279.32 421.93L294.29 430.58C298.4 428.21 301.87 427.01 304.69 426.97C307.52 426.94 310.87 428.05 314.76 430.29L345.38 447.97C351.48 451.49 357.8 453.15 364.35 452.97C370.89 452.77 376.89 451.11 382.32 447.97L391.64 442.59L376.67 433.94L376.66 433.96Z" stroke="#373A3A" stroke-width="2.5" stroke-linecap="round" stroke-linejoin="round"/>
<path d="M347.59 365.05L360.07 357.84L341.24 354.3L347.59 365.05Z" stroke="#373A3A" stroke-width="2.5" stroke-linecap="round" stroke-linejoin="round"/>
<path d="M327.08 376.88L339.57 369.68L327.08 362.47L314.59 369.68L327.08 376.88Z" stroke="#373A3A" stroke-width="2.5" stroke-linecap="round" stroke-linejoin="round"/>
<path d="M306.57 374.3L294.09 381.51" stroke="#373A3A" stroke-width="2.5" stroke-linecap="round" stroke-linejoin="round"/>
<path d="M312.82 377.91L300.33 385.12" stroke="#373A3A" stroke-width="2.5" stroke-linecap="round" stroke-linejoin="round"/>
<path d="M306.57 388.72L319.06 381.51" stroke="#373A3A" stroke-width="2.5" stroke-linecap="round" stroke-linejoin="round"/>
<path d="M366.83 368.06V376.15H380.85" stroke="#373A3A" stroke-width="2.5" stroke-linecap="round" stroke-linejoin="round"/>
<path d="M372.75 364.64V372.73H386.77" stroke="#373A3A" stroke-width="2.5" stroke-linecap="round" stroke-linejoin="round"/>
<path d="M352.56 391.6L365.05 384.39L352.56 377.18L340.08 384.39L352.56 391.6Z" stroke="#373A3A" stroke-width="2.5" stroke-linecap="round" stroke-linejoin="round"/>
<path d="M378.051 406.31L390.541 399.1L378.051 391.9L365.561 399.1L378.051 406.31Z" stroke="#373A3A" stroke-width="2.5" stroke-linecap="round" stroke-linejoin="round"/>
<path d="M357.541 418.15L370.031 410.94L357.541 403.73L345.061 410.94L357.541 418.15Z" stroke="#373A3A" stroke-width="2.5" stroke-linecap="round" stroke-linejoin="round"/>
<path d="M332.06 401.95C337.534 401.95 341.97 399.389 341.97 396.23C341.97 393.071 337.534 390.51 332.06 390.51C326.587 390.51 322.15 393.071 322.15 396.23C322.15 399.389 326.587 401.95 332.06 401.95Z" stroke="#373A3A" stroke-width="2.5" stroke-linecap="round" stroke-linejoin="round"/>
<path d="M396.04 388.71H388.35C386.64 388.71 385.26 387.91 385.26 386.93C385.26 385.95 386.64 385.14 388.35 385.14H396.04V380.7C396.04 379.72 397.42 378.92 399.13 378.92C400.84 378.92 402.22 379.72 402.22 380.7V385.14H409.91C411.62 385.14 413 385.94 413 386.93C413 387.42 412.65 387.86 412.1 388.19C411.55 388.52 410.77 388.71 409.92 388.71H402.23V393.15C402.23 393.64 401.88 394.09 401.33 394.41C400.77 394.73 400 394.93 399.15 394.93C397.44 394.93 396.06 394.13 396.06 393.15V388.71H396.04Z" stroke="#373A3A" stroke-width="2.5" stroke-linecap="round" stroke-linejoin="round"/>
<path d="M653.41 218.87L439.69 95.48C437.64 94.3 435.77 94.19 434.31 94.98C432.46 95.97 431.28 98.38 431.28 101.84V264.68L464.83 284.05C526.94 319.9 653.21 392.81 661.81 397.78V234.96C661.81 228.76 658.05 221.57 653.41 218.89V218.87Z" fill="white"/>
<path d="M446.49 87.66C447.96 86.79 449.9 86.86 452.03 88.08L665.75 211.47C670.39 214.15 674.15 221.34 674.15 227.53V412.76C674.15 416.12 673.05 418.49 671.29 419.53L658.96 426.92C660.72 425.88 661.82 423.51 661.82 420.15V234.93C661.82 228.73 658.06 221.54 653.42 218.86L439.7 95.47C437.65 94.29 435.78 94.18 434.32 94.97L446.5 87.66H446.49Z" fill="#3A3A3A"/>
<path d="M661.81 397.76V420.16C661.81 423.52 660.71 425.89 658.95 426.92C657.47 427.81 655.53 427.73 653.41 426.51L605.5 398.85L583.3 386.04L531.09 355.89L517.68 348.15L440.1 303.36C434.66 300.21 431.29 294.4 431.29 288.09V264.67L464.84 284.04C526.95 319.89 653.22 392.8 661.82 397.77L661.81 397.76Z" fill="#FF8385"/>
<path d="M617.93 238.89C620.8 240.54 623.12 244.58 623.12 247.9C623.12 251.22 620.8 252.57 617.93 250.91C615.05 249.25 612.73 245.2 612.73 241.89C612.73 238.58 615.05 237.22 617.93 238.89Z" fill="white"/>
<path d="M522.84 371.62C522.8 371.7 522.77 371.78 522.73 371.82L522.57 372.13L522.32 372.62C518.96 379.06 521.69 386.34 530.5 391.44C536.89 395.12 545.25 396.97 553.61 396.97C561.97 396.97 570.35 395.13 576.74 391.44C579.53 389.82 581.72 387.98 583.28 386.03L605.48 398.84C603.36 400.6 600.95 402.27 598.23 403.84C585.91 410.96 569.76 414.51 553.61 414.51C537.46 414.51 521.32 410.96 509 403.84C484.35 389.62 484.35 366.55 509 352.32C511.72 350.75 514.62 349.35 517.66 348.13L531.07 355.87L522.83 371.6L522.84 371.62Z" fill="#B4B9BF"/>
<path d="M531.081 355.88L583.291 386.03C581.721 387.98 579.531 389.82 576.751 391.44C570.361 395.12 562.001 396.97 553.621 396.97C545.241 396.97 536.891 395.13 530.511 391.44C521.691 386.34 518.971 379.06 522.331 372.62L522.581 372.13L522.741 371.82L522.851 371.62L531.091 355.89L531.081 355.88Z" fill="#3A3A3A"/>
<path d="M522.841 371.62L522.73 371.82C522.73 371.82 522.801 371.7 522.841 371.62Z" fill="white"/>
<path d="M517.67 348.14L440.09 303.35C434.65 300.2 431.28 294.39 431.28 288.08V101.83C431.28 98.37 432.45 95.97 434.31 94.97C435.77 94.18 437.65 94.29 439.69 95.47L653.41 218.86C658.05 221.54 661.81 228.73 661.81 234.93V420.15C661.81 423.51 660.71 425.88 658.95 426.91C657.47 427.8 655.53 427.72 653.41 426.5L605.5 398.84L583.3 386.03L531.09 355.88L517.68 348.14H517.67Z" stroke="#3A3A3A" stroke-width="2.5" stroke-linecap="round" stroke-linejoin="round"/>
<path d="M431.28 264.66L464.83 284.03C526.94 319.88 653.21 392.79 661.81 397.76" stroke="#3A3A3A" stroke-width="2.5" stroke-linecap="round" stroke-linejoin="round"/>
<path d="M658.951 426.92L671.281 419.53C673.041 418.49 674.141 416.12 674.141 412.76V227.53C674.141 221.34 670.381 214.15 665.741 211.47L452.021 88.08C449.891 86.86 447.951 86.79 446.481 87.66L434.301 94.97L434.141 95.05" stroke="#3A3A3A" stroke-width="2.5" stroke-linecap="round" stroke-linejoin="round"/>
<path d="M522.841 371.62C522.801 371.7 522.77 371.78 522.73 371.82" stroke="#3A3A3A" stroke-width="2.5" stroke-linecap="round" stroke-linejoin="round"/>
<path d="M523.99 369.33C523.99 369.33 523.99 369.34 523.98 369.35C523.98 369.35 523.97 369.4 523.94 369.43" stroke="#3A3A3A" stroke-width="2.5" stroke-linecap="round" stroke-linejoin="round"/>
<path d="M524.111 369.13C524.111 369.13 524.131 369.08 524.131 369.06C524.131 369.06 524.091 369.14 524.001 369.35C523.981 369.37 523.961 369.41 523.941 369.45H523.931V369.47C523.891 369.54 523.851 369.64 523.791 369.77C523.781 369.78 523.771 369.79 523.771 369.82C523.601 370.13 523.111 371.1 522.851 371.63" stroke="#3A3A3A" stroke-width="2.5" stroke-linecap="round" stroke-linejoin="round"/>
<path d="M524.181 368.97L524.161 369.02C524.161 369.02 524.151 369.04 524.141 369.06" stroke="#3A3A3A" stroke-width="2.5" stroke-linecap="round" stroke-linejoin="round"/>
<path d="M531.08 355.88L522.84 371.61L522.73 371.81L522.57 372.12L522.32 372.61C518.96 379.05 521.69 386.33 530.5 391.43C536.89 395.11 545.25 396.96 553.61 396.96C561.97 396.96 570.35 395.12 576.74 391.43C579.53 389.81 581.72 387.97 583.28 386.02" stroke="#3A3A3A" stroke-width="2.5" stroke-linecap="round" stroke-linejoin="round"/>
<path d="M605.501 398.85C603.381 400.61 600.971 402.28 598.251 403.85C585.931 410.97 569.781 414.52 553.631 414.52C537.481 414.52 521.341 410.97 509.021 403.85C484.371 389.63 484.371 366.56 509.021 352.33C511.741 350.76 514.641 349.36 517.681 348.14" stroke="#3A3A3A" stroke-width="2.5" stroke-linecap="round" stroke-linejoin="round"/>
<path d="M448.13 187.33V197.48L450.51 198.85C451.52 199.43 452.3 200.22 452.85 201.2C453.41 202.18 453.68 203.32 453.68 204.59V219.66C453.68 224.49 454.84 228.85 457.14 232.73C459.45 236.62 462.84 239.85 467.3 242.43L471.48 244.84V234.69L470.18 233.94C468.45 232.94 467.14 231.66 466.26 230.09C465.37 228.52 464.92 226.73 464.92 224.74V211.42C464.92 208.59 464.54 206.26 463.77 204.43C463 202.6 461.78 200.9 460.09 199.31C461.77 199.68 463 199.38 463.77 198.44C464.54 197.5 464.92 195.61 464.92 192.78V179.46C464.92 177.46 465.37 176.19 466.26 175.65C467.15 175.11 468.46 175.33 470.18 176.34L471.48 177.09V166.93L467.3 164.52C462.83 161.94 459.44 161.26 457.14 162.48C454.84 163.7 453.68 166.73 453.68 171.55V186.62C453.68 187.9 453.41 188.71 452.85 189.06C452.3 189.41 451.52 189.29 450.51 188.71L448.13 187.34V187.33Z" fill="white"/>
<path d="M457.14 162.48C459.45 161.26 462.84 161.94 467.3 164.52L471.48 166.93L487.56 157.64L483.38 155.23C478.91 152.65 475.52 151.97 473.22 153.19C473.16 153.21 473.11 153.25 473.07 153.27L457.14 162.47V162.48Z" fill="#DAE0E5"/>
<path d="M471.49 234.7V244.85L487.57 235.57V225.41L471.49 234.7Z" fill="white"/>
<path d="M471.49 166.93V177.09L487.57 167.81V157.65L471.49 166.93Z" fill="#C2C7CC"/>
<path d="M486.28 224.66C484.55 223.66 483.24 222.38 482.35 220.81C481.46 219.24 481.01 217.46 481.01 215.46V202.14C481.01 199.31 480.63 196.98 479.86 195.15C479.09 193.32 477.87 191.62 476.18 190.03C477.86 190.4 479.09 190.1 479.86 189.16C480.63 188.22 481.01 186.33 481.01 183.5V171.6L471.49 177.1L470.19 176.35C468.46 175.35 467.15 175.12 466.27 175.66C465.38 176.2 464.93 177.47 464.93 179.47V192.79C464.93 195.62 464.55 197.51 463.78 198.45C463.01 199.4 461.79 199.69 460.1 199.32C461.78 200.9 463.01 202.61 463.78 204.44C464.55 206.27 464.93 208.61 464.93 211.43V224.75C464.93 226.74 465.38 228.53 466.27 230.1C467.16 231.67 468.47 232.95 470.19 233.95L471.49 234.7L487.57 225.41L486.28 224.65V224.66Z" fill="#3A3A3A"/>
<path d="M457.14 162.48C454.84 163.7 453.68 166.73 453.68 171.55V186.62C453.68 187.9 453.41 188.71 452.85 189.06C452.3 189.41 451.52 189.29 450.51 188.71L448.13 187.34V197.49L450.51 198.86C451.52 199.44 452.3 200.23 452.85 201.21C453.41 202.19 453.68 203.33 453.68 204.6V219.67C453.68 224.5 454.84 228.86 457.14 232.74C459.45 236.63 462.84 239.86 467.3 242.44L471.48 244.85V234.7L470.18 233.95C468.45 232.95 467.14 231.67 466.26 230.1C465.37 228.53 464.92 226.74 464.92 224.75V211.43C464.92 208.6 464.54 206.27 463.77 204.44C463 202.61 461.78 200.91 460.09 199.32C461.77 199.69 463 199.39 463.77 198.45C464.54 197.51 464.92 195.62 464.92 192.79V179.47C464.92 177.47 465.37 176.2 466.26 175.66C467.15 175.12 468.46 175.34 470.18 176.35L471.48 177.1V166.94L467.3 164.53C462.83 161.95 459.44 161.27 457.14 162.49V162.48Z" stroke="#3A3A3A" stroke-width="2.5" stroke-linecap="round" stroke-linejoin="round"/>
<path d="M471.49 244.85L487.57 235.56V225.41L486.28 224.65C484.55 223.65 483.24 222.37 482.35 220.8C481.46 219.23 481.01 217.45 481.01 215.45V202.13C481.01 199.3 480.63 196.97 479.86 195.14C479.09 193.31 477.87 191.61 476.18 190.02C477.86 190.39 479.09 190.09 479.86 189.15C480.63 188.21 481.01 186.32 481.01 183.49V171.59" stroke="#3A3A3A" stroke-width="2.5" stroke-linecap="round" stroke-linejoin="round"/>
<path d="M487.57 225.41L471.49 234.7" stroke="#3A3A3A" stroke-width="2.5" stroke-linecap="round" stroke-linejoin="round"/>
<path d="M487.57 157.65L471.49 166.93" stroke="#3A3A3A" stroke-width="2.5" stroke-linecap="round" stroke-linejoin="round"/>
<path d="M456.99 162.56L473.07 153.27C473.07 153.27 473.17 153.21 473.22 153.19C475.52 151.96 478.92 152.65 483.38 155.23L487.56 157.64V167.8L471.48 177.09" stroke="#3A3A3A" stroke-width="2.5" stroke-linecap="round" stroke-linejoin="round"/>
<path d="M594.33 319.17L598.51 321.58C602.98 324.16 606.38 324.86 608.67 323.62C608.73 323.59 608.78 323.56 608.82 323.53C611.02 322.26 612.13 319.26 612.13 314.55V299.48C612.13 298.2 612.4 297.39 612.96 297.05C613.51 296.7 614.29 296.82 615.3 297.4L616.92 298.34C616.95 298.03 616.96 297.71 616.96 297.36V288.21L615.29 287.25C614.28 286.66 613.5 285.88 612.95 284.9C612.39 283.91 612.12 282.78 612.12 281.51V266.44C612.12 261.62 610.96 257.26 608.65 253.37C606.35 249.49 602.95 246.25 598.49 243.68L594.31 241.27V251.42L595.61 252.17C597.34 253.17 598.65 254.45 599.53 256.02C600.42 257.59 600.87 259.37 600.87 261.37V274.69C600.87 277.52 601.25 279.85 602.02 281.68C602.79 283.51 604.01 285.21 605.7 286.79C604.02 286.43 602.79 286.73 602.02 287.67C601.25 288.61 600.87 290.5 600.87 293.33V306.65C600.87 308.64 600.42 309.92 599.53 310.46C598.64 311 597.33 310.77 595.61 309.77L594.31 309.02V319.18L594.33 319.17Z" fill="white"/>
<path d="M612.14 314.54C612.14 319.26 611.03 322.25 608.83 323.52L624.92 314.24C627.12 312.97 628.23 309.97 628.23 305.25V292.68L617.69 298.76L615.31 297.39C614.3 296.81 613.52 296.69 612.97 297.04C612.41 297.39 612.14 298.2 612.14 299.47V314.54Z" fill="#DAE0E5"/>
<path d="M617.689 298.77V288.61L616.979 288.2V297.35C616.979 297.7 616.969 298.02 616.939 298.33L617.699 298.77H617.689Z" fill="white"/>
<path d="M616.98 288.2L617.69 288.61L633.77 279.32L631.39 277.95C630.38 277.37 629.6 276.59 629.05 275.6C628.49 274.61 628.22 273.48 628.22 272.2V257.13C628.22 252.31 627.06 247.95 624.76 244.06C622.45 240.18 619.06 236.94 614.6 234.36L610.42 231.95L594.34 241.24L598.52 243.65C602.99 246.23 606.38 249.46 608.68 253.34C610.99 257.23 612.15 261.59 612.15 266.41V281.48C612.15 282.76 612.42 283.88 612.98 284.87C613.53 285.85 614.31 286.63 615.32 287.22L616.99 288.18L616.98 288.2Z" fill="#DAE0E5"/>
<path d="M617.689 288.61V298.77L633.769 289.48V279.32L617.689 288.61Z" fill="#DAE0E5"/>
<path d="M616.93 298.33L617.69 298.77V288.61L615.31 287.24C614.3 286.65 613.52 285.87 612.97 284.89C612.41 283.9 612.14 282.77 612.14 281.5V266.43C612.14 261.61 610.98 257.25 608.67 253.36C606.37 249.48 602.97 246.24 598.51 243.67L594.33 241.26V251.41L595.63 252.16C597.36 253.16 598.67 254.44 599.55 256.01C600.44 257.58 600.89 259.36 600.89 261.36V274.68C600.89 277.51 601.27 279.84 602.04 281.67C602.81 283.5 604.03 285.2 605.72 286.78C604.04 286.42 602.81 286.72 602.04 287.66C601.27 288.6 600.89 290.49 600.89 293.32V306.64C600.89 308.63 600.44 309.91 599.55 310.45C598.66 310.99 597.35 310.76 595.63 309.76L594.33 309.01V319.17L598.51 321.58C602.98 324.16 606.38 324.86 608.67 323.62C608.73 323.59 608.78 323.56 608.82 323.53C611.02 322.26 612.13 319.26 612.13 314.55V299.48C612.13 298.2 612.4 297.39 612.96 297.05C613.51 296.7 614.29 296.82 615.3 297.4L616.92 298.34L616.93 298.33Z" stroke="#3A3A3A" stroke-width="2.5" stroke-linecap="round" stroke-linejoin="round"/>
<path d="M628.219 292.69V305.26C628.219 309.98 627.119 312.98 624.909 314.25L608.819 323.54" stroke="#3A3A3A" stroke-width="2.5" stroke-linecap="round" stroke-linejoin="round"/>
<path d="M616.979 288.2V297.35C616.979 297.7 616.969 298.02 616.939 298.33" stroke="#3A3A3A" stroke-width="2.5" stroke-linecap="round" stroke-linejoin="round"/>
<path d="M633.769 279.32L617.689 288.61" stroke="#3A3A3A" stroke-width="2.5" stroke-linecap="round" stroke-linejoin="round"/>
<path d="M594.33 241.25L610.41 231.96L614.59 234.37C619.06 236.95 622.45 240.19 624.75 244.07C627.05 247.96 628.21 252.32 628.21 257.14V272.21C628.21 273.49 628.48 274.62 629.04 275.61C629.59 276.59 630.37 277.37 631.38 277.96L633.76 279.33V289.49L617.68 298.78" stroke="#3A3A3A" stroke-width="2.5" stroke-linecap="round" stroke-linejoin="round"/>
<path d="M499.48 248.36L505.83 244.67C505.83 246.94 507.43 249.71 509.4 250.85L503.05 254.54C501.08 253.4 499.47 250.62 499.48 248.36Z" fill="#373A3A"/>
<path d="M499.48 246.87L505.83 243.18V244.67L499.48 248.36V246.87Z" fill="#373A3A"/>
<path d="M500.53 244.57L506.88 240.88C506.24 241.25 505.83 242.05 505.83 243.18L499.48 246.87C499.48 245.74 499.88 244.94 500.53 244.57Z" fill="#373A3A"/>
<path d="M500.53 244.57L506.88 240.88C507.53 240.5 508.43 240.55 509.43 241.13L503.08 244.82C502.09 244.25 501.19 244.19 500.53 244.57Z" fill="white"/>
<path d="M499.27 242.42L505.62 238.73C506.59 238.16 507.94 238.24 509.43 239.1L503.08 242.79C501.59 241.93 500.24 241.85 499.27 242.42Z" fill="#373A3A"/>
<path d="M503.05 254.54L509.4 250.85L581.48 292.46L575.13 296.15L503.05 254.54Z" fill="#373A3A"/>
<path d="M584.03 292.71L577.68 296.4C577.03 296.78 576.12 296.73 575.13 296.15L581.48 292.46C582.48 293.04 583.38 293.09 584.03 292.71Z" fill="#373A3A"/>
<path d="M584.03 292.71L577.68 296.4C578.32 296.03 578.72 295.23 578.73 294.11L585.08 290.42C585.08 291.55 584.68 292.34 584.03 292.71Z" fill="white"/>
<path d="M578.73 292.63L585.081 288.94V290.42L578.73 294.11V292.63Z" fill="white"/>
<path d="M575.15 286.43L581.5 282.74C583.48 283.88 585.08 286.66 585.08 288.93L578.73 292.62C578.73 290.35 577.13 287.57 575.15 286.43Z" fill="white"/>
<path d="M575.15 286.43C577.13 287.57 578.73 290.35 578.73 292.62V294.1C578.72 296.37 577.11 297.29 575.13 296.14L503.05 254.53C501.08 253.39 499.47 250.61 499.48 248.35V246.87C499.49 244.6 501.1 243.68 503.08 244.82L575.16 286.43H575.15Z" fill="white"/>
<path d="M575.16 284.4C578.12 286.11 580.51 290.25 580.51 293.65V295.13C580.5 298.52 578.08 299.9 575.13 298.19L503.05 256.58C500.09 254.87 497.7 250.72 497.71 247.33V245.85C497.72 242.45 500.13 241.08 503.09 242.79L575.17 284.4H575.16ZM578.73 294.11V292.63C578.74 290.36 577.14 287.58 575.16 286.44L503.08 244.83C501.11 243.69 499.49 244.61 499.49 246.88V248.36C499.48 250.63 501.08 253.4 503.06 254.54L575.14 296.15C577.12 297.29 578.73 296.37 578.74 294.11" fill="#373A3A"/>
<path d="M575.16 284.4L581.51 280.71C584.47 282.42 586.86 286.56 586.86 289.96L580.51 293.65C580.51 290.25 578.12 286.11 575.16 284.4Z" fill="#373A3A"/>
<path d="M503.08 244.82L509.43 241.13L581.5 282.74L575.15 286.43L503.08 244.82Z" fill="white"/>
<path d="M585.29 294.87L578.94 298.56C579.9 298 580.5 296.81 580.5 295.13L586.85 291.44C586.85 293.12 586.25 294.31 585.29 294.87Z" fill="#373A3A"/>
<path d="M580.51 293.65L586.85 289.96V291.44L580.5 295.13L580.51 293.65Z" fill="#373A3A"/>
<path d="M503.08 242.79L509.43 239.1L581.51 280.71L575.16 284.4L503.08 242.79Z" fill="#373A3A"/>
<path d="M499.55 224.84L505.9 221.15C505.9 223.42 507.5 226.2 509.47 227.34L503.12 231.03C501.15 229.89 499.54 227.11 499.55 224.84Z" fill="#373A3A"/>
<path d="M499.55 223.36L505.9 219.67V221.15L499.55 224.84V223.36Z" fill="#373A3A"/>
<path d="M500.6 221.06L506.95 217.37C506.31 217.74 505.9 218.54 505.9 219.67L499.55 223.36C499.55 222.23 499.95 221.43 500.6 221.06Z" fill="#373A3A"/>
<path d="M500.6 221.06L506.95 217.37C507.6 216.99 508.5 217.04 509.5 217.62L503.15 221.31C502.16 220.74 501.26 220.68 500.6 221.06Z" fill="white"/>
<path d="M499.34 218.9L505.69 215.21C506.66 214.64 508.01 214.72 509.5 215.58L503.15 219.27C501.66 218.41 500.31 218.33 499.34 218.9Z" fill="#373A3A"/>
<path d="M503.119 231.03L509.469 227.34L548.579 249.92L542.229 253.61L503.119 231.03Z" fill="#373A3A"/>
<path d="M551.12 250.16L544.77 253.85C544.12 254.23 543.22 254.18 542.22 253.6L548.57 249.91C549.56 250.48 550.46 250.54 551.12 250.16Z" fill="#373A3A"/>
<path d="M551.12 250.16L544.77 253.85C545.41 253.48 545.82 252.68 545.82 251.55L552.169 247.86C552.169 248.99 551.77 249.79 551.12 250.16Z" fill="white"/>
<path d="M545.829 250.08L552.179 246.39L552.169 247.86L545.819 251.55L545.829 250.08Z" fill="white"/>
<path d="M542.26 243.89L548.61 240.2C550.58 241.34 552.19 244.12 552.18 246.39L545.83 250.08C545.83 247.81 544.23 245.03 542.26 243.89Z" fill="white"/>
<path d="M542.26 241.86C545.21 243.56 547.61 247.71 547.6 251.11V252.58C547.59 255.98 545.17 257.35 542.22 255.65L503.11 233.07C500.15 231.36 497.76 227.21 497.77 223.81V222.34C497.78 218.94 500.19 217.57 503.15 219.28L542.26 241.86ZM545.82 251.55V250.08C545.83 247.81 544.23 245.03 542.25 243.89L503.14 221.31C501.17 220.17 499.55 221.09 499.55 223.36V224.83C499.54 227.1 501.14 229.88 503.12 231.02L542.23 253.6C544.2 254.74 545.82 253.82 545.82 251.55Z" fill="#373A3A"/>
<path d="M542.26 241.86L548.61 238.17C551.56 239.87 553.96 244.02 553.95 247.42L547.6 251.11C547.6 247.71 545.21 243.56 542.26 241.86Z" fill="#373A3A"/>
<path d="M503.14 221.31L509.49 217.62L548.61 240.2L542.26 243.89L503.14 221.31Z" fill="white"/>
<path d="M552.379 252.33L546.029 256.02C546.989 255.46 547.589 254.27 547.599 252.58L553.949 248.89C553.949 250.58 553.349 251.77 552.379 252.33Z" fill="#373A3A"/>
<path d="M547.6 251.1L553.95 247.41V248.89L547.6 252.58V251.1Z" fill="#373A3A"/>
<path d="M503.149 219.27L509.499 215.58L548.609 238.17L542.259 241.86L503.149 219.27Z" fill="#373A3A"/>
<path d="M542.26 243.89C544.23 245.03 545.84 247.81 545.83 250.08V251.55C545.82 253.82 544.21 254.74 542.23 253.6L503.12 231.02C501.15 229.88 499.54 227.1 499.55 224.83V223.36C499.56 221.09 501.17 220.17 503.15 221.31L542.26 243.89Z" fill="white"/>
<path d="M499.61 201.32L505.96 197.63C505.96 199.9 507.56 202.68 509.53 203.82L503.18 207.51C501.21 206.37 499.6 203.59 499.61 201.32Z" fill="#373A3A"/>
<path d="M499.62 199.85L505.97 196.16L505.96 197.63L499.61 201.32L499.62 199.85Z" fill="#373A3A"/>
<path d="M500.67 197.55L507.02 193.86C506.38 194.23 505.97 195.03 505.97 196.16L499.62 199.85C499.62 198.72 500.02 197.92 500.67 197.55Z" fill="#373A3A"/>
<path d="M500.67 197.55L507.02 193.86C507.67 193.48 508.57 193.53 509.57 194.11L503.22 197.8C502.23 197.23 501.33 197.17 500.67 197.55Z" fill="white"/>
<path d="M499.41 195.38L505.76 191.69C506.73 191.12 508.08 191.2 509.57 192.06L503.22 195.75C501.73 194.89 500.39 194.81 499.41 195.38Z" fill="#373A3A"/>
<path d="M503.18 207.51L509.53 203.82L527.41 214.15L521.06 217.83L503.18 207.51Z" fill="#373A3A"/>
<path d="M529.961 214.39L523.611 218.08C522.961 218.46 522.051 218.41 521.061 217.83L527.411 214.14C528.411 214.72 529.311 214.77 529.961 214.39Z" fill="#373A3A"/>
<path d="M529.96 214.39L523.61 218.08C524.25 217.71 524.65 216.91 524.66 215.78L531.01 212.09C531.01 213.22 530.61 214.02 529.96 214.39Z" fill="white"/>
<path d="M524.66 214.31L531.01 210.62V212.09L524.66 215.78V214.31Z" fill="white"/>
<path d="M521.09 208.11L527.44 204.42C529.42 205.56 531.02 208.34 531.02 210.61L524.67 214.3C524.67 212.03 523.07 209.25 521.09 208.11Z" fill="white"/>
<path d="M521.09 208.11C523.07 209.25 524.67 212.03 524.67 214.3V215.77C524.66 218.04 523.05 218.96 521.07 217.82L503.19 207.5C501.22 206.36 499.61 203.58 499.62 201.31V199.84C499.63 197.57 501.24 196.65 503.22 197.79L521.1 208.11H521.09Z" fill="white"/>
<path d="M521.09 206.07C524.05 207.78 526.44 211.93 526.43 215.33V216.8C526.42 220.2 524.01 221.58 521.05 219.87L503.17 209.55C500.21 207.84 497.82 203.69 497.83 200.29V198.82C497.84 195.42 500.25 194.04 503.21 195.75L521.09 206.07ZM524.66 215.78V214.31C524.67 212.04 523.07 209.26 521.09 208.12L503.21 197.8C501.24 196.66 499.62 197.58 499.62 199.85V201.32C499.61 203.59 501.21 206.37 503.19 207.51L521.07 217.83C523.05 218.97 524.66 218.05 524.67 215.78" fill="#373A3A"/>
<path d="M521.09 206.07L527.44 202.38C530.4 204.09 532.79 208.24 532.78 211.64L526.43 215.33C526.43 211.93 524.05 207.78 521.09 206.07Z" fill="#373A3A"/>
<path d="M503.21 197.79L509.56 194.1L527.44 204.42L521.09 208.11L503.21 197.79Z" fill="white"/>
<path d="M531.21 216.55L524.86 220.24C525.82 219.68 526.42 218.49 526.43 216.8L532.78 213.11C532.78 214.8 532.18 215.99 531.21 216.55Z" fill="#373A3A"/>
<path d="M526.43 215.33L532.78 211.64V213.11L526.43 216.8V215.33Z" fill="#373A3A"/>
<path d="M503.22 195.75L509.57 192.06L527.44 202.38L521.09 206.07L503.22 195.75Z" fill="#373A3A"/>
<path d="M553.75 256.13L560.1 252.44C560.1 254.71 561.7 257.49 563.67 258.63L557.32 262.32C555.35 261.18 553.74 258.4 553.75 256.13Z" fill="#373A3A"/>
<path d="M553.75 254.65L560.1 250.96V252.44L553.75 256.13V254.65Z" fill="#373A3A"/>
<path d="M554.8 252.35L561.15 248.66C560.51 249.03 560.1 249.83 560.1 250.96L553.75 254.65C553.75 253.52 554.15 252.72 554.8 252.35Z" fill="#373A3A"/>
<path d="M554.8 252.35L561.15 248.66C561.8 248.28 562.7 248.33 563.7 248.91L557.35 252.6C556.36 252.03 555.46 251.98 554.8 252.35Z" fill="white"/>
<path d="M553.539 250.2L559.889 246.51C560.869 245.94 562.209 246.02 563.699 246.88L557.349 250.57C555.859 249.71 554.519 249.63 553.539 250.2Z" fill="#373A3A"/>
<path d="M557.319 262.32L563.669 258.63L581.539 268.95L575.189 272.64L557.319 262.32Z" fill="#373A3A"/>
<path d="M584.089 269.2L577.739 272.89C577.089 273.27 576.179 273.22 575.189 272.64L581.539 268.95C582.539 269.52 583.439 269.58 584.089 269.2Z" fill="#373A3A"/>
<path d="M584.089 269.2L577.739 272.89C578.379 272.52 578.779 271.72 578.789 270.59L585.139 266.9C585.139 268.03 584.739 268.83 584.089 269.2Z" fill="white"/>
<path d="M578.799 269.11L585.149 265.42L585.139 266.9L578.789 270.59L578.799 269.11Z" fill="white"/>
<path d="M575.22 262.92L581.57 259.23C583.55 260.37 585.15 263.15 585.15 265.42L578.8 269.11C578.8 266.84 577.2 264.06 575.22 262.92Z" fill="white"/>
<path d="M575.22 262.92C577.2 264.06 578.8 266.84 578.8 269.11V270.58C578.79 272.85 577.18 273.77 575.2 272.63L557.32 262.31C555.35 261.17 553.74 258.39 553.75 256.12V254.65C553.76 252.38 555.37 251.46 557.35 252.59L575.23 262.91L575.22 262.92Z" fill="white"/>
<path d="M575.23 260.89C578.19 262.6 580.58 266.74 580.58 270.14V271.61C580.57 275.01 578.15 276.38 575.2 274.68L557.32 264.36C554.37 262.66 551.97 258.5 551.98 255.1V253.63C551.99 250.23 554.41 248.86 557.36 250.57L575.24 260.89H575.23ZM578.79 270.59V269.12C578.8 266.85 577.2 264.07 575.22 262.93L557.34 252.61C555.37 251.47 553.75 252.39 553.75 254.67V256.14C553.74 258.41 555.34 261.19 557.32 262.33L575.2 272.65C577.18 273.79 578.79 272.87 578.8 270.6" fill="#373A3A"/>
<path d="M575.229 260.89L581.58 257.2C584.54 258.91 586.93 263.05 586.93 266.45L580.58 270.14C580.58 266.74 578.189 262.6 575.229 260.89Z" fill="#373A3A"/>
<path d="M557.34 252.6L563.69 248.91L581.57 259.23L575.22 262.92L557.34 252.6Z" fill="white"/>
<path d="M585.35 271.36L579 275.05C579.96 274.49 580.56 273.3 580.57 271.61L586.92 267.92C586.92 269.61 586.32 270.8 585.35 271.36Z" fill="#373A3A"/>
<path d="M580.569 270.14L586.919 266.45V267.92L580.569 271.61V270.14Z" fill="#373A3A"/>
<path d="M557.35 250.57L563.7 246.88L581.58 257.2L575.23 260.89L557.35 250.57Z" fill="#373A3A"/>
<path d="M540.399 224.87L546.749 221.18C546.749 223.45 548.349 226.23 550.329 227.37L543.979 231.06C541.999 229.92 540.399 227.14 540.399 224.87Z" fill="#373A3A"/>
<path d="M540.399 223.4L546.749 219.71V221.18L540.399 224.87V223.4Z" fill="#373A3A"/>
<path d="M541.449 221.1L547.799 217.41C547.159 217.78 546.759 218.58 546.749 219.71L540.399 223.4C540.399 222.27 540.799 221.47 541.449 221.1Z" fill="#373A3A"/>
<path d="M541.449 221.1L547.799 217.41C548.449 217.03 549.359 217.08 550.349 217.66L543.999 221.35C542.999 220.77 542.099 220.72 541.449 221.1Z" fill="white"/>
<path d="M540.199 218.93L546.549 215.24C547.519 214.67 548.869 214.75 550.359 215.61L544.009 219.3C542.519 218.44 541.179 218.36 540.199 218.93Z" fill="#373A3A"/>
<path d="M543.979 231.06L550.32 227.37L581.609 245.44L575.26 249.13L543.979 231.06Z" fill="#373A3A"/>
<path d="M584.16 245.69L577.81 249.38C577.16 249.76 576.25 249.71 575.26 249.13L581.61 245.44C582.61 246.01 583.51 246.07 584.16 245.69Z" fill="#373A3A"/>
<path d="M584.16 245.69L577.81 249.38C578.45 249.01 578.85 248.21 578.86 247.08L585.21 243.39C585.21 244.52 584.81 245.32 584.16 245.69Z" fill="white"/>
<path d="M578.859 245.6L585.209 241.91V243.39L578.859 247.08V245.6Z" fill="white"/>
<path d="M575.29 239.41L581.64 235.72C583.62 236.86 585.22 239.64 585.22 241.91L578.87 245.6C578.87 243.33 577.27 240.55 575.29 239.41Z" fill="white"/>
<path d="M575.29 239.41C577.27 240.55 578.87 243.33 578.87 245.6V247.07C578.86 249.34 577.25 250.26 575.27 249.12L543.99 231.06C542.01 229.92 540.41 227.14 540.41 224.87V223.4C540.42 221.13 542.03 220.21 544.01 221.35L575.29 239.41Z" fill="white"/>
<path d="M575.29 237.37C578.25 239.08 580.64 243.23 580.64 246.63V248.1C580.63 251.5 578.21 252.87 575.26 251.17L543.98 233.11C541.02 231.4 538.63 227.25 538.64 223.85V222.38C538.65 218.98 541.06 217.6 544.02 219.31L575.3 237.37H575.29ZM578.86 247.08V245.61C578.87 243.34 577.27 240.56 575.29 239.42L544.01 221.36C542.03 220.22 540.42 221.14 540.41 223.41V224.88C540.4 227.15 542 229.93 543.98 231.07L575.26 249.13C577.24 250.27 578.85 249.35 578.86 247.08Z" fill="#373A3A"/>
<path d="M575.29 237.37L581.64 233.68C584.6 235.39 586.99 239.54 586.99 242.94L580.64 246.63C580.64 243.23 578.25 239.08 575.29 237.37Z" fill="#373A3A"/>
<path d="M544 221.34L550.35 217.65L581.64 235.72L575.29 239.41L544 221.34Z" fill="white"/>
<path d="M585.419 247.85L579.069 251.54C580.029 250.98 580.629 249.79 580.639 248.1L586.989 244.41C586.989 246.1 586.389 247.29 585.419 247.85Z" fill="#373A3A"/>
<path d="M580.64 246.63L586.99 242.94L586.98 244.41L580.63 248.1L580.64 246.63Z" fill="#373A3A"/>
<path d="M544.01 219.3L550.36 215.61L581.64 233.68L575.29 237.37L544.01 219.3Z" fill="#373A3A"/>
<path d="M376.77 613.93L361.9 622.51L283.63 577.33C280.36 575.43 279.99 572.58 282.83 570.95L303.67 558.91L376.76 613.93H376.77Z" fill="#373A3A"/>
<path d="M376.77 613.93L361.9 622.51L283.63 577.33C280.36 575.43 279.99 572.58 282.83 570.95L303.67 558.91L376.76 613.93H376.77Z" stroke="#3A3A3A" stroke-width="2.5" stroke-linecap="round" stroke-linejoin="round"/>
<path d="M481.3 553.59L361.9 622.52L294.57 548.96C292.88 547.1 293.81 544.27 296.64 542.62L316.78 530.99C319.62 529.36 323.29 529.54 324.98 531.39L329.64 536.51L413.49 488.1C416.32 486.46 420 486.64 421.69 488.5L481.29 553.59H481.3Z" fill="#C2C7CC"/>
<path d="M361.9 622.51L294.57 548.95C292.88 547.09 293.81 544.26 296.64 542.61L316.78 530.98C319.62 529.35 323.29 529.53 324.98 531.38L329.64 536.5L413.49 488.09C416.32 486.45 420 486.63 421.69 488.49L481.29 553.58L361.89 622.51H361.9Z" stroke="#3A3A3A" stroke-width="2.5" stroke-linecap="round" stroke-linejoin="round"/>
<path d="M506.32 547.56C506.32 547.78 506.3 548 506.29 548.22C506.29 548.27 506.29 548.32 506.29 548.36C505.88 553.26 502.38 558.09 495.9 561.84C482.08 569.82 459.68 569.82 445.85 561.84C439.86 558.39 437.01 553.99 436.22 549.47C436.13 548.47 436.09 547.44 436.09 546.42C436.09 543.61 436.42 540.87 437.05 538.25C437.81 542.58 441.07 546.8 446.82 550.12C460.1 557.78 481.62 557.78 494.89 550.12C501.54 546.28 504.85 541.25 504.84 536.23C505.82 539.46 506.34 542.87 506.34 546.41C506.34 546.8 506.34 547.18 506.32 547.56Z" fill="#373A3A"/>
<path d="M506.29 548.22C506.31 548.01 506.31 547.79 506.32 547.56C506.32 547.78 506.3 547.99 506.29 548.22Z" fill="white"/>
<path d="M504.83 536.23C504.83 541.25 501.52 546.28 494.88 550.12C481.6 557.78 460.08 557.78 446.81 550.12C441.06 546.8 437.8 542.58 437.04 538.25C440.72 522.79 454.62 511.29 471.21 511.29C487.8 511.29 500.47 521.79 504.84 536.23H504.83Z" fill="white"/>
<path d="M506.28 548.36C505.27 566.86 489.95 581.55 471.21 581.55C452.47 581.55 437.76 567.44 436.21 549.47C437.01 553.98 439.85 558.38 445.84 561.84C459.67 569.82 482.07 569.82 495.89 561.84C502.37 558.1 505.87 553.26 506.28 548.36Z" fill="#C2C7CC"/>
<path d="M506.29 548.22C506.31 548.01 506.32 547.79 506.32 547.56C506.33 547.18 506.34 546.8 506.34 546.41C506.34 542.86 505.81 539.45 504.84 536.23C500.47 521.8 487.06 511.29 471.21 511.29C455.36 511.29 440.74 522.79 437.04 538.25C436.41 540.87 436.08 543.61 436.08 546.42C436.08 547.45 436.12 548.47 436.21 549.47C437.8 567.44 452.84 581.55 471.21 581.55C489.58 581.55 505.28 566.86 506.28 548.36" stroke="#373A3A" stroke-width="2.5" stroke-linecap="round" stroke-linejoin="round"/>
<path d="M437.03 538.25C437.79 542.58 441.05 546.8 446.8 550.12C460.08 557.78 481.6 557.78 494.87 550.12C501.52 546.28 504.83 541.25 504.82 536.23" stroke="#373A3A" stroke-width="2.5" stroke-linecap="round" stroke-linejoin="round"/>
<path d="M436.2 549.47C437 553.98 439.84 558.38 445.83 561.84C459.66 569.82 482.06 569.82 495.88 561.84C502.36 558.1 505.86 553.26 506.27 548.36C506.27 548.32 506.27 548.27 506.27 548.22C506.29 548 506.3 547.79 506.3 547.56C506.3 547.49 506.3 547.43 506.3 547.36" stroke="#373A3A" stroke-width="2.5" stroke-linecap="round" stroke-linejoin="round"/>
<path d="M253.175 548.932L249.593 542.729L250.663 543.015L248.628 544.191L247.9 542.93L250.828 541.24L254.745 548.026L253.175 548.932Z" fill="#373A3A"/>
<path d="M313.385 583.692L309.803 577.489L310.873 577.775L308.838 578.951L308.11 577.69L311.038 576L314.955 582.786L313.385 583.692Z" fill="#C2C7CC"/>
<path d="M281.035 538.932L277.454 532.729L278.524 533.015L276.488 534.191L275.761 532.93L278.688 531.24L282.606 538.026L281.035 538.932Z" fill="#373A3A"/>
<path d="M296.754 523.924C296.198 524.245 295.622 524.397 295.026 524.379C294.426 524.355 293.849 524.154 293.295 523.776C292.74 523.398 292.249 522.837 291.82 522.094C291.391 521.351 291.151 520.645 291.101 519.976C291.051 519.307 291.167 518.71 291.45 518.185C291.729 517.653 292.146 517.227 292.702 516.906C293.264 516.582 293.842 516.433 294.435 516.461C295.031 516.479 295.606 516.677 296.161 517.055C296.715 517.432 297.207 517.993 297.636 518.736C298.065 519.479 298.304 520.185 298.355 520.854C298.405 521.523 298.29 522.124 298.011 522.655C297.735 523.177 297.316 523.599 296.754 523.924ZM295.987 522.596C296.252 522.443 296.438 522.236 296.546 521.976C296.661 521.712 296.68 521.386 296.603 521C296.533 520.609 296.35 520.159 296.056 519.648C295.761 519.138 295.462 518.755 295.159 518.499C294.863 518.239 294.572 518.093 294.285 518.06C294.006 518.023 293.733 518.081 293.468 518.234C293.21 518.383 293.023 518.59 292.909 518.854C292.801 519.115 292.782 519.44 292.852 519.831C292.929 520.217 293.115 520.666 293.409 521.176C293.704 521.687 294 522.072 294.296 522.332C294.599 522.587 294.89 522.734 295.17 522.771C295.456 522.803 295.728 522.745 295.987 522.596Z" fill="#373A3A"/>
<path d="M316.194 507.052L312.613 500.849L313.683 501.135L311.647 502.311L310.92 501.05L313.847 499.36L317.765 506.146L316.194 507.052Z" fill="#373A3A"/>
<path d="M345.645 497.972L342.063 491.769L343.133 492.055L341.098 493.231L340.37 491.97L343.297 490.28L347.215 497.066L345.645 497.972Z" fill="#373A3A"/>
<path d="M279.363 566.054C278.807 566.375 278.231 566.527 277.635 566.509C277.035 566.485 276.458 566.284 275.904 565.906C275.35 565.528 274.858 564.967 274.429 564.224C274 563.481 273.76 562.775 273.71 562.106C273.66 561.437 273.776 560.84 274.059 560.315C274.338 559.783 274.755 559.357 275.311 559.036C275.873 558.712 276.451 558.563 277.045 558.591C277.641 558.609 278.216 558.807 278.77 559.185C279.324 559.562 279.816 560.123 280.245 560.866C280.674 561.609 280.914 562.315 280.964 562.984C281.014 563.653 280.9 564.254 280.621 564.785C280.344 565.307 279.925 565.73 279.363 566.054ZM278.596 564.726C278.861 564.573 279.048 564.366 279.156 564.106C279.27 563.842 279.289 563.516 279.212 563.13C279.142 562.739 278.96 562.289 278.665 561.778C278.37 561.268 278.071 560.885 277.769 560.629C277.472 560.369 277.181 560.223 276.895 560.19C276.615 560.153 276.343 560.211 276.078 560.364C275.819 560.513 275.633 560.72 275.518 560.984C275.41 561.245 275.391 561.57 275.462 561.961C275.538 562.347 275.724 562.796 276.019 563.306C276.314 563.817 276.609 564.202 276.905 564.462C277.208 564.717 277.5 564.864 277.779 564.901C278.065 564.933 278.338 564.875 278.596 564.726Z" fill="#373A3A"/>
<path d="M315.155 558.632L311.574 552.429L312.644 552.715L310.608 553.891L309.881 552.63L312.808 550.94L316.726 557.726L315.155 558.632Z" fill="#373A3A"/>
<path d="M332.475 542.542L328.893 536.339L329.963 536.625L327.928 537.801L327.2 536.54L330.128 534.85L334.045 541.636L332.475 542.542Z" fill="#373A3A"/>
<path d="M273.885 508.712L270.303 502.509L271.373 502.795L269.338 503.971L268.61 502.71L271.538 501.02L275.455 507.806L273.885 508.712Z" fill="#373A3A"/>
<path d="M362.203 561.704C361.647 562.025 361.071 562.176 360.475 562.159C359.875 562.135 359.298 561.934 358.744 561.556C358.19 561.178 357.698 560.617 357.269 559.874C356.84 559.131 356.6 558.425 356.55 557.756C356.5 557.087 356.616 556.49 356.899 555.965C357.178 555.433 357.595 555.007 358.151 554.686C358.713 554.362 359.291 554.213 359.884 554.241C360.481 554.259 361.056 554.457 361.61 554.835C362.164 555.212 362.656 555.773 363.085 556.516C363.514 557.259 363.754 557.965 363.804 558.634C363.854 559.303 363.74 559.904 363.461 560.435C363.184 560.956 362.765 561.379 362.203 561.704ZM361.436 560.376C361.701 560.223 361.888 560.016 361.996 559.756C362.11 559.491 362.129 559.166 362.052 558.78C361.982 558.389 361.8 557.939 361.505 557.428C361.21 556.918 360.911 556.535 360.608 556.279C360.312 556.019 360.021 555.873 359.735 555.84C359.455 555.803 359.183 555.861 358.918 556.014C358.659 556.163 358.473 556.37 358.358 556.634C358.25 556.895 358.231 557.22 358.301 557.611C358.378 557.997 358.564 558.446 358.859 558.956C359.153 559.467 359.449 559.852 359.745 560.111C360.048 560.367 360.339 560.514 360.619 560.55C360.905 560.583 361.178 560.525 361.436 560.376Z" fill="#373A3A"/>
<path d="M350.315 526.752L346.733 520.549L347.803 520.835L345.768 522.011L345.04 520.75L347.967 519.06L351.885 525.846L350.315 526.752Z" fill="#373A3A"/>
<path d="M381.155 544.562L377.574 538.359L378.644 538.645L376.608 539.821L375.881 538.56L378.808 536.87L382.726 543.656L381.155 544.562Z" fill="#373A3A"/>
<path d="M378.163 518.754C377.607 519.075 377.031 519.227 376.435 519.209C375.835 519.185 375.258 518.984 374.704 518.606C374.15 518.228 373.658 517.667 373.229 516.924C372.8 516.181 372.56 515.475 372.51 514.806C372.46 514.137 372.576 513.54 372.859 513.015C373.138 512.483 373.555 512.057 374.111 511.736C374.673 511.412 375.251 511.263 375.844 511.291C376.44 511.309 377.016 511.507 377.57 511.885C378.124 512.262 378.616 512.823 379.045 513.566C379.474 514.309 379.714 515.015 379.764 515.684C379.814 516.353 379.699 516.954 379.42 517.485C379.144 518.006 378.725 518.429 378.163 518.754ZM377.396 517.426C377.661 517.273 377.847 517.066 377.956 516.806C378.07 516.542 378.089 516.216 378.012 515.83C377.942 515.439 377.76 514.989 377.465 514.478C377.17 513.968 376.871 513.585 376.568 513.329C376.272 513.069 375.981 512.923 375.695 512.89C375.415 512.853 375.143 512.911 374.878 513.064C374.619 513.213 374.433 513.42 374.318 513.684C374.21 513.945 374.191 514.27 374.261 514.661C374.338 515.047 374.524 515.496 374.819 516.006C375.113 516.517 375.409 516.902 375.705 517.162C376.008 517.417 376.299 517.564 376.579 517.6C376.865 517.633 377.138 517.575 377.396 517.426Z" fill="#373A3A"/>
<path d="M220.081 409.89V486.74L153.521 525.16V448.32L220.081 409.89Z" fill="#C2C7CC"/>
<path d="M220.08 409.89L153.52 448.32L86.9702 409.89L153.52 371.46L220.08 409.89Z" fill="#3A3A3A"/>
<path d="M153.52 448.32V525.16L86.9702 486.74V409.89L153.52 448.32Z" fill="white"/>
<path d="M86.9702 409.89L153.52 371.46L220.08 409.89L153.52 448.32L86.9702 409.89Z" stroke="#3A3A3A" stroke-width="2.5" stroke-linecap="round" stroke-linejoin="round"/>
<path d="M153.521 448.32V525.16" stroke="#3A3A3A" stroke-width="2.5" stroke-linecap="round" stroke-linejoin="round"/>
<path d="M86.9702 409.89V486.74L153.52 525.16L220.08 486.74V409.89" stroke="#3A3A3A" stroke-width="2.5" stroke-linecap="round" stroke-linejoin="round"/>
<path d="M220.081 351.58V381.33L153.521 419.75V390.01L220.081 351.58Z" fill="#C2C7CC"/>
<path d="M220.08 351.58L153.52 390.01L86.9702 351.58L153.52 313.15L220.08 351.58Z" fill="white"/>
<path d="M153.52 390.01V419.75L86.9702 381.33V351.58L153.52 390.01Z" fill="white"/>
<path d="M86.9702 351.58L153.52 313.15L220.08 351.58L153.52 390.01L86.9702 351.58Z" stroke="#3A3A3A" stroke-width="2.5" stroke-linecap="round" stroke-linejoin="round"/>
<path d="M153.521 390.01V419.75" stroke="#3A3A3A" stroke-width="2.5" stroke-linecap="round" stroke-linejoin="round"/>
<path d="M86.9702 351.58V381.33L153.52 419.75L220.08 381.33V351.58" stroke="#3A3A3A" stroke-width="2.5" stroke-linecap="round" stroke-linejoin="round"/>
<path d="M157.11 356.08L145.15 362.98L148.39 367.48L142.28 371.01L128 349.51L133.89 346.11L171.17 354.33L164.91 357.94L157.11 356.07V356.08ZM150.7 354.55L136.75 351.22L142.53 359.27L150.7 354.55Z" fill="#3A3A3A"/>
<path d="M148.09 337.92L154.05 334.48L179.81 349.35L173.85 352.79L148.09 337.92Z" fill="#3A3A3A"/>
<path d="M527.43 479.85V538.59C527.43 543.48 529.05 546.92 531.63 548.41L545.18 556.23C542.71 554.69 541.15 551.3 541.15 546.51V487.76C541.15 478.82 546.59 468.44 553.29 464.57L607.92 433.02C610.96 431.27 613.74 431.15 615.86 432.39L602.14 424.47C600.01 423.24 597.23 423.35 594.2 425.11L539.56 456.65C532.86 460.52 527.42 470.9 527.42 479.85H527.43Z" fill="#5F646B"/>
<path d="M541.14 487.76V546.51C541.14 551.3 542.69 554.69 545.17 556.23L545.34 556.33C547.47 557.56 550.25 557.45 553.28 555.69L607.91 524.15C614.62 520.27 620.05 509.89 620.05 500.95V442.21C620.05 437.33 618.43 433.88 615.85 432.4C613.72 431.17 610.95 431.28 607.91 433.03L553.28 464.58C546.58 468.45 541.14 478.83 541.14 487.77V487.76ZM552.36 513.19C551.84 512.97 551.54 512.39 551.55 511.59C551.55 510.79 551.86 509.86 552.38 509.05L567.03 486.37C568.02 484.84 569.5 484.13 570.33 484.79C571.16 485.46 571.03 487.24 570.04 488.77L557.5 508.17L570.68 513.65C571.67 514.06 571.77 515.7 570.93 517.32C570.47 518.21 569.82 518.91 569.15 519.29C568.61 519.6 568.06 519.7 567.62 519.52L552.35 513.17L552.36 513.19ZM575.64 527.89C574.36 528.4 573.48 527.52 573.68 525.93L580.89 467.98C581.09 466.39 582.29 464.68 583.57 464.17C584.85 463.66 585.73 464.53 585.53 466.13L578.32 524.08C578.14 525.52 577.15 527.07 576 527.71C575.88 527.78 575.76 527.83 575.64 527.88V527.89ZM588.72 507.08C587.87 506.43 587.99 504.66 588.97 503.12L602.16 482.42L589.61 477.5C588.62 477.11 588.49 475.48 589.32 473.85C590.15 472.23 591.63 471.22 592.62 471.61L607.28 477.36C607.81 477.57 608.11 478.15 608.12 478.94C608.12 479.73 607.82 480.66 607.3 481.48L592.02 505.46C591.58 506.16 591.04 506.69 590.49 507C589.83 507.38 589.17 507.44 588.71 507.09L588.72 507.08Z" fill="white"/>
<path d="M551.55 511.6C551.55 512.4 551.84 512.98 552.36 513.2L567.63 519.55C568.07 519.73 568.62 519.63 569.16 519.32C569.82 518.94 570.48 518.24 570.94 517.35C571.78 515.73 571.68 514.08 570.69 513.68L557.51 508.2L570.05 488.8C571.04 487.27 571.17 485.49 570.34 484.82C569.51 484.15 568.03 484.86 567.04 486.4L552.39 509.08C551.86 509.89 551.56 510.82 551.56 511.62L551.55 511.6Z" fill="#3A3A3A"/>
<path d="M573.69 525.93C573.49 527.52 574.37 528.4 575.65 527.89C575.77 527.84 575.89 527.78 576.01 527.72C577.16 527.07 578.14 525.53 578.33 524.09L585.54 466.14C585.74 464.55 584.86 463.67 583.58 464.18C582.3 464.69 581.1 466.4 580.9 467.99L573.69 525.94V525.93Z" fill="#3A3A3A"/>
<path d="M588.96 503.12C587.98 504.66 587.86 506.44 588.71 507.08C589.17 507.43 589.83 507.37 590.49 506.99C591.03 506.68 591.57 506.15 592.02 505.45L607.3 481.47C607.82 480.65 608.12 479.72 608.12 478.93C608.12 478.14 607.81 477.56 607.28 477.35L592.62 471.6C591.63 471.21 590.15 472.21 589.32 473.84C588.49 475.47 588.62 477.1 589.61 477.49L602.16 482.41L588.97 503.11L588.96 503.12Z" fill="#3A3A3A"/>
<path d="M545.34 556.33C547.47 557.56 550.25 557.45 553.28 555.69L607.91 524.15C614.62 520.27 620.05 509.89 620.05 500.95V442.21C620.05 437.33 618.42 433.88 615.85 432.4C613.72 431.17 610.95 431.28 607.91 433.03L553.28 464.58C546.58 468.45 541.14 478.83 541.14 487.77V546.52C541.14 551.31 542.69 554.7 545.17 556.24" stroke="#3A3A3A" stroke-width="2.5" stroke-linecap="round" stroke-linejoin="round"/>
<path d="M615.86 432.38L602.14 424.47C600.01 423.24 597.23 423.35 594.2 425.11L539.56 456.65C532.86 460.52 527.42 470.9 527.42 479.85V538.59C527.42 543.48 529.04 546.92 531.62 548.41L545.34 556.33" stroke="#3A3A3A" stroke-width="2.5" stroke-linecap="round" stroke-linejoin="round"/>
</svg>
