<svg width="800" height="800" viewBox="0 0 800 800" fill="none" xmlns="http://www.w3.org/2000/svg">
<path d="M43.6899 461.13V521.89H43.7399C44.4399 534 53.0199 545.61 66.2499 554.52C138.17 602.93 217.87 642.48 292.85 685.98C327.47 706.06 358.15 728.2 399.57 728.2C440.99 728.2 471.69 706.05 506.29 685.98C581.82 642.16 657.36 598.34 732.89 554.52C738.33 551.43 743.84 547.44 747.84 542.57C753.84 535.27 756.3 528.35 756.27 521.89H756.29V461.13H43.6899Z" fill="white" stroke="#373A3A" stroke-width="2.5" stroke-linecap="round" stroke-linejoin="round"/>
<path d="M733.2 488.71C657.6 532.49 582 576.27 506.4 620.05C471.75 640.11 441 662.24 399.58 662.24C358.13 662.24 327.42 640.12 292.76 620.05C217.71 576.59 137.94 537.09 65.9601 488.71C42.4201 472.89 33.6001 448.55 57.6001 427.98C74.6801 413.34 98.2501 403.71 117.54 392.63C164.91 365.41 212.28 338.19 259.66 310.97C298.85 288.45 341 254.39 387.9 250.43C423.81 247.4 450.87 260.03 481.07 277.39C562.96 324.44 646.1 369.81 726.93 418.66C748.38 431.63 768.55 452.01 748.17 476.77C744.17 481.63 738.64 485.62 733.2 488.71Z" fill="white" stroke="#373A3A" stroke-width="2.5" stroke-linecap="round" stroke-linejoin="round"/>
<path d="M230.01 411.74V431.43L235.14 432.67V424.75L241.59 420.56L238.97 413.92L230.01 411.74Z" fill="#373A3A"/>
<path d="M311.2 420.92C307.15 424.23 301.05 426.72 293.67 427.68C281.7 429.25 269.77 426.37 263.08 420.92C261.68 419.79 260.51 418.54 259.62 417.19C259.11 416.44 258.7 415.66 258.39 414.85C254.78 405.68 264.73 396.56 280.61 394.48C296.49 392.39 312.29 398.14 315.91 407.31C317.25 410.73 316.71 414.15 314.68 417.19C313.79 418.52 312.63 419.77 311.22 420.92H311.2ZM231.15 404.5L230.01 411.74L238.98 413.92L241.59 420.56L235.14 424.76L241.59 431L251.06 429.72L259.94 434.21L258.99 439.8L270.57 442.66L276.92 438.41L288.67 439.03L293.59 443.87L305.87 442.26L306.69 436.67L316.82 433.18L325.73 435.42L334.03 429.95L328.99 425.15L333.63 418.89L343.13 417.68L344.26 410.43L339.13 409.19L335.3 408.26L332.69 401.62L339.14 397.42L332.69 391.18L323.22 392.46L314.34 387.97L315.29 382.38L303.71 379.52L297.36 383.77L285.6 383.16L280.68 378.32L268.4 379.93L267.58 385.52L257.45 389.01L248.54 386.76L240.24 392.23L245.28 397.03L240.63 403.29L240.25 403.33L231.14 404.49L231.15 404.5Z" fill="white"/>
<path d="M235.14 432.67V444.44L241.59 450.69V431L235.14 424.75V432.67Z" fill="#FF8385"/>
<path d="M240.26 392.23V403.33H240.27L240.64 403.29L245.29 397.03L240.26 392.23Z" fill="#373A3A"/>
<path d="M241.59 440.25V450.69L251.05 449.41L258.99 453.42V439.79L259.93 434.21L251.05 429.72L241.59 431V440.25Z" fill="#373A3A"/>
<path d="M280.6 394.49C264.72 396.57 254.77 405.69 258.38 414.86C258.7 415.67 259.11 416.45 259.61 417.2C260.5 418.55 261.67 419.8 263.07 420.93C267.12 417.63 273.22 415.14 280.59 414.18C292.56 412.61 304.5 415.49 311.19 420.93C312.6 419.78 313.77 418.53 314.65 417.2C316.68 414.16 317.23 410.74 315.88 407.32C312.27 398.15 296.47 392.41 280.58 394.49H280.6Z" fill="#373A3A"/>
<path d="M258.99 453.42V459.49L270.56 462.35V442.66L258.99 439.79V453.42Z" fill="#8989E5"/>
<path d="M270.56 442.66V462.35L276.92 458.1L288.67 458.71L293.59 463.56V443.86L288.67 439.03L276.92 438.41L270.56 442.66Z" fill="#373A3A"/>
<path d="M293.59 443.86V463.56L305.87 461.94V442.25L293.59 443.86Z" fill="#FF8385"/>
<path d="M305.87 442.25V461.94L306.69 456.35L316.82 452.86L325.73 455.11V435.41L316.82 433.17L306.69 436.66L305.87 442.25Z" fill="#373A3A"/>
<path d="M325.73 435.41V455.11L334.02 449.63V429.95L325.73 435.41Z" fill="#FF8385"/>
<path d="M333.63 418.89L328.99 425.15L334.02 429.95V438.53L343.13 437.37L344.27 430.12V410.43L343.13 417.68L333.63 418.89Z" fill="#373A3A"/>
<path d="M332.7 401.62L335.31 408.26L339.14 409.18V409.17V397.42L332.7 401.62Z" fill="#373A3A"/>
<path d="M235.14 424.75L241.59 420.56L238.97 413.92L230.01 411.74L231.15 404.5L240.26 403.33H240.27L240.64 403.29L245.29 397.03L240.26 392.23L248.55 386.76L257.46 389L267.59 385.51L268.41 379.92L280.69 378.31L285.61 383.15L297.37 383.76L303.72 379.52L315.3 382.38L314.35 387.97L323.23 392.46L332.7 391.17L339.14 397.42L332.7 401.62L335.31 408.26L339.14 409.18V409.19L344.27 410.43L343.13 417.68L333.63 418.89L328.99 425.15L334.02 429.95L325.73 435.41L316.82 433.17L306.69 436.66L305.87 442.25L293.59 443.86L288.67 439.03L276.92 438.41L270.56 442.66L258.99 439.79L259.93 434.21L251.05 429.72L241.59 431L235.14 424.75Z" stroke="#3A3A3A" stroke-width="2.5" stroke-linecap="round" stroke-linejoin="round"/>
<path d="M311.2 420.92C312.61 419.77 313.78 418.52 314.66 417.19C316.69 414.15 317.24 410.73 315.89 407.31C312.28 398.14 296.48 392.4 280.59 394.48C264.71 396.56 254.76 405.68 258.37 414.85C258.69 415.66 259.1 416.44 259.6 417.19C260.49 418.54 261.66 419.79 263.06 420.92C269.76 426.36 281.68 429.25 293.65 427.68C301.03 426.71 307.12 424.22 311.18 420.92H311.2Z" stroke="#3A3A3A" stroke-width="2.5" stroke-linecap="round" stroke-linejoin="round"/>
<path d="M311.21 420.93C304.52 415.49 292.59 412.6 280.61 414.18C273.24 415.15 267.14 417.63 263.09 420.93" stroke="#3A3A3A" stroke-width="2.5" stroke-linecap="round" stroke-linejoin="round"/>
<path d="M344.27 410.43V430.12L343.13 437.37L334.02 438.53" stroke="#3A3A3A" stroke-width="2.5" stroke-linecap="round" stroke-linejoin="round"/>
<path d="M339.14 397.42V409.17" stroke="#3A3A3A" stroke-width="2.5" stroke-linecap="round" stroke-linejoin="round"/>
<path d="M325.73 435.41V455.11" stroke="#3A3A3A" stroke-width="2.5" stroke-linecap="round" stroke-linejoin="round"/>
<path d="M305.87 442.25V461.94" stroke="#3A3A3A" stroke-width="2.5" stroke-linecap="round" stroke-linejoin="round"/>
<path d="M293.59 443.86V463.56" stroke="#3A3A3A" stroke-width="2.5" stroke-linecap="round" stroke-linejoin="round"/>
<path d="M270.56 442.66V462.35" stroke="#3A3A3A" stroke-width="2.5" stroke-linecap="round" stroke-linejoin="round"/>
<path d="M258.99 439.79V459.49L270.56 462.35L276.92 458.1L288.67 458.71L293.59 463.56L305.87 461.94L306.69 456.35L316.82 452.86L325.73 455.11L334.02 449.63V429.95" stroke="#3A3A3A" stroke-width="2.5" stroke-linecap="round" stroke-linejoin="round"/>
<path d="M230.01 411.74V431.43L235.14 432.67" stroke="#3A3A3A" stroke-width="2.5" stroke-linecap="round" stroke-linejoin="round"/>
<path d="M241.59 431V450.69" stroke="#3A3A3A" stroke-width="2.5" stroke-linecap="round" stroke-linejoin="round"/>
<path d="M235.14 424.75V444.44L241.59 450.69L251.05 449.41L258.99 453.42" stroke="#3A3A3A" stroke-width="2.5" stroke-linecap="round" stroke-linejoin="round"/>
<path d="M240.26 392.23V403.33" stroke="#3A3A3A" stroke-width="2.5" stroke-linecap="round" stroke-linejoin="round"/>
<path d="M157.19 485.02V514.98L164.99 516.87V504.82L174.8 498.44L170.83 488.33L157.19 485.02Z" fill="#373A3A"/>
<path d="M280.73 498.99C274.56 504.03 265.29 507.81 254.06 509.28C235.84 511.67 217.69 507.29 207.51 498.99C205.38 497.27 203.6 495.37 202.25 493.31C201.48 492.17 200.85 490.99 200.37 489.75C194.87 475.8 210.01 461.92 234.18 458.76C258.35 455.59 282.39 464.33 287.89 478.28C289.93 483.49 289.1 488.69 286.01 493.32C284.66 495.34 282.89 497.24 280.74 498.99H280.73ZM158.92 474L157.19 485.02L170.83 488.33L174.8 498.43L164.99 504.82L174.8 514.32L189.2 512.37L202.71 519.19L201.27 527.69L218.89 532.05L228.56 525.59L246.44 526.53L253.93 533.89L272.62 531.44L273.86 522.93L289.27 517.62L302.83 521.03L315.45 512.71L307.79 505.4L314.86 495.88L329.32 494.04L331.05 483.02L323.25 481.13L317.42 479.71L313.45 469.61L323.26 463.22L313.45 453.72L299.05 455.67L285.54 448.84L286.99 440.34L269.37 435.98L259.71 442.44L241.82 441.5L234.33 434.14L215.64 436.59L214.4 445.1L198.99 450.41L185.43 446.99L172.81 455.32L180.47 462.63L173.4 472.15L172.83 472.22H172.81L158.95 473.99L158.92 474Z" fill="white"/>
<path d="M164.99 516.87V534.78L174.8 544.28V514.32L164.99 504.82V516.87Z" fill="#FF8385"/>
<path d="M172.78 455.33V472.23H172.8L173.37 472.16L180.44 462.64L172.78 455.33Z" fill="#373A3A"/>
<path d="M174.8 528.4V544.28L189.21 542.34L201.28 548.44V527.7L202.72 519.2L189.21 512.38L174.8 514.32V528.4Z" fill="#373A3A"/>
<path d="M234.17 458.77C210.01 461.94 194.87 475.81 200.36 489.76C200.84 491 201.47 492.18 202.24 493.32C203.6 495.38 205.38 497.28 207.5 499C213.67 493.98 222.94 490.19 234.16 488.72C252.38 486.33 270.54 490.72 280.72 498.99C282.87 497.24 284.64 495.34 285.99 493.32C289.08 488.7 289.91 483.49 287.87 478.28C282.37 464.33 258.33 455.59 234.16 458.76L234.17 458.77Z" fill="#373A3A"/>
<path d="M201.28 548.44V557.67L218.9 562.02V532.06L201.28 527.7V548.44Z" fill="#FF8385"/>
<path d="M218.9 532.06V562.02L228.56 555.56L246.44 556.49L253.93 563.87V533.9L246.44 526.54L228.56 525.6L218.9 532.06Z" fill="#373A3A"/>
<path d="M253.93 533.9V563.87L272.62 561.41V531.45L253.93 533.9Z" fill="#FF8385"/>
<path d="M272.62 531.45V561.41L273.86 552.9L289.27 547.59L302.83 551.01V521.04L289.27 517.64L273.86 522.94L272.62 531.45Z" fill="#373A3A"/>
<path d="M302.83 521.04V551.01L315.46 542.68V512.73L302.83 521.04Z" fill="#FF8385"/>
<path d="M314.86 495.89L307.8 505.42L315.46 512.73V525.78L329.32 524.01L331.04 512.99V483.03L329.32 494.05L314.86 495.89Z" fill="#373A3A"/>
<path d="M313.44 469.62L317.41 479.72L323.24 481.13L323.25 481.11V463.23L313.44 469.62Z" fill="#373A3A"/>
<path d="M164.99 504.82L174.8 498.44L170.83 488.33L157.19 485.02L158.92 474L172.78 472.23H172.8L173.37 472.16L180.44 462.64L172.78 455.33L185.41 447.01L198.96 450.42L214.38 445.11L215.62 436.61L234.31 434.16L241.8 441.52L259.68 442.45L269.34 435.99L286.97 440.35L285.52 448.85L299.03 455.68L313.44 453.73L323.25 463.23L313.44 469.62L317.41 479.72L323.24 481.13V481.14L331.04 483.03L329.32 494.05L314.86 495.89L307.8 505.42L315.46 512.73L302.83 521.04L289.27 517.64L273.86 522.94L272.62 531.45L253.93 533.9L246.44 526.54L228.56 525.6L218.9 532.06L201.28 527.7L202.72 519.2L189.21 512.38L174.8 514.32L164.99 504.82Z" stroke="#3A3A3A" stroke-width="2.5" stroke-linecap="round" stroke-linejoin="round"/>
<path d="M280.73 498.99C282.88 497.24 284.65 495.34 286 493.32C289.09 488.7 289.92 483.49 287.88 478.28C282.38 464.33 258.34 455.59 234.17 458.76C210.01 461.93 194.87 475.8 200.36 489.75C200.84 490.99 201.47 492.17 202.24 493.31C203.6 495.37 205.38 497.26 207.5 498.99C217.7 507.27 235.83 511.67 254.05 509.28C265.28 507.81 274.55 504.02 280.72 498.99H280.73Z" stroke="#3A3A3A" stroke-width="2.5" stroke-linecap="round" stroke-linejoin="round"/>
<path d="M280.74 499C270.56 490.72 252.4 486.33 234.18 488.72C222.96 490.19 213.68 493.98 207.52 499" stroke="#3A3A3A" stroke-width="2.5" stroke-linecap="round" stroke-linejoin="round"/>
<path d="M331.04 483.03V512.99L329.32 524.01L315.46 525.78" stroke="#3A3A3A" stroke-width="2.5" stroke-linecap="round" stroke-linejoin="round"/>
<path d="M323.25 463.23V481.11" stroke="#3A3A3A" stroke-width="2.5" stroke-linecap="round" stroke-linejoin="round"/>
<path d="M302.83 521.04V551.01" stroke="#3A3A3A" stroke-width="2.5" stroke-linecap="round" stroke-linejoin="round"/>
<path d="M272.62 531.45V561.41" stroke="#3A3A3A" stroke-width="2.5" stroke-linecap="round" stroke-linejoin="round"/>
<path d="M253.93 533.9V563.87" stroke="#3A3A3A" stroke-width="2.5" stroke-linecap="round" stroke-linejoin="round"/>
<path d="M218.9 532.06V562.02" stroke="#3A3A3A" stroke-width="2.5" stroke-linecap="round" stroke-linejoin="round"/>
<path d="M201.28 527.7V557.67L218.9 562.02L228.56 555.56L246.44 556.49L253.93 563.87L272.62 561.41L273.86 552.9L289.27 547.59L302.83 551.01L315.46 542.68V512.73" stroke="#3A3A3A" stroke-width="2.5" stroke-linecap="round" stroke-linejoin="round"/>
<path d="M157.19 485.02V514.98L164.99 516.87" stroke="#3A3A3A" stroke-width="2.5" stroke-linecap="round" stroke-linejoin="round"/>
<path d="M174.8 514.32V544.28" stroke="#3A3A3A" stroke-width="2.5" stroke-linecap="round" stroke-linejoin="round"/>
<path d="M164.99 504.82V534.78L174.8 544.28L189.21 542.34L201.28 548.44" stroke="#3A3A3A" stroke-width="2.5" stroke-linecap="round" stroke-linejoin="round"/>
<path d="M172.78 455.33V472.23" stroke="#3A3A3A" stroke-width="2.5" stroke-linecap="round" stroke-linejoin="round"/>
<path d="M283.96 196.96V340.77C283.96 347.17 280.06 354.6 275.27 357.37L108.23 453.81C106.06 455.06 104.07 455.14 102.55 454.27L102.43 454.2C100.66 453.1 99.54 450.67 99.54 447.24V303.43C99.54 297.03 103.43 289.6 108.23 286.83L275.27 190.39C277.37 189.17 279.3 189.06 280.81 189.85L280.95 189.93C282.79 190.99 283.96 193.46 283.96 196.96ZM252.28 336.34V270.99L238.83 278.75V344.11L252.28 336.34ZM252.28 257.61V236.02L238.83 243.79V265.37L252.28 257.61ZM225.38 351.87V311.47L211.93 319.24V359.64L225.38 351.87ZM225.38 297.01V251.56L211.93 259.32V304.77L225.38 297.01ZM198.48 367.41V307.11L185.02 314.88V375.18L198.48 367.41ZM198.48 293.74V267.09L185.02 274.85V301.5L198.48 293.74ZM171.57 382.94V350.13L158.12 357.9V390.7L171.57 382.94ZM171.57 336.75V282.62L158.12 290.39V344.51L171.57 336.75ZM144.67 398.47V326.97L131.22 334.74V406.24L144.67 398.47ZM144.67 316.85V298.16L131.22 305.92V324.61L144.67 316.85Z" fill="white"/>
<path d="M268.02 182.47L280.81 189.85C279.3 189.06 277.37 189.17 275.27 190.39L108.23 286.83C103.43 289.6 99.5399 297.03 99.5399 303.43V447.24C99.5399 450.67 100.66 453.1 102.43 454.2L89.6199 446.81C87.7799 445.74 86.6099 443.28 86.6099 439.78V295.96C86.6099 289.56 90.4999 282.13 95.2999 279.36L262.34 182.93C264.51 181.67 266.5 181.59 268.02 182.47Z" fill="#969A9E"/>
<path d="M252.28 270.99V336.34L238.83 344.11V278.75L252.28 270.99Z" fill="#3A3A3A"/>
<path d="M252.28 236.02V257.61L238.83 265.37V243.79L252.28 236.02Z" fill="white"/>
<path d="M225.38 311.47V351.87L211.93 359.64V319.24L225.38 311.47Z" fill="white"/>
<path d="M225.38 251.56V297.01L211.93 304.77V259.32L225.38 251.56Z" fill="#3A3A3A"/>
<path d="M198.48 307.11V367.41L185.02 375.18V314.88L198.48 307.11Z" fill="white"/>
<path d="M198.48 267.09V293.74L185.02 301.5V274.85L198.48 267.09Z" fill="#FF8385"/>
<path d="M171.57 350.13V382.94L158.12 390.7V357.9L171.57 350.13Z" fill="white"/>
<path d="M171.57 282.62V336.75L158.12 344.51V290.39L171.57 282.62Z" fill="white"/>
<path d="M144.67 326.97V398.47L131.22 406.24V334.74L144.67 326.97Z" fill="white"/>
<path d="M144.67 298.16V316.85L131.22 324.61V305.92L144.67 298.16Z" fill="#3A3A3A"/>
<path d="M102.43 454.2C100.66 453.1 99.54 450.67 99.54 447.24V303.43C99.54 297.03 103.43 289.6 108.23 286.83L275.27 190.39C277.37 189.17 279.3 189.06 280.81 189.85" stroke="#3A3A3A" stroke-width="2.5" stroke-linecap="round" stroke-linejoin="round"/>
<path d="M280.95 189.93C282.79 190.99 283.96 193.46 283.96 196.96V340.77C283.96 347.17 280.06 354.6 275.27 357.37L108.23 453.81C106.06 455.06 104.07 455.14 102.55 454.27" stroke="#3A3A3A" stroke-width="2.5" stroke-linecap="round" stroke-linejoin="round"/>
<path d="M144.67 316.85V298.16L131.22 305.92V324.61L144.67 316.85Z" stroke="#3A3A3A" stroke-width="2.5" stroke-linecap="round" stroke-linejoin="round"/>
<path d="M131.22 334.74V406.24L144.67 398.47V326.97L131.22 334.74Z" stroke="#3A3A3A" stroke-width="2.5" stroke-linecap="round" stroke-linejoin="round"/>
<path d="M158.12 357.9V390.7L171.57 382.94V350.13L158.12 357.9Z" stroke="#3A3A3A" stroke-width="2.5" stroke-linecap="round" stroke-linejoin="round"/>
<path d="M171.57 336.75V282.62L158.12 290.39V344.51L171.57 336.75Z" stroke="#3A3A3A" stroke-width="2.5" stroke-linecap="round" stroke-linejoin="round"/>
<path d="M198.48 293.74V267.09L185.02 274.85V301.5L198.48 293.74Z" stroke="#3A3A3A" stroke-width="2.5" stroke-linecap="round" stroke-linejoin="round"/>
<path d="M185.02 314.88V375.18L198.48 367.41V307.11L185.02 314.88Z" stroke="#3A3A3A" stroke-width="2.5" stroke-linecap="round" stroke-linejoin="round"/>
<path d="M225.38 297.01V251.56L211.93 259.32V304.77L225.38 297.01Z" stroke="#3A3A3A" stroke-width="2.5" stroke-linecap="round" stroke-linejoin="round"/>
<path d="M211.93 319.24V359.64L225.38 351.87V311.47L211.93 319.24Z" stroke="#3A3A3A" stroke-width="2.5" stroke-linecap="round" stroke-linejoin="round"/>
<path d="M252.28 257.61V236.02L238.83 243.79V265.37L252.28 257.61Z" stroke="#3A3A3A" stroke-width="2.5" stroke-linecap="round" stroke-linejoin="round"/>
<path d="M238.83 278.75V344.11L252.28 336.34V270.99L238.83 278.75Z" stroke="#3A3A3A" stroke-width="2.5" stroke-linecap="round" stroke-linejoin="round"/>
<path d="M102.55 454.27L89.6199 446.81C87.7799 445.74 86.6099 443.28 86.6099 439.78V295.96C86.6099 289.56 90.4999 282.13 95.2999 279.36L262.34 182.93C264.51 181.67 266.5 181.59 268.02 182.47L280.95 189.93" stroke="#3A3A3A" stroke-width="2.5" stroke-linecap="round" stroke-linejoin="round"/>
<path d="M593.7 410.15C594.29 410.15 594.84 410.43 595.18 410.91C595.52 411.39 595.6 412 595.41 412.55C595.71 411.66 596.57 410.78 597.81 410.07C601.8 407.77 608.55 407.77 612.53 410.07C613.78 410.79 614.63 411.67 614.93 412.55C614.74 412 614.83 411.39 615.17 410.92C615.51 410.44 616.06 410.16 616.65 410.16H616.87C617.3 410.16 617.69 410.32 618 410.57C617.29 409.17 616.05 407.93 614.34 406.94C609.2 403.97 601.14 403.97 596 406.94C594.29 407.93 593.05 409.17 592.34 410.57C592.65 410.32 593.04 410.16 593.48 410.16H593.7V410.15Z" fill="#3A3A3A"/>
<path d="M591.99 411.38C592.08 411.1 592.21 410.84 592.34 410.57C591.93 410.9 591.67 411.4 591.67 411.97V413.29C591.67 412.94 591.77 412.62 591.94 412.35C591.87 412.04 591.88 411.71 591.99 411.39V411.38Z" fill="#3A3A3A"/>
<path d="M595.41 412.55C595.37 412.67 595.31 412.79 595.25 412.9C595.28 413.02 595.29 413.15 595.29 413.28C595.29 413.03 595.33 412.8 595.41 412.55Z" fill="#3A3A3A"/>
<path d="M591.94 412.34C592.26 411.82 592.83 411.47 593.48 411.47C594.35 411.47 595.07 412.08 595.25 412.9C595.32 412.79 595.37 412.68 595.41 412.55C595.6 412 595.51 411.39 595.18 410.91C594.84 410.43 594.29 410.15 593.7 410.15H593.48C593.05 410.15 592.65 410.31 592.34 410.56C592.21 410.83 592.08 411.09 591.99 411.37C591.88 411.69 591.87 412.02 591.94 412.33V412.34Z" fill="#3A3A3A"/>
<path d="M614.94 412.55C615.02 412.79 615.06 413.03 615.06 413.28C615.06 413.15 615.08 413.02 615.1 412.9C615.03 412.79 614.98 412.68 614.93 412.56L614.94 412.55Z" fill="#3A3A3A"/>
<path d="M618.41 412.34C618.58 412.61 618.68 412.94 618.68 413.28V411.96C618.68 411.39 618.41 410.89 618.01 410.56C618.14 410.83 618.27 411.1 618.36 411.37C618.47 411.69 618.48 412.02 618.41 412.33V412.34Z" fill="#3A3A3A"/>
<path d="M616.65 410.15C616.06 410.15 615.51 410.43 615.17 410.91C614.83 411.39 614.75 412 614.94 412.55C614.98 412.67 615.04 412.79 615.11 412.89C615.29 412.07 616.01 411.46 616.88 411.46C617.53 411.46 618.1 411.81 618.42 412.33C618.49 412.02 618.48 411.69 618.37 411.37C618.28 411.09 618.15 410.82 618.02 410.56C617.71 410.31 617.32 410.15 616.89 410.15H616.67H616.65Z" fill="#3A3A3A"/>
<path d="M628.01 383.18C628.59 383.18 629.13 383.46 629.47 383.93C629.81 384.4 629.91 385 629.73 385.55C630.03 384.69 630.88 383.81 632.12 383.1C636.11 380.8 642.86 380.8 646.85 383.1C648.09 383.82 648.94 384.7 649.24 385.58C649.05 385.03 649.14 384.42 649.48 383.95C649.82 383.47 650.37 383.19 650.96 383.19H651.18C651.61 383.19 652.01 383.35 652.32 383.6C651.61 382.2 650.37 380.96 648.66 379.97C643.51 377 635.45 377.01 630.31 379.97C628.6 380.96 627.35 382.21 626.64 383.61C626.95 383.35 627.35 383.19 627.79 383.19H628.01V383.18Z" fill="#3A3A3A"/>
<path d="M629.6 386.2C629.6 386.2 629.59 386.26 629.59 386.3C629.59 386.33 629.6 386.36 629.6 386.39C629.6 386.4 629.6 386.19 629.6 386.2Z" fill="#3A3A3A"/>
<path d="M625.98 386.14V386.47C625.98 386.41 625.99 386.36 626 386.31C626 386.26 625.98 386.2 625.98 386.15V386.14Z" fill="#3A3A3A"/>
<path d="M629.6 386.19C629.6 386 629.65 385.79 629.72 385.56C629.68 385.68 629.63 385.79 629.57 385.89C629.58 385.97 629.6 386.05 629.6 386.14V386.19Z" fill="#3A3A3A"/>
<path d="M626.3 384.4C626.39 384.13 626.51 383.86 626.65 383.6C626.25 383.93 625.99 384.43 625.99 384.99V386.14C625.99 385.81 626.08 385.51 626.23 385.25C626.19 384.97 626.2 384.69 626.3 384.4Z" fill="#3A3A3A"/>
<path d="M626.23 385.25C626.54 384.7 627.12 384.33 627.8 384.33C628.71 384.33 629.46 385.01 629.58 385.89C629.64 385.79 629.69 385.69 629.72 385.58C629.91 385 629.81 384.4 629.47 383.93C629.13 383.46 628.59 383.18 628.01 383.18H627.79C627.35 383.18 626.95 383.34 626.64 383.6C626.51 383.86 626.39 384.13 626.29 384.4C626.19 384.68 626.18 384.97 626.22 385.25H626.23Z" fill="#3A3A3A"/>
<path d="M626.27 385.48C626.25 385.4 626.24 385.32 626.22 385.24C626.07 385.5 625.98 385.81 625.98 386.13C625.98 386.19 625.99 386.24 626 386.29C626.03 385.99 626.12 385.71 626.27 385.47V385.48Z" fill="#3A3A3A"/>
<path d="M629.6 386.19V386.14C629.6 386.05 629.59 385.97 629.57 385.89C629.55 385.92 629.54 385.94 629.52 385.97C629.55 386.08 629.57 386.19 629.58 386.31C629.58 386.28 629.59 386.25 629.59 386.2L629.6 386.19Z" fill="#3A3A3A"/>
<path d="M627.76 384.65C628.58 384.65 629.3 385.19 629.53 385.96C629.55 385.93 629.57 385.91 629.58 385.88C629.46 385 628.71 384.32 627.8 384.32C627.13 384.32 626.55 384.69 626.23 385.24C626.24 385.32 626.25 385.4 626.28 385.48C626.6 384.99 627.14 384.66 627.76 384.65Z" fill="#3A3A3A"/>
<path d="M649.25 385.58C649.33 385.82 649.37 386.06 649.37 386.31C649.37 386.18 649.39 386.05 649.41 385.93C649.34 385.82 649.29 385.71 649.24 385.59L649.25 385.58Z" fill="#3A3A3A"/>
<path d="M652.72 385.36C652.89 385.63 652.99 385.95 652.99 386.3V384.98C652.99 384.41 652.72 383.91 652.32 383.58C652.45 383.85 652.58 384.11 652.67 384.39C652.78 384.71 652.79 385.04 652.72 385.35V385.36Z" fill="#3A3A3A"/>
<path d="M650.96 383.18C650.37 383.18 649.82 383.46 649.48 383.94C649.14 384.42 649.06 385.03 649.25 385.58C649.29 385.7 649.35 385.82 649.42 385.92C649.6 385.1 650.32 384.49 651.19 384.49C651.84 384.49 652.41 384.84 652.73 385.36C652.8 385.05 652.79 384.72 652.68 384.4C652.59 384.12 652.46 383.85 652.33 383.59C652.02 383.34 651.63 383.18 651.19 383.18H650.97H650.96Z" fill="#3A3A3A"/>
<path d="M593.48 415.09C594.48 415.09 595.29 414.28 595.29 413.28C595.29 413.15 595.28 413.02 595.25 412.9C594.82 413.61 593.94 413.95 593.12 413.67C592.5 413.46 592.07 412.94 591.94 412.34C591.77 412.61 591.67 412.93 591.67 413.28C591.67 414.28 592.48 415.09 593.48 415.09Z" fill="#3A3A3A"/>
<path d="M593.48 411.47C592.83 411.47 592.26 411.82 591.94 412.34C592.07 412.94 592.49 413.46 593.12 413.67C593.94 413.95 594.82 413.61 595.25 412.9C595.08 412.08 594.35 411.47 593.48 411.47Z" fill="#3A3A3A"/>
<path d="M617.23 413.67C617.04 413.74 616.84 413.77 616.64 413.77C616.01 413.77 615.43 413.44 615.1 412.9C615.07 413.02 615.06 413.15 615.06 413.28C615.06 414.28 615.87 415.09 616.87 415.09C617.87 415.09 618.68 414.28 618.68 413.28C618.68 412.93 618.58 412.61 618.41 412.34C618.28 412.94 617.86 413.46 617.23 413.68V413.67Z" fill="#3A3A3A"/>
<path d="M616.65 413.77C616.84 413.77 617.04 413.74 617.24 413.67C617.86 413.46 618.29 412.93 618.42 412.33C618.1 411.81 617.53 411.46 616.88 411.46C616.01 411.46 615.29 412.07 615.11 412.89C615.44 413.43 616.03 413.76 616.65 413.76V413.77Z" fill="#3A3A3A"/>
<path d="M627.79 388.27C628.79 388.27 629.6 387.46 629.6 386.46V386.4C629.6 386.4 629.59 386.33 629.59 386.3C629.51 387.23 628.73 387.95 627.8 387.95C626.84 387.93 626.09 387.21 626.01 386.3C626.01 386.35 625.99 386.41 625.99 386.46C625.99 387.46 626.8 388.27 627.8 388.27H627.79Z" fill="#3A3A3A"/>
<path d="M627.42 386.7C626.84 386.5 626.43 386.04 626.27 385.49C626.12 385.73 626.02 386.01 626 386.31C626.08 387.22 626.83 387.94 627.76 387.96C628.73 387.96 629.5 387.24 629.59 386.31C629.58 386.19 629.56 386.08 629.53 385.97C629.09 386.65 628.23 386.98 627.43 386.7H627.42Z" fill="#3A3A3A"/>
<path d="M627.42 386.7C628.22 386.98 629.08 386.65 629.52 385.97C629.3 385.2 628.57 384.66 627.75 384.66C627.13 384.67 626.58 385 626.27 385.49C626.43 386.04 626.84 386.5 627.42 386.7Z" fill="#3A3A3A"/>
<path d="M651.54 386.7C651.35 386.77 651.15 386.8 650.95 386.8C650.32 386.8 649.74 386.47 649.41 385.93C649.38 386.05 649.37 386.18 649.37 386.31C649.37 387.31 650.18 388.12 651.18 388.12C652.18 388.12 652.99 387.31 652.99 386.31C652.99 385.96 652.89 385.64 652.72 385.37C652.59 385.97 652.17 386.49 651.54 386.7Z" fill="#3A3A3A"/>
<path d="M650.96 386.8C651.15 386.8 651.35 386.77 651.55 386.7C652.17 386.49 652.6 385.97 652.73 385.37C652.41 384.85 651.84 384.5 651.19 384.5C650.32 384.5 649.6 385.11 649.42 385.93C649.75 386.47 650.34 386.8 650.96 386.8Z" fill="#3A3A3A"/>
<path d="M678.25 457.15C678.25 453.7 675.73 450.06 670.8 447.21C665.21 443.98 657.83 442.54 651.18 442.99V477.38L672.99 464.79C676.52 462.74 678.25 460.01 678.25 457.15Z" fill="#3A3A3A"/>
<path d="M651.18 386.3C651.18 388.03 650.04 389.75 647.76 391.07C643.19 393.7 635.78 393.7 631.22 391.07C629.01 389.79 627.86 388.14 627.8 386.46V490.87L651.19 477.37V386.29L651.18 386.3Z" fill="#FF8385"/>
<path d="M616.87 459.5V497.18L627.79 490.87V453.19L616.87 459.5Z" fill="#3A3A3A"/>
<path d="M582.56 516.99L593.48 510.69V473.01L582.56 479.31V516.99Z" fill="#3A3A3A"/>
<path d="M582.56 451.79C582.49 453.47 581.35 455.12 579.14 456.41C574.57 459.04 567.17 459.04 562.61 456.41C560.32 455.09 559.18 453.36 559.18 451.63V527.21C563.24 526.94 567.04 525.95 570 524.25L582.57 516.99V451.79H582.56Z" fill="#FF8385"/>
<path d="M537.36 505.41C533.83 507.45 532.09 510.19 532.09 513.04C532.09 516.5 534.62 520.13 539.54 522.98C545.13 526.21 552.51 527.65 559.16 527.21V492.82L537.35 505.41H537.36Z" fill="#3A3A3A"/>
<path d="M559.4 448.51C559.99 448.51 560.54 448.79 560.88 449.27C561.22 449.75 561.3 450.36 561.11 450.91C561.41 450.03 562.27 449.15 563.51 448.43C567.5 446.13 574.25 446.13 578.24 448.43C579.49 449.15 580.34 450.03 580.64 450.91C580.45 450.35 580.54 449.75 580.88 449.27C581.22 448.8 581.77 448.51 582.35 448.51H582.57C583.01 448.51 583.41 448.67 583.72 448.93C583.01 447.53 581.77 446.28 580.05 445.29C574.91 442.33 566.85 442.33 561.71 445.29C560 446.28 558.76 447.52 558.05 448.92C558.36 448.67 558.75 448.51 559.19 448.51H559.41H559.4Z" fill="#3A3A3A"/>
<path d="M584.37 451.79V451.46C584.37 451.52 584.36 451.57 584.35 451.62C584.35 451.67 584.37 451.73 584.37 451.78V451.79Z" fill="#3A3A3A"/>
<path d="M580.76 451.62C580.76 451.62 580.75 451.56 580.75 451.53C580.75 451.52 580.75 451.72 580.75 451.72C580.75 451.68 580.76 451.65 580.76 451.62Z" fill="#3A3A3A"/>
<path d="M561.1 450.9C561.06 451.02 561 451.14 560.93 451.25C560.96 451.37 560.97 451.5 560.97 451.63C560.97 451.38 561.01 451.15 561.09 450.9H561.1Z" fill="#3A3A3A"/>
<path d="M557.68 449.73C557.77 449.45 557.9 449.18 558.03 448.92C557.62 449.25 557.36 449.75 557.36 450.32V451.64C557.36 451.29 557.46 450.97 557.63 450.7C557.56 450.39 557.57 450.06 557.68 449.74V449.73Z" fill="#3A3A3A"/>
<path d="M557.63 450.69C557.95 450.17 558.52 449.82 559.17 449.82C560.04 449.82 560.76 450.43 560.94 451.25C561.01 451.14 561.06 451.03 561.11 450.9C561.3 450.35 561.21 449.74 560.88 449.26C560.54 448.78 559.99 448.5 559.4 448.5H559.18C558.75 448.5 558.36 448.66 558.04 448.91C557.91 449.18 557.78 449.44 557.69 449.72C557.58 450.04 557.57 450.37 557.64 450.68L557.63 450.69Z" fill="#3A3A3A"/>
<path d="M580.75 451.46C580.75 451.37 580.76 451.29 580.78 451.21C580.72 451.11 580.67 451.01 580.64 450.9C580.71 451.11 580.75 451.31 580.76 451.52V451.47L580.75 451.46Z" fill="#3A3A3A"/>
<path d="M584.12 450.57C584.27 450.83 584.36 451.14 584.36 451.46V450.31C584.36 449.75 584.1 449.25 583.7 448.92C583.83 449.18 583.95 449.45 584.05 449.72C584.15 450 584.16 450.29 584.12 450.57Z" fill="#3A3A3A"/>
<path d="M582.34 448.51C581.76 448.51 581.21 448.79 580.87 449.27C580.53 449.74 580.44 450.35 580.63 450.91C580.67 451.02 580.72 451.13 580.78 451.23C580.9 450.35 581.65 449.67 582.56 449.67C583.23 449.67 583.81 450.04 584.13 450.59C584.17 450.31 584.16 450.03 584.06 449.74C583.97 449.47 583.85 449.2 583.71 448.94C583.4 448.68 583 448.52 582.56 448.52H582.34V448.51Z" fill="#3A3A3A"/>
<path d="M584.08 450.81C584.23 451.05 584.33 451.33 584.35 451.62C584.35 451.57 584.37 451.51 584.37 451.46C584.37 451.13 584.28 450.83 584.13 450.57C584.12 450.65 584.11 450.73 584.08 450.81Z" fill="#3A3A3A"/>
<path d="M580.75 451.52C580.75 451.52 580.76 451.59 580.76 451.63C580.77 451.52 580.79 451.4 580.82 451.3C580.8 451.27 580.79 451.25 580.77 451.23C580.76 451.31 580.74 451.39 580.74 451.48V451.53L580.75 451.52Z" fill="#3A3A3A"/>
<path d="M582.6 449.98C583.22 449.99 583.77 450.32 584.08 450.81C584.1 450.73 584.11 450.65 584.13 450.57C583.82 450.02 583.24 449.65 582.56 449.65C581.65 449.65 580.9 450.33 580.78 451.21C580.8 451.24 580.81 451.26 580.83 451.28C581.05 450.51 581.76 449.94 582.6 449.97V449.98Z" fill="#3A3A3A"/>
<path d="M560.08 491.25C560.64 491.57 560.98 492.17 560.98 492.82V457.53C561.21 457.68 561.45 457.83 561.7 457.98C566.84 460.95 574.9 460.95 580.05 457.98C580.29 457.84 580.53 457.69 580.75 457.54V479.32C580.75 478.67 581.1 478.08 581.66 477.75L584.37 476.19V451.8C584.37 452.8 583.56 453.61 582.56 453.61C581.56 453.61 580.75 452.8 580.75 451.8V451.73C580.7 452.83 579.8 453.93 578.23 454.85C574.24 457.15 567.49 457.15 563.51 454.85C561.9 453.92 560.98 452.75 560.98 451.64C560.98 452.64 560.17 453.45 559.17 453.45C558.17 453.45 557.36 452.64 557.36 451.64V491.78L558.26 491.26C558.82 490.94 559.51 490.94 560.07 491.26L560.08 491.25Z" fill="#3A3A3A"/>
<path d="M582.59 453.27C581.62 453.27 580.84 452.55 580.76 451.62C580.76 451.65 580.75 451.68 580.75 451.71C580.75 451.72 580.75 451.79 580.75 451.79C580.75 452.79 581.56 453.6 582.56 453.6C583.56 453.6 584.37 452.79 584.37 451.79C584.37 451.73 584.36 451.68 584.35 451.63C584.27 452.54 583.52 453.26 582.59 453.28V453.27Z" fill="#3A3A3A"/>
<path d="M559.17 453.44C560.17 453.44 560.98 452.63 560.98 451.63C560.98 451.5 560.96 451.37 560.94 451.25C560.61 451.79 560.02 452.12 559.4 452.12C559.21 452.12 559.01 452.09 558.81 452.02C558.19 451.81 557.76 451.29 557.63 450.69C557.46 450.96 557.36 451.28 557.36 451.63C557.36 452.63 558.17 453.44 559.17 453.44Z" fill="#3A3A3A"/>
<path d="M559.17 449.82C558.52 449.82 557.95 450.17 557.63 450.69C557.76 451.29 558.18 451.81 558.81 452.02C559 452.09 559.2 452.12 559.4 452.12C560.03 452.12 560.61 451.79 560.94 451.25C560.76 450.43 560.04 449.82 559.17 449.82Z" fill="#3A3A3A"/>
<path d="M582.93 452.03C582.13 452.31 581.27 451.98 580.83 451.29C580.8 451.4 580.78 451.51 580.77 451.62C580.85 452.55 581.63 453.27 582.56 453.27C583.52 453.25 584.27 452.53 584.35 451.62C584.32 451.32 584.23 451.04 584.08 450.81C583.92 451.36 583.51 451.82 582.93 452.02V452.03Z" fill="#3A3A3A"/>
<path d="M582.6 449.98C581.76 449.95 581.05 450.51 580.83 451.29C581.27 451.97 582.13 452.3 582.93 452.03C583.51 451.83 583.92 451.37 584.08 450.82C583.76 450.33 583.22 450 582.6 449.99V449.98Z" fill="#3A3A3A"/>
<path d="M581.65 518.56C581.09 518.24 580.75 517.64 580.75 516.99V515.95L569.09 522.68C566.88 523.95 564.11 524.81 560.98 525.21V527.21C560.98 528.16 560.24 528.95 559.3 529.01C563.76 528.72 567.77 527.61 570.9 525.81L583.47 518.55C583.19 518.71 582.88 518.79 582.57 518.79C582.26 518.79 581.94 518.71 581.66 518.55L581.65 518.56Z" fill="#3A3A3A"/>
<path d="M559.17 529.02C558.23 529.02 557.43 528.29 557.37 527.33C557.3 526.33 558.06 525.47 559.06 525.41C559.72 525.37 560.36 525.3 560.99 525.22V492.83C560.99 493.83 560.18 494.64 559.18 494.64C558.18 494.64 557.37 493.83 557.37 492.83V491.79L536.46 503.86C532.48 506.16 530.29 509.43 530.29 513.06C530.29 517.3 533.34 521.5 538.65 524.56C543.68 527.47 550.3 529.11 556.79 529.11C557.63 529.11 558.47 529.08 559.31 529.03C559.27 529.03 559.23 529.03 559.19 529.03L559.17 529.02ZM557.36 525.47C551.3 525.58 545.1 524.1 540.45 521.41C536.29 519.01 533.9 515.96 533.9 513.04C533.9 510.75 535.45 508.6 538.26 506.97L557.36 495.95V525.47Z" fill="#3A3A3A"/>
<path d="M559.17 494.63C560.17 494.63 560.98 493.82 560.98 492.82C560.98 492.17 560.64 491.58 560.08 491.25C559.52 490.93 558.83 490.93 558.27 491.25L557.37 491.77V492.81C557.37 493.81 558.18 494.62 559.18 494.62L559.17 494.63Z" fill="#3A3A3A"/>
<path d="M560.98 527.21V525.21C560.35 525.29 559.71 525.36 559.05 525.4C558.05 525.47 557.3 526.33 557.36 527.32C557.42 528.28 558.22 529.01 559.16 529.01C559.2 529.01 559.24 529.01 559.28 529.01C560.23 528.94 560.97 528.16 560.97 527.21H560.98Z" fill="#3A3A3A"/>
<path d="M594.38 471.45C594.94 471.77 595.28 472.37 595.28 473.02V419.18C595.51 419.33 595.75 419.48 595.99 419.62C601.13 422.6 609.19 422.6 614.34 419.62C614.59 419.48 614.83 419.33 615.06 419.17V459.51C615.06 458.86 615.4 458.27 615.96 457.94L618.67 456.37V413.28C618.67 414.28 617.86 415.09 616.86 415.09C615.86 415.09 615.05 414.28 615.05 413.28C615.05 414.39 614.13 415.55 612.52 416.48C608.53 418.79 601.79 418.79 597.79 416.48C596.19 415.56 595.27 414.39 595.27 413.28C595.27 414.28 594.46 415.09 593.46 415.09C592.46 415.09 591.65 414.28 591.65 413.28V471.97L592.56 471.45C593.12 471.13 593.81 471.13 594.37 471.45H594.38Z" fill="#3A3A3A"/>
<path d="M616.87 498.99C616.56 498.99 616.25 498.91 615.97 498.75C615.41 498.43 615.07 497.83 615.07 497.18V496.14L595.29 507.56V510.69C595.29 511.34 594.94 511.93 594.39 512.26L617.78 498.75C617.5 498.91 617.19 498.99 616.88 498.99H616.87Z" fill="#3A3A3A"/>
<path d="M593.48 512.5C592.86 512.5 592.25 512.18 591.91 511.6C591.41 510.74 591.71 509.63 592.57 509.13L595.28 507.56V473.01C595.28 474.01 594.47 474.82 593.47 474.82C592.47 474.82 591.66 474.01 591.66 473.01V471.96L584.36 476.17V479.3C584.36 480.3 583.55 481.11 582.55 481.11C581.55 481.11 580.74 480.3 580.74 479.3V515.93L581.64 515.41C582.5 514.91 583.61 515.21 584.11 516.07C584.61 516.93 584.31 518.04 583.45 518.54L594.37 512.25C594.09 512.41 593.77 512.49 593.47 512.49L593.48 512.5ZM591.67 509.65L584.37 513.86V480.36L591.67 476.15V509.65Z" fill="#3A3A3A"/>
<path d="M580.75 479.31C580.75 480.31 581.56 481.12 582.56 481.12C583.56 481.12 584.37 480.31 584.37 479.31V476.18L581.66 477.74C581.1 478.06 580.75 478.66 580.75 479.31Z" fill="#3A3A3A"/>
<path d="M584.12 516.08C583.62 515.21 582.51 514.92 581.65 515.42L580.75 515.94V516.98C580.75 517.63 581.09 518.22 581.65 518.55C581.93 518.71 582.24 518.79 582.56 518.79C582.88 518.79 583.18 518.71 583.46 518.55C584.33 518.05 584.62 516.94 584.12 516.08Z" fill="#3A3A3A"/>
<path d="M593.48 474.82C594.48 474.82 595.29 474.01 595.29 473.01C595.29 472.36 594.95 471.77 594.39 471.44C593.83 471.12 593.14 471.12 592.58 471.44L591.67 471.96V473.01C591.67 474.01 592.48 474.82 593.48 474.82Z" fill="#3A3A3A"/>
<path d="M595.29 510.69V507.56L592.58 509.13C591.71 509.63 591.42 510.74 591.92 511.6C592.25 512.18 592.86 512.5 593.49 512.5C593.8 512.5 594.11 512.42 594.39 512.26C594.95 511.94 595.29 511.34 595.29 510.69Z" fill="#3A3A3A"/>
<path d="M628.7 451.63C629.26 451.95 629.6 452.55 629.6 453.2V392.2C629.83 392.35 630.06 392.5 630.31 392.64C635.45 395.61 643.51 395.61 648.66 392.64C648.91 392.5 649.14 392.35 649.37 392.2V442.99C649.37 442.04 650.11 441.25 651.06 441.19C651.7 441.15 652.35 441.12 652.99 441.11V386.3C652.99 387.3 652.18 388.11 651.18 388.11C650.18 388.11 649.37 387.3 649.37 386.3C649.37 387.41 648.45 388.58 646.85 389.5C642.85 391.8 636.1 391.8 632.12 389.5C630.54 388.58 629.65 387.48 629.6 386.4V386.46C629.6 387.46 628.79 388.27 627.79 388.27C626.79 388.27 625.98 387.46 625.98 386.46V452.15L626.88 451.63C627.44 451.31 628.13 451.31 628.69 451.63H628.7Z" fill="#3A3A3A"/>
<path d="M650.27 478.94C649.71 478.62 649.37 478.02 649.37 477.37V476.33L629.6 487.74V490.87C629.6 491.52 629.26 492.11 628.7 492.44L652.08 478.95C651.8 479.11 651.49 479.19 651.18 479.19C650.87 479.19 650.56 479.11 650.28 478.95L650.27 478.94Z" fill="#3A3A3A"/>
<path d="M627.79 492.68C627.16 492.68 626.56 492.36 626.22 491.77C625.72 490.91 626.02 489.8 626.88 489.3L629.59 487.73V453.18C629.59 454.18 628.78 454.99 627.78 454.99C626.78 454.99 625.97 454.18 625.97 453.18V452.14L618.67 456.36V459.5C618.67 460.5 617.86 461.31 616.86 461.31C615.86 461.31 615.05 460.5 615.05 459.5V496.14L615.95 495.62C616.81 495.12 617.92 495.42 618.42 496.28C618.92 497.14 618.62 498.25 617.76 498.75L628.68 492.44C628.4 492.6 628.08 492.68 627.78 492.68H627.79ZM625.98 489.83L618.68 494.05V460.55L625.98 456.33V489.83Z" fill="#3A3A3A"/>
<path d="M615.06 459.5C615.06 460.5 615.87 461.31 616.87 461.31C617.87 461.31 618.68 460.5 618.68 459.5V456.36L615.97 457.93C615.41 458.25 615.07 458.85 615.07 459.5H615.06Z" fill="#3A3A3A"/>
<path d="M618.44 496.28C617.94 495.41 616.83 495.12 615.97 495.62L615.07 496.14V497.18C615.07 497.83 615.41 498.42 615.97 498.75C616.25 498.91 616.56 498.99 616.87 498.99C617.18 498.99 617.5 498.91 617.78 498.75C618.64 498.25 618.94 497.14 618.44 496.28Z" fill="#3A3A3A"/>
<path d="M627.79 455C628.79 455 629.6 454.19 629.6 453.19C629.6 452.54 629.26 451.95 628.7 451.62C628.14 451.3 627.45 451.3 626.89 451.62L625.99 452.14V453.18C625.99 454.18 626.8 454.99 627.8 454.99L627.79 455Z" fill="#3A3A3A"/>
<path d="M629.6 490.87V487.74L626.89 489.31C626.02 489.81 625.73 490.92 626.23 491.78C626.56 492.36 627.17 492.69 627.8 492.69C628.11 492.69 628.42 492.61 628.7 492.45C629.26 492.13 629.61 491.53 629.61 490.88L629.6 490.87Z" fill="#3A3A3A"/>
<path d="M671.71 445.64C666.53 442.64 659.66 441 652.99 441.11V442.99C652.99 443.99 652.18 444.8 651.18 444.8C650.18 444.8 649.37 443.99 649.37 442.99V476.33L650.28 475.81C651.14 475.31 652.25 475.61 652.75 476.47C653.25 477.33 652.95 478.44 652.09 478.94L673.9 466.35C677.87 464.04 680.06 460.78 680.06 457.14C680.06 452.89 677.02 448.7 671.71 445.64ZM672.09 463.22L652.99 474.24V444.72C659.04 444.6 665.25 446.08 669.9 448.77C674.06 451.17 676.44 454.22 676.44 457.14C676.44 460.06 674.07 462.06 672.08 463.21L672.09 463.22Z" fill="#3A3A3A"/>
<path d="M649.37 442.99C649.37 443.99 650.18 444.8 651.18 444.8C652.18 444.8 652.99 443.99 652.99 442.99V441.11C652.34 441.12 651.7 441.14 651.06 441.19C650.11 441.26 649.37 442.04 649.37 442.99Z" fill="#3A3A3A"/>
<path d="M652.75 476.47C652.25 475.6 651.14 475.31 650.28 475.81L649.37 476.33V477.37C649.37 478.02 649.71 478.61 650.27 478.94C650.55 479.1 650.86 479.18 651.17 479.18C651.48 479.18 651.79 479.1 652.07 478.94C652.94 478.44 653.23 477.33 652.73 476.47H652.75Z" fill="#3A3A3A"/>
<path d="M553.95 174.98C553.95 192.11 565.96 212.93 580.8 221.5L660.53 267.5C661.56 268.11 662.59 268.65 663.61 269.12C666.67 270.55 669.6 271.39 672.35 271.68C676.07 272.08 679.43 271.46 682.29 269.93L682.46 269.85C686.8 267.44 689.9 262.89 691.2 256.54C691.63 254.38 691.87 252 691.87 249.41C691.87 229.43 677.84 205.1 660.53 195.11C659.38 194.45 658.24 193.87 657.12 193.36C654.68 169.7 638.24 143 618.32 131.5C614.25 129.15 610.34 127.6 606.65 126.82C600.95 125.56 595.8 126.11 591.54 128.26L591.14 128.48C583.76 132.44 579.19 141.32 579.19 154.08C579.19 155.5 579.25 156.94 579.36 158.36C579.36 158.48 579.37 158.59 579.38 158.71C579.36 158.71 579.34 158.7 579.33 158.69C565.18 151.4 553.95 158.44 553.95 174.99V174.98Z" fill="white"/>
<path d="M613.23 116.74L591.54 128.25C595.8 126.1 600.95 125.55 606.65 126.81C610.33 127.59 614.25 129.14 618.32 131.49C638.24 142.99 654.69 169.69 657.12 193.35C658.24 193.87 659.38 194.44 660.53 195.1C677.84 205.09 691.87 229.41 691.87 249.4C691.87 251.99 691.63 254.37 691.2 256.53C689.9 262.88 686.81 267.43 682.46 269.84L704.44 258.16C710.36 254.99 714.03 247.87 714.03 237.64C714.03 235.5 713.87 233.31 713.56 231.1C712.34 222.28 708.78 213.06 703.72 204.85C698.16 195.81 690.77 188.01 682.68 183.34C681.53 182.68 680.4 182.09 679.28 181.59C676.86 157.93 660.4 131.23 640.49 119.73C629.92 113.62 620.34 112.92 613.31 116.69L613.24 116.74H613.23Z" fill="#C2C7CC"/>
<path d="M648.22 260.41V292.63L685.41 314.11" stroke="#3A3A3A" stroke-width="2.5" stroke-linecap="round" stroke-linejoin="round"/>
<path d="M626.28 247.75V315.76" stroke="#3A3A3A" stroke-width="2.5" stroke-linecap="round" stroke-linejoin="round"/>
<path d="M604.94 235.43V273.8L565.51 251.03" stroke="#3A3A3A" stroke-width="2.5" stroke-linecap="round" stroke-linejoin="round"/>
<path d="M677.76 318.52L685.41 314.11L677.76 300.83" stroke="#3A3A3A" stroke-width="2.5" stroke-linecap="round" stroke-linejoin="round"/>
<path d="M573.18 246.62L565.51 251.03L573.18 264.31" stroke="#3A3A3A" stroke-width="2.5" stroke-linecap="round" stroke-linejoin="round"/>
<path d="M618.62 302.5L626.28 315.76L633.94 311.33" stroke="#3A3A3A" stroke-width="2.5" stroke-linecap="round" stroke-linejoin="round"/>
<path d="M591.54 128.25L591.14 128.47C583.76 132.43 579.19 141.31 579.19 154.07C579.19 155.49 579.25 156.93 579.36 158.35C579.36 158.47 579.37 158.58 579.38 158.7C579.36 158.7 579.34 158.69 579.33 158.68C565.18 151.39 553.95 158.43 553.95 174.98C553.95 191.53 565.96 212.93 580.8 221.5L660.53 267.5C661.56 268.11 662.59 268.65 663.61 269.12C666.67 270.55 669.6 271.39 672.35 271.68C676.07 272.08 679.43 271.46 682.29 269.93L682.46 269.85" stroke="#3A3A3A" stroke-width="2.5" stroke-linecap="round" stroke-linejoin="round"/>
<path d="M591.54 128.25C595.8 126.1 600.95 125.55 606.65 126.81C610.33 127.59 614.25 129.14 618.32 131.49C638.24 142.99 654.69 169.69 657.12 193.35C658.24 193.87 659.38 194.44 660.53 195.1C677.84 205.09 691.87 229.41 691.87 249.4C691.87 251.99 691.63 254.37 691.2 256.53C689.9 262.88 686.81 267.43 682.46 269.84L704.44 258.16C710.36 254.99 714.03 247.87 714.03 237.64C714.03 235.5 713.87 233.31 713.56 231.1C712.34 222.28 708.78 213.06 703.72 204.85C698.16 195.81 690.77 188.01 682.68 183.34C681.53 182.68 680.4 182.09 679.28 181.59C676.86 157.93 660.4 131.23 640.49 119.73C629.92 113.62 620.34 112.92 613.31 116.69L613.24 116.74L591.55 128.25H591.54Z" stroke="#3A3A3A" stroke-width="2.5" stroke-linecap="round" stroke-linejoin="round"/>
<path d="M505.01 474.3V474.46C504.95 476.91 503.29 479.35 500.05 481.22L446.13 512.34C439.5 516.15 428.78 516.15 422.17 512.34L368.24 481.22C364.93 479.3 363.28 476.8 363.28 474.3C363.28 471.8 364.93 469.3 368.24 467.38L422.17 436.25C428.79 432.44 439.51 432.44 446.13 436.25L500.05 467.38C503.37 469.3 505.01 471.8 505.01 474.3ZM457.15 474.36V474.31C457.15 473.49 456.62 472.69 455.54 472.06L438.05 461.96C437.21 461.48 436.17 461.19 435.08 461.08C433.38 460.91 431.58 461.21 430.27 461.96L412.77 472.06C411.69 472.69 411.16 473.49 411.16 474.31C411.16 475.13 411.69 475.93 412.77 476.55L430.27 486.65C431.58 487.41 433.38 487.71 435.08 487.54C436.17 487.44 437.22 487.14 438.05 486.65L455.54 476.55C456.6 475.94 457.13 475.16 457.15 474.36Z" fill="white"/>
<path d="M505.01 559.25V581.22C505.01 583.73 503.36 586.23 500.05 588.14L446.13 619.26C439.5 623.09 428.78 623.09 422.17 619.26L368.24 588.14C364.93 586.23 363.28 583.73 363.28 581.22V559.09C363.28 561.59 364.93 564.09 368.24 566L422.17 597.13C428.79 600.94 439.51 600.94 446.13 597.13L500.05 566C503.3 564.14 504.95 561.7 505.01 559.25Z" fill="#DAE0E5"/>
<path d="M505.01 559.09V559.25C504.95 561.7 503.29 564.14 500.05 566L446.13 597.13C439.5 600.94 428.78 600.94 422.17 597.13L368.24 566C364.93 564.09 363.28 561.59 363.28 559.09C363.28 556.59 364.93 554.09 368.24 552.17L373.8 548.96L422.17 576.88C428.79 580.71 439.51 580.71 446.13 576.88L494.49 548.96L500.05 552.17C503.37 554.09 505.01 556.58 505.01 559.09Z" fill="#5F646B"/>
<path d="M505.01 516.85V538.83C505.01 541.33 503.36 543.84 500.05 545.75L446.13 576.87C439.5 580.7 428.78 580.7 422.17 576.87L368.24 545.75C364.93 543.84 363.28 541.33 363.28 538.83V516.69C363.28 519.2 364.93 521.69 368.24 523.61L422.17 554.73C428.79 558.55 439.51 558.55 446.13 554.73L500.05 523.61C503.3 521.75 504.95 519.3 505.01 516.85Z" fill="#DAE0E5"/>
<path d="M505.01 516.69V516.85C504.95 519.3 503.29 521.75 500.05 523.61L446.13 554.73C439.5 558.55 428.78 558.55 422.17 554.73L368.24 523.61C364.93 521.69 363.28 519.2 363.28 516.69C363.28 514.18 364.93 511.69 368.24 509.78L373.8 506.57L422.17 534.49C428.79 538.31 439.51 538.31 446.13 534.49L494.49 506.57L500.05 509.78C503.37 511.69 505.01 514.19 505.01 516.69Z" fill="#5F646B"/>
<path d="M505.01 474.46V496.44C505.01 498.94 503.36 501.44 500.05 503.35L446.13 534.48C439.5 538.3 428.78 538.3 422.17 534.48L368.24 503.35C364.93 501.44 363.28 498.94 363.28 496.44V474.3C363.28 476.8 364.93 479.3 368.24 481.22L422.17 512.34C428.79 516.15 439.51 516.15 446.13 512.34L500.05 481.22C503.3 479.35 504.95 476.91 505.01 474.46Z" fill="#DAE0E5"/>
<path d="M457.15 474.3V474.35C457.13 475.15 456.6 475.93 455.54 476.54L438.05 486.64C437.21 487.13 436.17 487.43 435.08 487.53V461.06C436.17 461.16 437.22 461.46 438.05 461.94L455.54 472.04C456.62 472.67 457.15 473.47 457.15 474.29V474.3Z" fill="#C2C7CC"/>
<path d="M435.07 461.07V487.54C433.37 487.71 431.57 487.41 430.26 486.65L412.76 476.55C411.68 475.93 411.15 475.12 411.15 474.31C411.15 473.5 411.68 472.69 412.76 472.06L430.26 461.96C431.57 461.21 433.37 460.91 435.07 461.08V461.07Z" fill="#373A3A"/>
<path d="M505.01 559.25C504.95 561.7 503.29 564.14 500.05 566L446.13 597.13C439.5 600.94 428.78 600.94 422.17 597.13L368.24 566C364.93 564.09 363.28 561.59 363.28 559.09C363.28 556.59 364.93 554.09 368.24 552.17L373.8 548.96" stroke="#373A3A" stroke-width="2.5" stroke-linecap="round" stroke-linejoin="round"/>
<path d="M494.49 548.96L500.05 552.17C503.37 554.09 505.01 556.58 505.01 559.09V581.22C505.01 583.73 503.36 586.23 500.05 588.14L446.13 619.26C439.5 623.09 428.78 623.09 422.17 619.26L368.24 588.14C364.93 586.23 363.28 583.73 363.28 581.22V559.09" stroke="#373A3A" stroke-width="2.5" stroke-linecap="round" stroke-linejoin="round"/>
<path d="M505.01 516.85C504.95 519.3 503.29 521.75 500.05 523.61L446.13 554.73C439.5 558.55 428.78 558.55 422.17 554.73L368.24 523.61C364.93 521.69 363.28 519.2 363.28 516.69C363.28 514.18 364.93 511.69 368.24 509.78L373.8 506.57" stroke="#373A3A" stroke-width="2.5" stroke-linecap="round" stroke-linejoin="round"/>
<path d="M494.49 506.57L500.05 509.78C503.37 511.69 505.01 514.19 505.01 516.69V538.83C505.01 541.33 503.36 543.84 500.05 545.75L446.13 576.87C439.5 580.7 428.78 580.7 422.17 576.87L368.24 545.75C364.93 543.84 363.28 541.33 363.28 538.83V516.69" stroke="#373A3A" stroke-width="2.5" stroke-linecap="round" stroke-linejoin="round"/>
<path d="M505.01 474.46C504.95 476.91 503.29 479.35 500.05 481.22L446.13 512.34C439.5 516.15 428.78 516.15 422.17 512.34L368.24 481.22C364.93 479.3 363.28 476.8 363.28 474.3C363.28 471.8 364.93 469.3 368.24 467.38L422.17 436.25C428.79 432.44 439.51 432.44 446.13 436.25L500.05 467.38C503.37 469.3 505.01 471.8 505.01 474.3" stroke="#373A3A" stroke-width="2.5" stroke-linecap="round" stroke-linejoin="round"/>
<path d="M505.01 474.3V496.44C505.01 498.94 503.36 501.44 500.05 503.35L446.13 534.48C439.5 538.3 428.78 538.3 422.17 534.48L368.24 503.35C364.93 501.44 363.28 498.94 363.28 496.44V474.3" stroke="#373A3A" stroke-width="2.5" stroke-linecap="round" stroke-linejoin="round"/>
<path d="M457.15 474.36C457.13 475.16 456.6 475.94 455.54 476.55L438.05 486.65C437.21 487.14 436.17 487.43 435.08 487.54C433.38 487.71 431.58 487.41 430.27 486.65L412.77 476.55C411.69 475.93 411.16 475.12 411.16 474.31C411.16 473.5 411.69 472.69 412.77 472.06L430.27 461.96C431.58 461.21 433.38 460.92 435.08 461.08C436.17 461.19 437.22 461.48 438.05 461.96L455.54 472.06C456.62 472.69 457.15 473.49 457.15 474.31V474.36Z" stroke="#373A3A" stroke-width="2.5" stroke-linecap="round" stroke-linejoin="round"/>
<path d="M435.07 461.07V487.54" stroke="#373A3A" stroke-width="2.5" stroke-linecap="round" stroke-linejoin="round"/>
<path d="M351.69 262.83V148.45L439.47 199.14V376.73L351.69 326.04V262.83ZM422.56 328.98V303.95L368.6 272.8V297.82L422.56 328.98ZM422.56 290.48V265.45L368.6 234.3V259.33L422.56 290.48ZM377.71 193.15C377.71 190.45 375.82 187.15 373.48 185.8C371.14 184.45 369.24 185.55 369.24 188.25C369.24 190.95 371.14 194.25 373.48 195.61C375.82 196.97 377.71 195.87 377.71 193.16V193.15ZM377.71 215.83C377.71 213.12 375.82 209.83 373.48 208.47C371.14 207.13 369.24 208.22 369.24 210.92C369.24 213.62 371.14 216.93 373.48 218.28C375.82 219.63 377.71 218.53 377.71 215.83ZM395.59 231.99C398.32 233.57 400.53 231.9 400.53 228.24V207.09C400.53 203.45 398.32 199.21 395.59 197.63C394.89 197.23 394.22 197.04 393.62 197.04C391.86 197.04 390.63 198.66 390.63 201.38V222.53C390.63 226.18 392.84 230.41 395.58 231.99H395.59ZM421.95 218.69C421.95 215.98 420.05 212.69 417.69 211.34C415.35 209.98 413.46 211.08 413.46 213.79C413.46 216.5 415.35 219.79 417.69 221.15C420.04 222.5 421.95 221.4 421.95 218.7V218.69ZM421.95 241.37C421.95 238.65 420.05 235.37 417.69 234.01C415.35 232.65 413.46 233.75 413.46 236.46C413.46 239.17 415.35 242.46 417.69 243.81C420.04 245.16 421.95 244.07 421.95 241.36V241.37Z" fill="#DAE0E5"/>
<path d="M351.69 148.45L439.48 199.14L509.97 158.91L422.18 108.23L351.69 148.45Z" fill="white"/>
<path d="M368.6 272.8V297.81L422.56 328.98V303.95L368.6 272.8Z" fill="#3A3A3A"/>
<path d="M368.6 234.3V259.33L422.56 290.48V265.46L368.6 234.3Z" fill="#3A3A3A"/>
<path d="M369.23 188.25C369.23 190.97 371.13 194.25 373.47 195.61C375.81 196.97 377.7 195.87 377.7 193.16C377.7 190.45 375.81 187.16 373.47 185.81C371.13 184.46 369.23 185.56 369.23 188.26V188.25Z" fill="white"/>
<path d="M369.23 210.92C369.23 213.63 371.13 216.93 373.47 218.28C375.81 219.63 377.7 218.53 377.7 215.83C377.7 213.13 375.81 209.83 373.47 208.47C371.13 207.13 369.23 208.22 369.23 210.92Z" fill="white"/>
<path d="M390.64 201.38V222.53C390.64 226.18 392.85 230.41 395.59 231.99C398.32 233.57 400.53 231.9 400.53 228.24V207.09C400.53 203.45 398.32 199.21 395.59 197.63C394.89 197.23 394.22 197.04 393.62 197.04C391.86 197.04 390.63 198.66 390.63 201.38H390.64Z" fill="#3A3A3A"/>
<path d="M413.46 213.79C413.46 216.49 415.35 219.79 417.69 221.15C420.04 222.5 421.95 221.4 421.95 218.7C421.95 216 420.05 212.7 417.69 211.35C415.35 209.99 413.46 211.09 413.46 213.8V213.79Z" fill="white"/>
<path d="M413.46 236.46C413.46 239.16 415.35 242.46 417.69 243.81C420.04 245.16 421.95 244.07 421.95 241.36C421.95 238.65 420.05 235.36 417.69 234C415.35 232.64 413.46 233.74 413.46 236.45V236.46Z" fill="white"/>
<path d="M509.97 158.91V336.5L439.48 376.72V199.13L509.97 158.9V158.91ZM465.48 325.8L484.64 314.74C487.84 312.89 490.43 307.93 490.43 303.67V283.62C490.43 279.35 487.84 277.39 484.64 279.24L465.48 290.31C462.28 292.15 459.68 297.11 459.68 301.38V321.43C459.68 325.7 462.28 327.66 465.48 325.81V325.8Z" fill="white"/>
<path d="M465.48 290.3L484.64 279.23C487.84 277.39 490.43 279.35 490.43 283.61V303.66C490.43 307.92 487.84 312.88 484.64 314.73L465.48 325.79C462.28 327.64 459.68 325.68 459.68 321.41V301.36C459.68 297.09 462.28 292.14 465.48 290.29V290.3ZM475.41 308.87C477.04 307.94 478.52 306.32 479.6 304.46C480.68 302.6 481.35 300.5 481.35 298.6C481.35 294.82 478.69 293.29 475.42 295.18C472.16 297.07 469.5 301.67 469.5 305.45C469.5 309.23 472.16 310.76 475.42 308.87H475.41Z" fill="#3A3A3A"/>
<path d="M475.41 295.19C472.15 297.08 469.49 301.68 469.49 305.46C469.49 309.24 472.15 310.77 475.41 308.88C477.04 307.95 478.52 306.33 479.6 304.47C480.68 302.61 481.35 300.51 481.35 298.61C481.35 294.83 478.69 293.3 475.42 295.19H475.41Z" fill="white"/>
<path d="M509.97 336.51V158.91L422.18 108.23" stroke="#3A3A3A" stroke-width="2.5" stroke-linecap="round" stroke-linejoin="round"/>
<path d="M413.46 213.79C413.46 216.49 415.35 219.79 417.69 221.15C420.04 222.5 421.95 221.4 421.95 218.7C421.95 216 420.05 212.7 417.69 211.35C415.35 209.99 413.46 211.09 413.46 213.8V213.79Z" stroke="#3A3A3A" stroke-width="2.5" stroke-linecap="round" stroke-linejoin="round"/>
<path d="M413.46 236.46C413.46 239.16 415.35 242.46 417.69 243.81C420.04 245.16 421.95 244.07 421.95 241.36C421.95 238.65 420.05 235.36 417.69 234C415.35 232.64 413.46 233.74 413.46 236.45V236.46Z" stroke="#3A3A3A" stroke-width="2.5" stroke-linecap="round" stroke-linejoin="round"/>
<path d="M369.23 188.25C369.23 190.97 371.13 194.25 373.47 195.61C375.81 196.97 377.7 195.87 377.7 193.16C377.7 190.45 375.81 187.16 373.47 185.81C371.13 184.46 369.23 185.56 369.23 188.26V188.25Z" stroke="#3A3A3A" stroke-width="2.5" stroke-linecap="round" stroke-linejoin="round"/>
<path d="M369.23 210.92C369.23 213.63 371.13 216.93 373.47 218.28C375.81 219.63 377.7 218.53 377.7 215.83C377.7 213.13 375.81 209.83 373.47 208.47C371.13 207.13 369.23 208.22 369.23 210.92Z" stroke="#3A3A3A" stroke-width="2.5" stroke-linecap="round" stroke-linejoin="round"/>
<path d="M395.59 231.99C398.32 233.57 400.53 231.9 400.53 228.24V207.09C400.53 203.45 398.32 199.21 395.59 197.63C394.89 197.23 394.22 197.04 393.62 197.04C391.86 197.04 390.63 198.66 390.63 201.38V222.53C390.63 226.18 392.84 230.41 395.58 231.99H395.59Z" stroke="#3A3A3A" stroke-width="2.5" stroke-linecap="round" stroke-linejoin="round"/>
<path d="M368.6 259.33L422.56 290.48V265.46L368.6 234.3V259.33Z" stroke="#3A3A3A" stroke-width="2.5" stroke-linecap="round" stroke-linejoin="round"/>
<path d="M368.6 297.81L422.56 328.98V303.95L368.6 272.8V297.81Z" stroke="#3A3A3A" stroke-width="2.5" stroke-linecap="round" stroke-linejoin="round"/>
<path d="M351.69 148.45V326.04L439.48 376.73V199.14L351.69 148.45Z" stroke="#3A3A3A" stroke-width="2.5" stroke-linecap="round" stroke-linejoin="round"/>
<path d="M422.18 108.23L351.69 148.45" stroke="#3A3A3A" stroke-width="2.5" stroke-linecap="round" stroke-linejoin="round"/>
<path d="M509.97 158.91L439.48 199.14" stroke="#3A3A3A" stroke-width="2.5" stroke-linecap="round" stroke-linejoin="round"/>
<path d="M509.97 336.51L439.48 376.73" stroke="#3A3A3A" stroke-width="2.5" stroke-linecap="round" stroke-linejoin="round"/>
<path d="M481.34 298.61C481.34 300.51 480.67 302.61 479.59 304.47C478.51 306.33 477.03 307.94 475.4 308.88C472.14 310.77 469.48 309.23 469.48 305.46C469.48 301.69 472.14 297.08 475.4 295.19C478.67 293.3 481.33 294.83 481.33 298.61H481.34Z" stroke="#3A3A3A" stroke-width="2.5" stroke-linecap="round" stroke-linejoin="round"/>
<path d="M465.48 325.8L484.64 314.74C487.84 312.89 490.43 307.93 490.43 303.67V283.62C490.43 279.35 487.84 277.39 484.64 279.24L465.48 290.31C462.28 292.15 459.68 297.11 459.68 301.38V321.43C459.68 325.7 462.28 327.66 465.48 325.81V325.8Z" stroke="#3A3A3A" stroke-width="2.5" stroke-linecap="round" stroke-linejoin="round"/>
<path d="M410.57 301.42L405.52 298.5V304.96L410.57 307.88V301.42Z" fill="white"/>
<path d="M402.14 296.55L397.09 293.63V300.09L402.14 303.01V296.55Z" fill="#C2C7CC"/>
<path d="M393.71 291.68L388.66 288.77V295.22L393.71 298.14V291.68Z" fill="white"/>
<path d="M385.28 286.82L380.23 283.9V290.36L385.28 293.27V286.82Z" fill="white"/>
<path d="M376.85 281.95L371.98 279.14V285.59L376.85 288.41V281.95Z" fill="#C2C7CC"/>
<path d="M371.98 289.49V295.95L376.85 298.76V292.31L371.98 289.49Z" fill="white"/>
<path d="M380.23 300.71L385.28 303.63V297.17L380.23 294.26V300.71Z" fill="white"/>
<path d="M388.66 305.58L393.71 308.5V302.04L388.66 299.12V305.58Z" fill="#C2C7CC"/>
<path d="M397.09 310.45L402.14 313.37V306.91L397.09 303.99V310.45Z" fill="white"/>
<path d="M405.52 315.31L410.57 318.23V311.77L405.52 308.86V315.31Z" fill="#C2C7CC"/>
<path d="M418.82 312.64V306.18L413.95 303.37V309.82L418.82 312.64Z" fill="#C2C7CC"/>
<path d="M418.82 316.54L413.95 313.72V320.18L418.82 323V316.54Z" fill="white"/>
<path d="M410.57 262.92L405.52 260V266.46L410.57 269.38V262.92Z" fill="white"/>
<path d="M402.14 258.05L397.09 255.13V261.59L402.14 264.51V258.05Z" fill="#C2C7CC"/>
<path d="M393.71 253.18L388.66 250.27V256.72L393.71 259.64V253.18Z" fill="white"/>
<path d="M385.28 248.32L380.23 245.4V251.86L385.28 254.78V248.32Z" fill="white"/>
<path d="M376.85 243.45L371.98 240.64V247.09L376.85 249.91V243.45Z" fill="#C2C7CC"/>
<path d="M371.98 250.99V257.45L376.85 260.26V253.81L371.98 250.99Z" fill="white"/>
<path d="M380.23 262.21L385.28 265.13V258.67L380.23 255.76V262.21Z" fill="#C2C7CC"/>
<path d="M388.66 267.08L393.71 270V263.54L388.66 260.62V267.08Z" fill="white"/>
<path d="M397.09 271.95L402.14 274.87V268.41L397.09 265.49V271.95Z" fill="white"/>
<path d="M405.52 276.81L410.57 279.73V273.27L405.52 270.36V276.81Z" fill="#C2C7CC"/>
<path d="M418.82 274.14V267.68L413.95 264.87V271.33L418.82 274.14Z" fill="white"/>
<path d="M418.82 278.04L413.95 275.22V281.68L418.82 284.5V278.04Z" fill="white"/>
<path d="M419.51 396.23C422.25 402.03 419.67 408.48 411.78 413.03C405.92 416.42 398.25 418.11 390.58 418.11C382.91 418.11 375.23 416.42 369.38 413.03C361.49 408.48 358.92 402.03 361.64 396.23L367.18 383.3H367.2C366.72 384.4 366.5 385.52 366.5 386.63C366.5 390.21 368.82 393.75 373.54 396.48C382.96 401.92 398.23 401.92 407.62 396.48C412.17 393.86 414.53 390.45 414.68 386.99C414.72 385.9 414.55 384.78 414.16 383.71L419.52 396.24L419.51 396.23Z" fill="#C2C7CC"/>
<path d="M367.19 383.31H367.17L390.57 328.63C390.57 328.63 414.09 383.58 414.14 383.72C414.56 384.78 414.7 385.9 414.66 387C414.51 390.46 412.15 393.87 407.6 396.49C398.2 401.93 382.94 401.93 373.52 396.49C368.8 393.77 366.48 390.22 366.48 386.64C366.48 385.53 366.71 384.41 367.18 383.31H367.19Z" fill="white"/>
<path d="M413.98 383.3L390.58 328.62L361.64 396.23C358.92 402.03 361.49 408.48 369.38 413.03C375.23 416.42 382.89 418.11 390.58 418.11C398.27 418.11 405.92 416.42 411.78 413.03C419.67 408.48 422.25 402.03 419.51 396.23L414.15 383.7" stroke="#3A3A3A" stroke-width="2.5" stroke-linecap="round" stroke-linejoin="round"/>
<path d="M413.98 383.3C414.04 383.43 414.1 383.57 414.15 383.71C414.57 384.77 414.71 385.89 414.67 386.99C414.52 390.45 412.16 393.86 407.61 396.48C398.21 401.92 382.95 401.92 373.53 396.48C368.81 393.76 366.49 390.21 366.49 386.63C366.49 385.52 366.72 384.4 367.19 383.3" stroke="#3A3A3A" stroke-width="2.5" stroke-linecap="round" stroke-linejoin="round"/>
</svg>
