<svg width="800" height="800" viewBox="0 0 800 800" fill="none" xmlns="http://www.w3.org/2000/svg">
<path d="M43.6899 461.13V521.89H43.7399C44.4399 534 53.0199 545.61 66.2499 554.52C138.17 602.93 217.87 642.48 292.85 685.98C327.47 706.06 358.15 728.2 399.57 728.2C440.99 728.2 471.69 706.05 506.29 685.98C581.82 642.16 657.36 598.34 732.89 554.52C738.33 551.43 743.84 547.44 747.84 542.57C753.84 535.27 756.3 528.35 756.27 521.89H756.29V461.13H43.6899Z" fill="white" stroke="#373A3A" stroke-width="2.5" stroke-linecap="round" stroke-linejoin="round"/>
<path d="M733.2 488.71C657.6 532.49 582 576.27 506.4 620.05C471.75 640.11 441 662.24 399.58 662.24C358.13 662.24 327.42 640.12 292.76 620.05C217.71 576.59 137.94 537.09 65.9601 488.71C42.4201 472.89 33.6001 448.55 57.6001 427.98C74.6801 413.34 98.2501 403.71 117.54 392.63C164.91 365.41 212.28 338.19 259.66 310.97C298.85 288.45 341 254.39 387.9 250.43C423.81 247.4 450.87 260.03 481.07 277.39C562.96 324.44 646.1 369.81 726.93 418.66C748.38 431.63 768.55 452.01 748.17 476.77C744.17 481.63 738.64 485.62 733.2 488.71Z" fill="white" stroke="#373A3A" stroke-width="2.5" stroke-linecap="round" stroke-linejoin="round"/>
<path d="M437.97 517.21V540.67L417.65 552.39V528.94L437.97 517.21Z" fill="white" stroke="#373A3A" stroke-width="2.5" stroke-miterlimit="10"/>
<path d="M437.97 517.21L417.65 528.94L397.34 517.21L417.65 505.49L437.97 517.21Z" fill="white"/>
<path d="M417.65 528.94V552.39L397.34 540.67V517.21L417.65 528.94Z" fill="white"/>
<path d="M397.34 517.21L417.65 505.49L437.97 517.21L417.65 528.94L397.34 517.21Z" stroke="#3A3A3A" stroke-width="2.5" stroke-linecap="round" stroke-linejoin="round"/>
<path d="M417.65 528.94V552.39" stroke="#3A3A3A" stroke-width="2.5" stroke-linecap="round" stroke-linejoin="round"/>
<path d="M397.34 517.21V540.67L417.65 552.39L437.97 540.67V517.21" stroke="#3A3A3A" stroke-width="2.5" stroke-linecap="round" stroke-linejoin="round"/>
<path d="M487.58 547.68V566.53L471.26 575.95V557.11L487.58 547.68Z" fill="#3A3A3A"/>
<path d="M487.58 547.68L471.26 557.11L454.93 547.68L471.26 538.26L487.58 547.68Z" fill="white"/>
<path d="M471.26 557.11V575.95L454.93 566.53V547.68L471.26 557.11Z" fill="white"/>
<path d="M454.93 547.68L471.26 538.26L487.58 547.68L471.26 557.11L454.93 547.68Z" stroke="#3A3A3A" stroke-width="2.5" stroke-linecap="round" stroke-linejoin="round"/>
<path d="M471.26 557.11V575.95" stroke="#3A3A3A" stroke-width="2.5" stroke-linecap="round" stroke-linejoin="round"/>
<path d="M454.93 547.68V566.53L471.26 575.95L487.58 566.53V547.68" stroke="#3A3A3A" stroke-width="2.5" stroke-linecap="round" stroke-linejoin="round"/>
<path d="M395.03 571.75V590.59L378.7 600.02V581.17L395.03 571.75Z" fill="#969A9E"/>
<path d="M395.03 571.75L378.7 581.17L362.38 571.75L378.7 562.32L395.03 571.75Z" fill="white"/>
<path d="M378.7 581.17V600.02L362.38 590.59V571.75L378.7 581.17Z" fill="white"/>
<path d="M362.38 571.75L378.7 562.32L395.03 571.75L378.7 581.17L362.38 571.75Z" stroke="#3A3A3A" stroke-width="2.5" stroke-linecap="round" stroke-linejoin="round"/>
<path d="M378.7 581.17V600.02" stroke="#3A3A3A" stroke-width="2.5" stroke-linecap="round" stroke-linejoin="round"/>
<path d="M362.38 571.75V590.59L378.7 600.02L395.03 590.59V571.75" stroke="#3A3A3A" stroke-width="2.5" stroke-linecap="round" stroke-linejoin="round"/>
<path d="M362.48 526.44V555.64L337.2 570.23V541.04L362.48 526.44Z" fill="white" stroke="#373A3A" stroke-width="2.5" stroke-miterlimit="10"/>
<path d="M362.48 526.44L337.2 541.04L311.91 526.44L337.2 511.85L362.48 526.44Z" fill="#FF8385" stroke="#373A3A" stroke-width="2.5" stroke-miterlimit="10"/>
<path d="M337.2 541.04V570.23L311.91 555.64V526.44L337.2 541.04Z" fill="white" stroke="#373A3A" stroke-width="2.5" stroke-miterlimit="10"/>
<path d="M311.91 526.44L337.2 511.85L362.48 526.44L337.2 541.04L311.91 526.44Z" stroke="#3A3A3A" stroke-width="2.5" stroke-linecap="round" stroke-linejoin="round"/>
<path d="M337.2 541.04V570.23" stroke="#3A3A3A" stroke-width="2.5" stroke-linecap="round" stroke-linejoin="round"/>
<path d="M311.91 526.44V555.64L337.2 570.23L362.48 555.64V526.44" stroke="#3A3A3A" stroke-width="2.5" stroke-linecap="round" stroke-linejoin="round"/>
<path d="M449.02 586.51V622.29L418.04 640.18V604.4L449.02 586.51Z" fill="#3A3A3A"/>
<path d="M449.02 586.51L418.04 604.4L387.05 586.51L418.04 568.63L449.02 586.51Z" fill="#FF8385" stroke="#373A3A" stroke-width="2.5" stroke-miterlimit="10"/>
<path d="M418.04 604.4V640.18L387.05 622.29V586.51L418.04 604.4Z" fill="white"/>
<path d="M387.05 586.51L418.04 568.63L449.02 586.51L418.04 604.4L387.05 586.51Z" stroke="#3A3A3A" stroke-width="2.5" stroke-linecap="round" stroke-linejoin="round"/>
<path d="M418.04 604.4V640.18" stroke="#3A3A3A" stroke-width="2.5" stroke-linecap="round" stroke-linejoin="round"/>
<path d="M387.05 586.51V622.29L418.04 640.18L449.02 622.29V586.51" stroke="#3A3A3A" stroke-width="2.5" stroke-linecap="round" stroke-linejoin="round"/>
<path d="M338.31 560.38V593.31L309.79 609.77V576.84L338.31 560.38Z" fill="#3A3A3A"/>
<path d="M338.31 560.38L309.79 576.84L281.27 560.38L309.79 543.91L338.31 560.38Z" fill="white"/>
<path d="M309.79 576.84V609.77L281.27 593.31V560.38L309.79 576.84Z" fill="white"/>
<path d="M281.27 560.38L309.79 543.91L338.31 560.38L309.79 576.84L281.27 560.38Z" stroke="#3A3A3A" stroke-width="2.5" stroke-linecap="round" stroke-linejoin="round"/>
<path d="M309.79 576.84V609.77" stroke="#3A3A3A" stroke-width="2.5" stroke-linecap="round" stroke-linejoin="round"/>
<path d="M281.27 560.38V593.31L309.79 609.77L338.31 593.31V560.38" stroke="#3A3A3A" stroke-width="2.5" stroke-linecap="round" stroke-linejoin="round"/>
<path d="M410.27 480.17V503.63L389.95 515.35V491.9L410.27 480.17Z" fill="#3A3A3A"/>
<path d="M410.27 480.17L389.95 491.9L369.64 480.17L389.95 468.45L410.27 480.17Z" fill="white"/>
<path d="M389.95 491.9V515.35L369.64 503.63V480.17L389.95 491.9Z" fill="white"/>
<path d="M369.64 480.17L389.95 468.45L410.27 480.17L389.95 491.9L369.64 480.17Z" stroke="#3A3A3A" stroke-width="2.5" stroke-linecap="round" stroke-linejoin="round"/>
<path d="M389.95 491.9V515.35" stroke="#3A3A3A" stroke-width="2.5" stroke-linecap="round" stroke-linejoin="round"/>
<path d="M369.64 480.17V503.63L389.95 515.35L410.27 503.63V480.17" stroke="#3A3A3A" stroke-width="2.5" stroke-linecap="round" stroke-linejoin="round"/>
<path d="M337.41 525.1V524.64" stroke="#3A3A3A" stroke-width="2.5" stroke-linecap="round" stroke-linejoin="round"/>
<path d="M337.41 512.09V451.18" stroke="#3A3A3A" stroke-width="2.5" stroke-linecap="round" stroke-linejoin="round"/>
<path d="M337.41 444.91V444.44" stroke="#3A3A3A" stroke-width="2.5" stroke-linecap="round" stroke-linejoin="round"/>
<path d="M471.6 546.55V546.08" stroke="#3A3A3A" stroke-width="2.5" stroke-linecap="round" stroke-linejoin="round"/>
<path d="M471.6 533.34V498.74" stroke="#3A3A3A" stroke-width="2.5" stroke-linecap="round" stroke-linejoin="round"/>
<path d="M471.6 492.37V491.9" stroke="#3A3A3A" stroke-width="2.5" stroke-linecap="round" stroke-linejoin="round"/>
<path d="M418.29 516.52V516.06" stroke="#3A3A3A" stroke-width="2.5" stroke-linecap="round" stroke-linejoin="round"/>
<path d="M418.29 502.55V422.44" stroke="#3A3A3A" stroke-width="2.5" stroke-linecap="round" stroke-linejoin="round"/>
<path d="M418.29 415.68V415.22" stroke="#3A3A3A" stroke-width="2.5" stroke-linecap="round" stroke-linejoin="round"/>
<path d="M337.08 444.3C340.488 444.3 343.25 441.538 343.25 438.13C343.25 434.722 340.488 431.96 337.08 431.96C333.673 431.96 330.91 434.722 330.91 438.13C330.91 441.538 333.673 444.3 337.08 444.3Z" fill="white" stroke="#3A3A3A" stroke-width="2.5" stroke-linecap="round" stroke-linejoin="round"/>
<path d="M463.4 471.38L477.73 463.11" stroke="#3A3A3A" stroke-width="2.5" stroke-linecap="round" stroke-linejoin="round"/>
<path d="M463.4 478.07L477.73 469.8" stroke="#3A3A3A" stroke-width="2.5" stroke-linecap="round" stroke-linejoin="round"/>
<path d="M463.4 484.76L472.63 479.43" stroke="#3A3A3A" stroke-width="2.5" stroke-linecap="round" stroke-linejoin="round"/>
<path d="M403 380.35V397.07L399.65 395.13V381.52L396.76 379.84V376.74L403 380.35Z" fill="#3A3A3A"/>
<path d="M413.18 386.22V402.94L409.83 401.01V387.39L406.93 385.72V382.62L413.18 386.22Z" fill="#3A3A3A"/>
<path d="M420.77 406.58C419.83 405.35 419.1 403.94 418.57 402.33C418.04 400.73 417.77 399.02 417.77 397.23C417.77 395.44 418.03 394.03 418.57 393.04C419.1 392.05 419.84 391.48 420.77 391.34C421.71 391.2 422.78 391.47 423.98 392.16C425.18 392.85 426.25 393.81 427.19 395.04C428.13 396.27 428.86 397.68 429.39 399.29C429.92 400.89 430.19 402.6 430.19 404.4C430.19 406.2 429.92 407.59 429.39 408.59C428.86 409.58 428.12 410.15 427.19 410.29C426.25 410.43 425.18 410.16 423.98 409.47C422.78 408.78 421.71 407.82 420.77 406.59V406.58ZM426.06 406.08C426.56 405.49 426.81 404.29 426.81 402.46C426.81 400.63 426.56 399.13 426.06 397.96C425.56 396.79 424.86 395.96 423.98 395.45C423.11 394.95 422.43 394.99 421.92 395.58C421.42 396.17 421.16 397.37 421.16 399.2C421.16 401.03 421.41 402.53 421.92 403.7C422.42 404.87 423.11 405.7 423.98 406.2C424.86 406.71 425.56 406.67 426.06 406.09V406.08Z" fill="#3A3A3A"/>
<path d="M439.35 401.33V418.05L436 416.11V402.5L433.1 400.83V397.72L439.35 401.33Z" fill="#3A3A3A"/>
<path d="M633.95 499.02V511.05L574.71 545.25V533.22L633.95 499.02Z" fill="#969A9E"/>
<path d="M633.95 499.02L574.71 533.22L515.48 499.02L574.71 464.82L633.95 499.02ZM574.71 511.41L596.18 499.02L574.71 486.63L553.25 499.02L574.71 511.41Z" fill="white"/>
<path d="M596.18 499.02L574.71 511.41L553.25 499.02L574.71 486.63L596.18 499.02Z" fill="#FF8385"/>
<path d="M574.71 533.22V545.25L515.48 511.05V499.02L574.71 533.22Z" fill="#C2C7CC"/>
<path d="M515.48 499.02L574.71 464.82L633.95 499.02L574.71 533.22L515.48 499.02Z" stroke="#3A3A3A" stroke-width="2.5" stroke-linecap="round" stroke-linejoin="round"/>
<path d="M553.25 499.02L574.71 486.63L596.18 499.02L574.71 511.41L553.25 499.02Z" stroke="#3A3A3A" stroke-width="2.5" stroke-linecap="round" stroke-linejoin="round"/>
<path d="M633.95 511.05L574.71 545.25L515.48 511.05" stroke="#3A3A3A" stroke-width="2.5" stroke-linecap="round" stroke-linejoin="round"/>
<path d="M633.95 511.05V499.02" stroke="#3A3A3A" stroke-width="2.5" stroke-linecap="round" stroke-linejoin="round"/>
<path d="M515.48 511.05V499.02" stroke="#3A3A3A" stroke-width="2.5" stroke-linecap="round" stroke-linejoin="round"/>
<path d="M592.06 535.25L607.21 543.98" stroke="#3A3A3A" stroke-width="2.5" stroke-linecap="round" stroke-linejoin="round"/>
<path d="M610.21 524.76L625.57 533.63" stroke="#3A3A3A" stroke-width="2.5" stroke-linecap="round" stroke-linejoin="round"/>
<path d="M626.2 515.53L641.35 524.27" stroke="#3A3A3A" stroke-width="2.5" stroke-linecap="round" stroke-linejoin="round"/>
<path d="M592.06 474.83L607.21 466.09" stroke="#3A3A3A" stroke-width="2.5" stroke-linecap="round" stroke-linejoin="round"/>
<path d="M607.61 483.26L622.76 474.51" stroke="#3A3A3A" stroke-width="2.5" stroke-linecap="round" stroke-linejoin="round"/>
<path d="M626.2 494.55L641.35 485.8" stroke="#3A3A3A" stroke-width="2.5" stroke-linecap="round" stroke-linejoin="round"/>
<path d="M557.37 535.25L542.22 543.98" stroke="#3A3A3A" stroke-width="2.5" stroke-linecap="round" stroke-linejoin="round"/>
<path d="M538.44 524.31L522.71 533.39" stroke="#3A3A3A" stroke-width="2.5" stroke-linecap="round" stroke-linejoin="round"/>
<path d="M523.23 515.53L508.08 524.27" stroke="#3A3A3A" stroke-width="2.5" stroke-linecap="round" stroke-linejoin="round"/>
<path d="M557.37 474.83L542.22 466.09" stroke="#3A3A3A" stroke-width="2.5" stroke-linecap="round" stroke-linejoin="round"/>
<path d="M539.48 484.27L524.32 475.52" stroke="#3A3A3A" stroke-width="2.5" stroke-linecap="round" stroke-linejoin="round"/>
<path d="M523.23 494.55L508.08 485.8" stroke="#3A3A3A" stroke-width="2.5" stroke-linecap="round" stroke-linejoin="round"/>
<path d="M574.71 533.22V545.25" stroke="#3A3A3A" stroke-width="2.5" stroke-linecap="round" stroke-linejoin="round"/>
<path d="M257.67 506.64L287.26 489.56C283.02 499.45 276.63 506.87 268.62 511.49L239.51 528.3C247.3 523.66 253.52 516.35 257.67 506.65V506.64Z" fill="#373A3A"/>
<path d="M242.47 479.98L247.22 491.3L262.53 488.83L268.66 485.3L269.45 487.94L287.26 489.56L257.67 506.64L239.86 505.02L233.81 484.94L242.47 479.98Z" fill="#5F646B"/>
<path d="M233.81 484.94L233.88 485.18C233.82 485.18 233.76 485.18 233.69 485.17C233.73 485.1 233.77 485.02 233.8 484.94H233.81Z" fill="white"/>
<path d="M209.61 477.22C218.19 482.17 226.34 484.75 233.7 485.17C224.48 503.48 203.88 508.08 180.02 494.3C149.43 476.65 124.23 435.01 121.44 398.91C121.26 396.72 121.18 394.54 121.18 392.39C121.18 389.37 121.35 386.5 121.69 383.78L151.28 366.7C150.95 369.42 150.77 372.29 150.77 375.31C150.77 412.77 177.17 458.49 209.61 477.22Z" fill="#C2C7CC"/>
<path d="M144.94 351.6L151.27 366.71L121.68 383.79L112.14 361.03L97.5898 363.37L120.73 351.41L125.88 368.5C130 359.74 136.63 353.95 144.94 351.59V351.6Z" fill="#5F646B"/>
<path d="M239.86 505.02L233.88 485.18C233.82 485.18 233.76 485.18 233.69 485.17C224.47 503.48 203.87 508.08 180.01 494.3C149.42 476.65 124.22 435.01 121.43 398.91C121.25 396.72 121.17 394.54 121.17 392.39C121.17 389.37 121.34 386.5 121.68 383.78L112.14 361.02L97.59 363.36C96.88 367.97 96.52 372.91 96.52 378.14C96.52 381.24 96.65 384.38 96.9 387.55C100.91 438.74 136.65 497.73 180.01 522.75C203.03 536.04 223.91 537.28 239.02 528.55L239.5 528.27C247.29 523.63 253.51 516.32 257.66 506.62L239.85 505L239.86 505.02Z" fill="white"/>
<path d="M144.94 351.6L151.27 366.71C150.94 369.43 150.76 372.3 150.76 375.32C150.76 412.78 177.16 458.5 209.6 477.23C218.18 482.18 226.33 484.76 233.69 485.18C233.75 485.18 233.81 485.19 233.88 485.19" stroke="#373A3A" stroke-width="2.5" stroke-linecap="round" stroke-linejoin="round"/>
<path d="M268.66 485.3L269.45 487.94L287.26 489.56C283.02 499.45 276.63 506.87 268.62 511.49" stroke="#373A3A" stroke-width="2.5" stroke-linecap="round" stroke-linejoin="round"/>
<path d="M239.03 528.57C223.91 537.3 203.04 536.06 180.02 522.77C136.67 497.74 100.99 438.75 96.9098 387.57C96.6598 384.4 96.5298 381.26 96.5298 378.16C96.5298 372.92 96.8898 367.99 97.5998 363.38L112.15 361.04L121.69 383.8C121.36 386.52 121.18 389.39 121.18 392.41C121.18 394.56 121.27 396.74 121.44 398.93C124.3 435.02 149.43 476.66 180.02 494.32C203.89 508.1 224.51 503.51 233.7 485.19C233.74 485.12 233.78 485.04 233.81 484.96L239.86 505.04L257.67 506.66C253.51 516.36 247.29 523.67 239.51 528.31" stroke="#373A3A" stroke-width="2.5" stroke-linecap="round" stroke-linejoin="round"/>
<path d="M239.03 528.57L268.62 511.49" stroke="#373A3A" stroke-width="2.5" stroke-linecap="round" stroke-linejoin="round"/>
<path d="M121.68 383.79L151.27 366.71" stroke="#373A3A" stroke-width="2.5" stroke-linecap="round" stroke-linejoin="round"/>
<path d="M97.5898 363.37L120.73 351.42" stroke="#373A3A" stroke-width="2.5" stroke-linecap="round" stroke-linejoin="round"/>
<path d="M233.81 484.94L242.47 479.98" stroke="#373A3A" stroke-width="2.5" stroke-linecap="round" stroke-linejoin="round"/>
<path d="M257.67 506.64L287.26 489.56" stroke="#373A3A" stroke-width="2.5" stroke-linecap="round" stroke-linejoin="round"/>
<path d="M154.42 405.98C153.79 406.77 153.25 407.64 152.78 408.58C151.94 410.26 151.36 412.16 151.04 414.22C149.44 424.11 153.47 437.76 161.99 448.88C167.24 455.73 173.28 460.41 178.95 462.56C180.93 463.31 182.86 463.76 184.71 463.88C188.94 464.16 192.69 462.72 195.35 459.38C197.41 456.79 198.59 453.33 198.95 449.37C199.83 439.68 195.79 426.96 187.77 416.49C183.1 410.39 177.79 406 172.68 403.6C165.45 400.19 158.59 400.74 154.42 405.98ZM131 388.36L138.96 392.41L144.12 385.93L141.11 375.66L149.04 372.61L155.49 381.09L155.76 381.45L164.74 382.49L166.65 374.64L176.96 379.8L179.87 390.05L189.25 398.2L195.34 395.78L204.08 407.18L202.08 414.93L208.27 427.09L216.22 431.01L220.06 444.3L213.89 446.59L214.53 458.11L221.31 466.88L218.78 476.98L210.82 472.94L205.66 479.41L206.95 483.8L208.68 489.68L200.75 492.73L194.02 483.89L185.04 482.85L183.14 490.69L172.83 485.53L169.91 475.28L160.53 467.12L154.44 469.54L145.69 458.14L147.7 450.39L141.51 438.23L133.56 434.3L129.73 421.02L135.89 418.73L135.25 407.21L128.48 398.44L131.01 388.34L131 388.36Z" fill="white"/>
<path d="M131 388.36L138.95 392.41L144.11 385.93L142.72 381.18L131 388.36Z" fill="white"/>
<path d="M141.1 375.67L149.03 372.61L155.48 381.09H155.49L155.76 381.45L164.74 382.49L166.64 374.64L177.28 368.61L170.88 360.22L162.96 363.27L141.1 375.67Z" fill="#D7DCE0"/>
<path d="M151.05 414.22C149.45 424.11 153.48 437.76 162 448.88C167.25 455.73 173.29 460.41 178.96 462.56C180.94 463.31 182.87 463.76 184.72 463.88C188.95 464.16 192.7 462.72 195.36 459.38C197.42 456.79 198.6 453.33 198.96 449.37C193.84 446.96 188.54 442.58 183.86 436.48C175.84 426.01 171.8 413.3 172.69 403.6C165.46 400.19 158.6 400.74 154.43 405.98C153.8 406.77 153.26 407.64 152.79 408.58C151.95 410.26 151.37 412.16 151.05 414.22Z" fill="#3A3A3A"/>
<path d="M177.28 368.61L166.64 374.64L176.95 379.81L198.8 367.41L188.5 362.25L177.28 368.61Z" fill="white"/>
<path d="M176.95 379.81L179.86 390.06L189.25 398.21L195.34 395.79L217.18 383.4L211.09 385.82L201.72 377.67L198.8 367.41L176.95 379.81Z" fill="#D7DCE0"/>
<path d="M195.34 395.79L204.08 407.19L225.93 394.8L217.18 383.4L195.34 395.79Z" fill="white" stroke="#373A3A" stroke-width="2.5" stroke-miterlimit="10"/>
<path d="M204.08 407.19L202.07 414.94L208.27 427.11L216.22 431.02L238.07 418.62L230.12 414.71L223.92 402.54L225.93 394.8L204.08 407.19Z" fill="#D7DCE0"/>
<path d="M213.89 446.6L214.54 458.13L221.32 466.89L243.17 454.5L236.39 445.73L235.82 435.38L220.06 444.31L213.89 446.6Z" fill="#D7DCE0"/>
<path d="M216.22 431.02L220.06 444.31L241.91 431.92L238.07 418.62L216.22 431.02Z" fill="white" stroke="#373A3A" stroke-width="2.5" stroke-miterlimit="10"/>
<path d="M221.32 466.89L218.78 476.99L240.64 464.6L243.17 454.5L221.32 466.89Z" fill="white" stroke="#373A3A" stroke-width="2.5" stroke-miterlimit="10"/>
<path d="M228.78 471.32L218.78 476.99L210.82 472.95L205.67 479.42L206.96 483.81L206.95 483.82L208.68 489.69L230.53 477.29L228.81 471.42L228.78 471.32Z" fill="#D7DCE0"/>
<path d="M131 388.36L138.95 392.41L144.11 385.93L141.1 375.67L149.03 372.61L155.48 381.09H155.49L155.76 381.45L164.74 382.49L166.64 374.64L176.95 379.81L179.86 390.06L189.25 398.21L195.34 395.79L204.08 407.19L202.07 414.94L208.27 427.11L216.22 431.02L220.06 444.31L213.89 446.6L214.54 458.13L221.32 466.89L218.78 476.99L210.82 472.95L205.67 479.42L206.96 483.81L206.95 483.82L208.68 489.69L200.74 492.74L194.02 483.91L185.04 482.87L183.14 490.71L172.83 485.55L169.91 475.3L160.53 467.14L154.44 469.57L145.7 458.16L147.71 450.42L141.51 438.26L133.56 434.33L129.73 421.05L135.88 418.75L135.24 407.23L128.46 398.46L131 388.36Z" stroke="#3A3A3A" stroke-width="2.5" stroke-linecap="round" stroke-linejoin="round"/>
<path d="M172.68 403.59C165.45 400.18 158.59 400.73 154.42 405.97C153.79 406.76 153.25 407.63 152.78 408.57C151.94 410.25 151.36 412.15 151.04 414.21C149.44 424.1 153.47 437.75 161.99 448.87C167.24 455.72 173.28 460.4 178.95 462.55C180.93 463.3 182.86 463.75 184.71 463.87C188.94 464.15 192.69 462.71 195.35 459.37C197.41 456.78 198.59 453.32 198.95 449.36C199.83 439.67 195.79 426.95 187.77 416.48C183.1 410.38 177.79 406 172.68 403.59Z" stroke="#3A3A3A" stroke-width="2.5" stroke-linecap="round" stroke-linejoin="round"/>
<path d="M172.68 403.59C171.79 413.3 175.83 426.01 183.85 436.48C188.54 442.58 193.83 446.96 198.95 449.37" stroke="#3A3A3A" stroke-width="2.5" stroke-linecap="round" stroke-linejoin="round"/>
<path d="M228.78 471.32L228.81 471.42L230.53 477.29L208.68 489.69" stroke="#3A3A3A" stroke-width="2.5" stroke-linecap="round" stroke-linejoin="round"/>
<path d="M177.34 368.69L170.88 360.22L162.96 363.27L141.1 375.67" stroke="#3A3A3A" stroke-width="2.5" stroke-linecap="round" stroke-linejoin="round"/>
<path d="M220.06 444.31L241.91 431.92L238.07 418.62L230.12 414.71L223.92 402.54L225.93 394.8L217.18 383.4L211.09 385.82L201.72 377.67L198.8 367.41L188.5 362.25L166.64 374.64" stroke="#3A3A3A" stroke-width="2.5" stroke-linecap="round" stroke-linejoin="round"/>
<path d="M198.8 367.41L176.95 379.81" stroke="#3A3A3A" stroke-width="2.5" stroke-linecap="round" stroke-linejoin="round"/>
<path d="M217.18 383.4L195.34 395.79" stroke="#3A3A3A" stroke-width="2.5" stroke-linecap="round" stroke-linejoin="round"/>
<path d="M225.93 394.8L204.08 407.19" stroke="#3A3A3A" stroke-width="2.5" stroke-linecap="round" stroke-linejoin="round"/>
<path d="M238.07 418.62L216.22 431.02" stroke="#3A3A3A" stroke-width="2.5" stroke-linecap="round" stroke-linejoin="round"/>
<path d="M243.17 454.5L221.32 466.89" stroke="#3A3A3A" stroke-width="2.5" stroke-linecap="round" stroke-linejoin="round"/>
<path d="M235.82 435.38L236.39 445.73L243.17 454.5L240.64 464.6L218.78 476.99" stroke="#3A3A3A" stroke-width="2.5" stroke-linecap="round" stroke-linejoin="round"/>
<path d="M131 388.36L142.72 381.18" stroke="#3A3A3A" stroke-width="2.5" stroke-linecap="round" stroke-linejoin="round"/>
<path d="M262.95 463.02C258.13 412.33 222.78 354.63 180.02 329.95C157.27 316.81 136.61 315.45 121.53 323.86L121.01 324.16C113.09 328.73 106.75 336.03 102.51 345.77L119.49 347.31L125.87 368.51C129.99 359.75 136.62 353.96 144.93 351.6C154.73 348.83 166.87 350.84 180.01 358.42C210.1 375.79 235.01 416.39 238.44 452.08C238.72 454.86 238.85 457.62 238.85 460.33C238.85 463.69 238.64 466.88 238.22 469.87L247.21 491.29L262.51 488.83C263.16 484.37 263.5 479.61 263.5 474.57C263.5 470.78 263.31 466.92 262.93 463.02H262.95Z" fill="white"/>
<path d="M262.95 463.02C258.13 412.33 222.78 354.63 180.02 329.95C157.27 316.81 136.61 315.45 121.53 323.86L149.86 307.51C165.04 298.31 186.21 299.36 209.62 312.87C255.66 339.46 293.11 404.33 293.11 457.49C293.11 462.53 292.78 467.29 292.12 471.75L262.53 488.83C263.18 484.37 263.52 479.61 263.52 474.57C263.52 470.78 263.33 466.92 262.95 463.02Z" fill="#DAE0E5"/>
<path d="M121.53 323.86L121.01 324.16C121.18 324.05 121.36 323.95 121.53 323.86Z" fill="white"/>
<path d="M242.47 479.98L238.23 469.88C238.64 466.88 238.86 463.69 238.86 460.34C238.86 457.63 238.72 454.87 238.45 452.09C234.95 416.41 210.11 375.8 180.02 358.43C166.89 350.85 154.74 348.83 144.94 351.61C136.63 353.96 130 359.76 125.88 368.52L119.5 347.32L102.52 345.78C106.76 336.04 113.18 328.88 121.02 324.17C121.19 324.07 121.37 323.96 121.54 323.87C136.67 315.56 157.28 316.82 180.03 329.96C222.79 354.64 258.1 412.35 262.96 463.03C263.33 466.92 263.53 470.78 263.53 474.58C263.53 479.63 263.19 484.38 262.54 488.84L247.24 491.3L242.49 479.98H242.47Z" stroke="#373A3A" stroke-width="2.5" stroke-linecap="round" stroke-linejoin="round"/>
<path d="M121.01 324.16L150.6 307.07" stroke="#373A3A" stroke-width="2.5" stroke-linecap="round" stroke-linejoin="round"/>
<path d="M262.53 488.83L292.12 471.75C292.77 467.29 293.11 462.53 293.11 457.49C293.11 404.33 255.66 339.46 209.62 312.87C186.22 299.36 165.04 298.3 149.86 307.51C149.43 307.77 149 308.05 148.58 308.33" stroke="#373A3A" stroke-width="2.5" stroke-linecap="round" stroke-linejoin="round"/>
<path d="M685.18 218.24L437.12 75.0199C434.75 73.6499 432.57 73.5199 430.87 74.4399C428.72 75.5899 427.36 78.3799 427.36 82.3999V271.4L466.3 293.88C538.39 335.5 684.95 420.12 694.93 425.88V236.89C694.93 229.7 690.57 221.35 685.18 218.24Z" fill="white"/>
<path d="M445.02 65.95C446.73 64.94 448.98 65.02 451.45 66.44L699.51 209.66C704.9 212.77 709.26 221.12 709.26 228.29V443.28C709.26 447.18 707.98 449.93 705.94 451.14L691.62 459.72C693.66 458.51 694.94 455.76 694.94 451.86V236.88C694.94 229.69 690.58 221.34 685.19 218.23L437.13 75.01C434.76 73.64 432.58 73.51 430.88 74.43L445.02 65.95Z" fill="#3A3A3A"/>
<path d="M694.93 425.87V451.86C694.93 455.76 693.65 458.51 691.61 459.71C689.89 460.74 687.64 460.65 685.18 459.24L629.57 427.14L603.8 412.27L543.2 377.28L527.63 368.3L437.58 316.31C431.26 312.66 427.36 305.91 427.36 298.59V271.4L466.3 293.88C538.39 335.5 684.95 420.12 694.93 425.88V425.87Z" fill="#FF8385"/>
<path d="M644 241.48C647.33 243.4 650.03 248.09 650.03 251.94C650.03 255.79 647.34 257.36 644 255.44C640.65 253.51 637.96 248.82 637.96 244.97C637.96 241.12 640.65 239.55 644 241.48Z" fill="white"/>
<path d="M533.63 395.53C533.59 395.63 533.55 395.71 533.51 395.77L533.33 396.13L533.04 396.7C529.14 404.17 532.3 412.63 542.54 418.54C549.96 422.82 559.66 424.96 569.37 424.96C579.08 424.96 588.8 422.82 596.21 418.54C599.45 416.67 601.99 414.53 603.81 412.26L629.58 427.13C627.12 429.17 624.32 431.12 621.17 432.93C606.87 441.19 588.12 445.32 569.38 445.32C550.64 445.32 531.9 441.2 517.6 432.93C489 416.42 489 389.65 517.6 373.14C520.75 371.32 524.13 369.7 527.65 368.28L543.22 377.26L533.65 395.52L533.63 395.53Z" fill="#B4B9BF"/>
<path d="M543.2 377.27L603.8 412.26C601.98 414.52 599.44 416.66 596.2 418.54C588.78 422.82 579.08 424.96 569.36 424.96C559.64 424.96 549.95 422.82 542.53 418.54C532.3 412.62 529.13 404.17 533.03 396.7L533.32 396.13L533.5 395.77L533.62 395.53L543.19 377.27H543.2Z" fill="#3A3A3A"/>
<path d="M533.63 395.53L533.51 395.77C533.55 395.71 533.59 395.63 533.63 395.53Z" fill="white"/>
<path d="M527.64 368.29L437.59 316.3C431.27 312.65 427.37 305.9 427.37 298.58V82.3899C427.37 78.3799 428.73 75.5899 430.88 74.4299C432.57 73.5099 434.75 73.6399 437.13 75.0099L685.19 218.23C690.58 221.34 694.94 229.69 694.94 236.88V451.86C694.94 455.76 693.66 458.51 691.62 459.71C689.9 460.74 687.65 460.65 685.19 459.24L629.58 427.14L603.81 412.27L543.21 377.28L527.64 368.3V368.29Z" stroke="#3A3A3A" stroke-width="2.5" stroke-linecap="round" stroke-linejoin="round"/>
<path d="M427.37 271.39L466.31 293.87C538.4 335.49 684.96 420.11 694.94 425.87" stroke="#3A3A3A" stroke-width="2.5" stroke-linecap="round" stroke-linejoin="round"/>
<path d="M691.61 459.72L705.93 451.14C707.97 449.93 709.25 447.18 709.25 443.28V228.29C709.25 221.11 704.89 212.77 699.5 209.66L451.44 66.44C448.97 65.02 446.72 64.94 445.01 65.95L430.87 74.43L430.69 74.53" stroke="#3A3A3A" stroke-width="2.5" stroke-linecap="round" stroke-linejoin="round"/>
<path d="M533.63 395.53C533.59 395.63 533.55 395.71 533.51 395.77" stroke="#3A3A3A" stroke-width="2.5" stroke-linecap="round" stroke-linejoin="round"/>
<path d="M534.97 392.88C534.97 392.88 534.97 392.89 534.96 392.91C534.96 392.91 534.95 392.97 534.92 393.01" stroke="#3A3A3A" stroke-width="2.5" stroke-linecap="round" stroke-linejoin="round"/>
<path d="M535.11 392.64C535.11 392.64 535.14 392.58 535.14 392.56C535.14 392.56 535.1 392.66 534.99 392.89C534.96 392.92 534.95 392.96 534.92 393H534.91V393.03C534.87 393.11 534.81 393.22 534.74 393.38C534.73 393.39 534.71 393.41 534.71 393.44C534.52 393.8 533.95 394.93 533.64 395.54" stroke="#3A3A3A" stroke-width="2.5" stroke-linecap="round" stroke-linejoin="round"/>
<path d="M535.19 392.46L535.16 392.52C535.16 392.52 535.15 392.55 535.13 392.56" stroke="#3A3A3A" stroke-width="2.5" stroke-linecap="round" stroke-linejoin="round"/>
<path d="M543.2 377.27L533.63 395.53L533.51 395.77L533.33 396.13L533.04 396.7C529.14 404.17 532.3 412.63 542.54 418.54C549.96 422.82 559.66 424.96 569.37 424.96C579.08 424.96 588.8 422.82 596.21 418.54C599.45 416.67 601.99 414.53 603.81 412.26" stroke="#3A3A3A" stroke-width="2.5" stroke-linecap="round" stroke-linejoin="round"/>
<path d="M629.57 427.13C627.11 429.17 624.31 431.12 621.16 432.93C606.86 441.19 588.11 445.32 569.37 445.32C550.63 445.32 531.89 441.2 517.59 432.93C488.99 416.42 488.99 389.65 517.59 373.14C520.74 371.32 524.12 369.7 527.64 368.28" stroke="#3A3A3A" stroke-width="2.5" stroke-linecap="round" stroke-linejoin="round"/>
<path d="M446.92 181.64V193.42L449.68 195.02C450.85 195.7 451.76 196.61 452.4 197.75C453.05 198.89 453.36 200.21 453.36 201.69V219.18C453.36 224.78 454.7 229.84 457.38 234.35C460.06 238.86 463.99 242.61 469.18 245.61L474.04 248.41V236.63L472.53 235.76C470.53 234.6 469 233.11 467.97 231.29C466.94 229.47 466.42 227.4 466.42 225.08V209.62C466.42 206.34 465.97 203.63 465.08 201.5C464.19 199.38 462.77 197.4 460.81 195.56C462.76 195.98 464.19 195.65 465.08 194.55C465.97 193.46 466.42 191.27 466.42 187.98V172.52C466.42 170.2 466.94 168.73 467.97 168.1C469 167.47 470.52 167.73 472.53 168.9L474.04 169.77V157.98L469.18 155.18C463.99 152.18 460.06 151.4 457.38 152.82C454.71 154.24 453.36 157.75 453.36 163.35V180.84C453.36 182.33 453.04 183.27 452.4 183.67C451.76 184.07 450.86 183.94 449.68 183.26L446.92 181.66V181.64Z" fill="white"/>
<path d="M457.38 152.8C460.06 151.38 463.99 152.17 469.18 155.16L474.04 157.96L492.71 147.18L487.86 144.38C482.67 141.38 478.74 140.59 476.06 142.02C476 142.05 475.94 142.08 475.88 142.11L457.39 152.79L457.38 152.8Z" fill="#DAE0E5"/>
<path d="M474.03 236.61V248.4L492.7 237.62V225.84L474.03 236.61Z" fill="white"/>
<path d="M474.03 157.96V169.75L492.7 158.97V147.18L474.03 157.96Z" fill="#C2C7CC"/>
<path d="M491.2 224.96C489.19 223.8 487.67 222.32 486.64 220.49C485.61 218.67 485.09 216.6 485.09 214.28V198.83C485.09 195.55 484.64 192.84 483.75 190.71C482.86 188.59 481.44 186.61 479.48 184.77C481.43 185.19 482.86 184.86 483.75 183.76C484.64 182.67 485.09 180.48 485.09 177.19V163.37L474.04 169.75L472.53 168.88C470.53 167.72 469 167.46 467.97 168.08C466.94 168.71 466.42 170.18 466.42 172.5V187.96C466.42 191.24 465.97 193.43 465.08 194.53C464.19 195.63 462.77 195.97 460.81 195.54C462.76 197.38 464.19 199.36 465.08 201.48C465.97 203.61 466.42 206.32 466.42 209.6V225.06C466.42 227.37 466.94 229.44 467.97 231.27C469 233.09 470.52 234.58 472.53 235.74L474.04 236.61L492.71 225.83L491.21 224.95L491.2 224.96Z" fill="#3A3A3A"/>
<path d="M457.38 152.8C454.71 154.21 453.36 157.73 453.36 163.33V180.82C453.36 182.31 453.04 183.25 452.4 183.65C451.76 184.05 450.86 183.92 449.68 183.24L446.92 181.64V193.42L449.68 195.02C450.85 195.7 451.76 196.61 452.4 197.75C453.05 198.89 453.36 200.21 453.36 201.69V219.18C453.36 224.78 454.7 229.84 457.38 234.35C460.06 238.86 463.99 242.61 469.18 245.61L474.04 248.41V236.63L472.53 235.76C470.53 234.6 469 233.11 467.97 231.29C466.94 229.47 466.42 227.4 466.42 225.08V209.62C466.42 206.34 465.97 203.63 465.08 201.5C464.19 199.38 462.77 197.4 460.81 195.56C462.76 195.98 464.19 195.65 465.08 194.55C465.97 193.46 466.42 191.27 466.42 187.98V172.52C466.42 170.2 466.94 168.73 467.97 168.1C469 167.47 470.52 167.73 472.53 168.9L474.04 169.77V157.98L469.18 155.18C463.99 152.18 460.06 151.4 457.38 152.82V152.8Z" stroke="#3A3A3A" stroke-width="2.5" stroke-linecap="round" stroke-linejoin="round"/>
<path d="M474.03 248.4L492.7 237.62V225.84L491.2 224.96C489.19 223.8 487.67 222.32 486.64 220.49C485.61 218.67 485.09 216.6 485.09 214.28V198.83C485.09 195.55 484.64 192.84 483.75 190.71C482.86 188.59 481.44 186.61 479.48 184.77C481.43 185.19 482.86 184.86 483.75 183.76C484.64 182.67 485.09 180.48 485.09 177.19V163.37" stroke="#3A3A3A" stroke-width="2.5" stroke-linecap="round" stroke-linejoin="round"/>
<path d="M492.7 225.84L474.03 236.61" stroke="#3A3A3A" stroke-width="2.5" stroke-linecap="round" stroke-linejoin="round"/>
<path d="M492.7 147.18L474.03 157.96" stroke="#3A3A3A" stroke-width="2.5" stroke-linecap="round" stroke-linejoin="round"/>
<path d="M457.2 152.89L475.87 142.11C475.93 142.08 475.98 142.05 476.05 142.02C478.72 140.6 482.66 141.39 487.85 144.38L492.7 147.18V158.97L474.03 169.75" stroke="#3A3A3A" stroke-width="2.5" stroke-linecap="round" stroke-linejoin="round"/>
<path d="M616.61 334.65L621.46 337.45C626.65 340.45 630.6 341.26 633.26 339.81C633.33 339.77 633.38 339.75 633.44 339.7C636 338.23 637.28 334.75 637.28 329.27V311.78C637.28 310.3 637.6 309.36 638.24 308.96C638.88 308.56 639.78 308.69 640.96 309.37L642.84 310.46C642.88 310.1 642.89 309.72 642.89 309.32V298.7L640.96 297.59C639.79 296.91 638.88 296 638.24 294.86C637.59 293.71 637.28 292.4 637.28 290.92V273.42C637.28 267.82 635.94 262.76 633.26 258.25C630.59 253.75 626.65 249.99 621.46 247L616.61 244.2V255.98L618.12 256.85C620.12 258.01 621.65 259.5 622.68 261.32C623.71 263.14 624.23 265.21 624.23 267.53V282.99C624.23 286.27 624.68 288.98 625.57 291.11C626.46 293.23 627.88 295.21 629.84 297.04C627.89 296.62 626.46 296.97 625.57 298.06C624.68 299.15 624.23 301.34 624.23 304.63V320.09C624.23 322.4 623.71 323.88 622.68 324.51C621.65 325.14 620.13 324.87 618.12 323.71L616.61 322.84V334.63V334.65Z" fill="white"/>
<path d="M637.29 329.28C637.29 334.75 636 338.23 633.45 339.71L652.12 328.94C654.68 327.47 655.96 323.99 655.96 318.51V303.92L643.73 310.98L640.97 309.38C639.8 308.7 638.89 308.57 638.25 308.97C637.6 309.37 637.29 310.31 637.29 311.79V329.28Z" fill="#DAE0E5"/>
<path d="M643.72 310.98V299.19L642.89 298.72V309.34C642.89 309.74 642.88 310.12 642.84 310.48L643.72 310.99V310.98Z" fill="white"/>
<path d="M642.9 298.71L643.73 299.18L662.4 288.4L659.64 286.8C658.47 286.12 657.56 285.22 656.92 284.08C656.27 282.93 655.96 281.62 655.96 280.14V262.65C655.96 257.05 654.62 251.99 651.94 247.48C649.26 242.98 645.33 239.22 640.14 236.22L635.28 233.43L616.61 244.21L621.46 247.01C626.65 250 630.58 253.76 633.26 258.26C635.94 262.77 637.28 267.83 637.28 273.43V290.93C637.28 292.41 637.6 293.72 638.24 294.87C638.88 296.01 639.78 296.92 640.96 297.6L642.89 298.71H642.9Z" fill="#DAE0E5"/>
<path d="M643.72 299.19V310.98L662.39 300.2V288.41L643.72 299.19Z" fill="#DAE0E5"/>
<path d="M642.85 310.47L643.73 310.98V299.19L640.97 297.6C639.8 296.92 638.89 296.01 638.25 294.87C637.6 293.72 637.29 292.41 637.29 290.93V273.43C637.29 267.83 635.95 262.77 633.27 258.26C630.6 253.76 626.66 250 621.47 247.01L616.62 244.21V255.99L618.13 256.86C620.13 258.02 621.66 259.51 622.69 261.33C623.72 263.15 624.24 265.22 624.24 267.54V283C624.24 286.28 624.69 288.99 625.58 291.12C626.47 293.24 627.89 295.22 629.85 297.05C627.9 296.63 626.47 296.98 625.58 298.07C624.69 299.16 624.24 301.35 624.24 304.64V320.1C624.24 322.41 623.72 323.89 622.69 324.52C621.66 325.15 620.14 324.88 618.13 323.72L616.62 322.85V334.64L621.47 337.44C626.66 340.44 630.61 341.25 633.27 339.8C633.34 339.76 633.39 339.74 633.45 339.69C636.01 338.22 637.29 334.74 637.29 329.26V311.77C637.29 310.29 637.61 309.35 638.25 308.95C638.89 308.55 639.79 308.68 640.97 309.36L642.85 310.45V310.47Z" stroke="#3A3A3A" stroke-width="2.5" stroke-linecap="round" stroke-linejoin="round"/>
<path d="M655.95 303.92V318.51C655.95 323.99 654.67 327.47 652.11 328.94L633.44 339.72" stroke="#3A3A3A" stroke-width="2.5" stroke-linecap="round" stroke-linejoin="round"/>
<path d="M642.9 298.71V309.33C642.9 309.73 642.89 310.11 642.85 310.47" stroke="#3A3A3A" stroke-width="2.5" stroke-linecap="round" stroke-linejoin="round"/>
<path d="M662.39 288.41L643.72 299.19" stroke="#3A3A3A" stroke-width="2.5" stroke-linecap="round" stroke-linejoin="round"/>
<path d="M616.61 244.22L635.28 233.44L640.14 236.23C645.33 239.23 649.26 242.98 651.94 247.49C654.61 252 655.96 257.06 655.96 262.66V280.15C655.96 281.64 656.28 282.94 656.92 284.09C657.56 285.23 658.46 286.14 659.64 286.81L662.4 288.41V300.2L643.73 310.98" stroke="#3A3A3A" stroke-width="2.5" stroke-linecap="round" stroke-linejoin="round"/>
<path d="M506.38 252.38L513.75 248.1C513.75 250.82 515.66 254.16 518.04 255.53L510.67 259.81C508.29 258.44 506.37 255.1 506.38 252.38Z" fill="#373A3A"/>
<path d="M506.38 250.67L513.75 246.38V248.1L506.38 252.38V250.67Z" fill="#373A3A"/>
<path d="M507.64 247.91L515.01 243.63C514.24 244.08 513.76 245.03 513.75 246.39L506.38 250.67C506.38 249.31 506.86 248.36 507.64 247.91Z" fill="#373A3A"/>
<path d="M507.64 247.91L515.01 243.63C515.79 243.18 516.88 243.24 518.07 243.93L510.7 248.21C509.5 247.52 508.42 247.46 507.64 247.91Z" fill="white"/>
<path d="M506.38 245.75L513.75 241.47C514.86 240.83 516.39 240.92 518.07 241.89L510.7 246.17C509.01 245.2 507.48 245.11 506.38 245.75Z" fill="#373A3A"/>
<path d="M510.67 259.81L518.04 255.53L601.69 303.83L594.32 308.11L510.67 259.81Z" fill="#373A3A"/>
<path d="M604.75 304.12L597.38 308.4C596.6 308.86 595.51 308.79 594.32 308.11L601.69 303.83C602.88 304.52 603.97 304.58 604.75 304.12Z" fill="#373A3A"/>
<path d="M604.75 304.12L597.38 308.4C598.15 307.95 598.63 307 598.64 305.64L606.01 301.36C606.01 302.71 605.53 303.67 604.75 304.12Z" fill="white"/>
<path d="M598.65 303.93L606.02 299.65L606.01 301.37L598.64 305.65L598.65 303.93Z" fill="white"/>
<path d="M594.36 296.51L601.73 292.23C604.1 293.6 606.03 296.93 606.02 299.66L598.65 303.94C598.65 301.21 596.73 297.88 594.36 296.51Z" fill="white"/>
<path d="M594.36 296.51C596.73 297.88 598.66 301.21 598.65 303.94V305.66C598.64 308.38 596.7 309.49 594.33 308.12L510.67 259.82C508.29 258.45 506.37 255.11 506.38 252.39V250.67C506.39 247.94 508.33 246.84 510.7 248.21L594.36 296.51Z" fill="white"/>
<path d="M594.36 294.47C597.71 296.41 600.43 301.11 600.42 304.96V306.68C600.4 310.53 597.67 312.09 594.32 310.16L510.66 261.86C507.31 259.92 504.59 255.22 504.6 251.37V249.65C504.62 245.8 507.35 244.24 510.7 246.17L594.36 294.47ZM598.64 305.65V303.93C598.65 301.2 596.72 297.87 594.36 296.5L510.7 248.2C508.32 246.83 506.39 247.93 506.38 250.66V252.38C506.37 255.1 508.29 258.44 510.66 259.81L594.32 308.11C596.69 309.48 598.63 308.37 598.64 305.65Z" fill="#373A3A"/>
<path d="M594.36 294.47L601.73 290.19C605.08 292.13 607.8 296.83 607.79 300.68L600.42 304.96C600.43 301.11 597.71 296.4 594.36 294.47Z" fill="#373A3A"/>
<path d="M510.7 248.21L518.07 243.92L601.73 292.22L594.36 296.51L510.7 248.21Z" fill="white"/>
<path d="M606.01 306.29L598.64 310.57C599.73 309.94 600.41 308.59 600.41 306.67L607.78 302.39C607.78 304.3 607.1 305.65 606.01 306.29Z" fill="#373A3A"/>
<path d="M600.42 304.96L607.79 300.68V302.39L600.42 306.68V304.96Z" fill="#373A3A"/>
<path d="M510.71 246.17L518.07 241.88L601.73 290.18L594.36 294.47L510.71 246.17Z" fill="#373A3A"/>
<path d="M506.45 225.09L513.82 220.81C513.82 223.53 515.73 226.87 518.11 228.24L510.74 232.52C508.36 231.15 506.44 227.81 506.45 225.09Z" fill="#373A3A"/>
<path d="M506.46 223.37L513.83 219.09L513.82 220.81L506.45 225.09L506.46 223.37Z" fill="#373A3A"/>
<path d="M507.72 220.61L515.09 216.33C514.32 216.78 513.84 217.73 513.83 219.09L506.46 223.37C506.46 222.01 506.94 221.06 507.72 220.61Z" fill="#373A3A"/>
<path d="M507.72 220.61L515.09 216.33C515.87 215.88 516.96 215.94 518.15 216.63L510.78 220.91C509.58 220.22 508.5 220.16 507.72 220.61Z" fill="white"/>
<path d="M506.46 218.45L513.83 214.17C514.94 213.53 516.47 213.62 518.15 214.59L510.78 218.87C509.09 217.9 507.56 217.81 506.46 218.45Z" fill="#373A3A"/>
<path d="M510.74 232.52L518.11 228.24L563.5 254.44L556.13 258.72L510.74 232.52Z" fill="#373A3A"/>
<path d="M566.57 254.74L559.2 259.02C558.42 259.48 557.33 259.41 556.13 258.72L563.5 254.44C564.7 255.13 565.78 255.19 566.57 254.74Z" fill="#373A3A"/>
<path d="M566.57 254.74L559.2 259.02C559.97 258.57 560.45 257.62 560.46 256.27L567.83 251.99C567.83 253.34 567.35 254.29 566.57 254.74Z" fill="white"/>
<path d="M560.46 254.55L567.83 250.27V251.99L560.46 256.27V254.55Z" fill="white"/>
<path d="M556.17 247.12L563.54 242.84C565.92 244.21 567.84 247.54 567.84 250.27L560.47 254.55C560.47 251.82 558.55 248.49 556.17 247.12Z" fill="white"/>
<path d="M556.17 247.12C558.55 248.49 560.47 251.82 560.47 254.55V256.27C560.46 258.99 558.52 260.1 556.14 258.73L510.75 232.52C508.37 231.15 506.45 227.81 506.46 225.09V223.37C506.47 220.64 508.41 219.54 510.78 220.91L556.17 247.12Z" fill="white"/>
<path d="M556.17 245.08C559.52 247.02 562.25 251.73 562.23 255.58V257.3C562.21 261.15 559.47 262.71 556.12 260.77L510.73 234.56C507.38 232.62 504.66 227.92 504.67 224.07V222.35C504.69 218.5 507.42 216.94 510.77 218.87L556.16 245.08H556.17ZM560.46 256.27V254.55C560.47 251.82 558.54 248.49 556.17 247.12L510.78 220.91C508.4 219.54 506.47 220.64 506.46 223.37V225.09C506.45 227.81 508.37 231.15 510.74 232.52L556.13 258.73C558.51 260.1 560.45 259 560.45 256.27" fill="#373A3A"/>
<path d="M556.17 245.08L563.54 240.8C566.89 242.74 569.62 247.45 569.6 251.3L562.23 255.58C562.24 251.73 559.52 247.02 556.17 245.08Z" fill="#373A3A"/>
<path d="M510.78 220.91L518.15 216.63L563.53 242.84L556.17 247.12L510.78 220.91Z" fill="white"/>
<path d="M567.83 256.9L560.46 261.18C561.55 260.55 562.23 259.2 562.23 257.29L569.6 253.01C569.6 254.92 568.92 256.27 567.83 256.9Z" fill="#373A3A"/>
<path d="M562.24 255.58L569.61 251.29L569.6 253.01L562.23 257.29L562.24 255.58Z" fill="#373A3A"/>
<path d="M510.78 218.87L518.15 214.59L563.54 240.8L556.17 245.08L510.78 218.87Z" fill="#373A3A"/>
<path d="M506.53 197.79L513.9 193.51C513.9 196.24 515.81 199.58 518.19 200.95L510.82 205.23C508.44 203.86 506.52 200.52 506.53 197.79Z" fill="#373A3A"/>
<path d="M506.54 196.08L513.91 191.8L513.9 193.51L506.53 197.79L506.54 196.08Z" fill="#373A3A"/>
<path d="M507.8 193.32L515.17 189.04C514.4 189.49 513.91 190.45 513.91 191.8L506.54 196.08C506.54 194.72 507.02 193.77 507.8 193.32Z" fill="#373A3A"/>
<path d="M507.8 193.32L515.17 189.04C515.95 188.59 517.03 188.65 518.23 189.34L510.86 193.62C509.67 192.93 508.58 192.87 507.8 193.32Z" fill="white"/>
<path d="M506.54 191.16L513.91 186.88C515.02 186.24 516.55 186.33 518.23 187.3L510.86 191.58C509.17 190.61 507.64 190.52 506.54 191.16Z" fill="#373A3A"/>
<path d="M510.82 205.23L518.19 200.95L538.93 212.92L531.57 217.2L510.82 205.23Z" fill="#373A3A"/>
<path d="M542 213.22L534.63 217.5C533.85 217.96 532.76 217.89 531.57 217.2L538.94 212.92C540.14 213.61 541.22 213.67 542 213.22Z" fill="#373A3A"/>
<path d="M542 213.22L534.63 217.5C535.4 217.05 535.89 216.09 535.89 214.74L543.26 210.46C543.26 211.82 542.78 212.77 542 213.22Z" fill="white"/>
<path d="M535.89 213.03L543.26 208.75V210.46L535.89 214.74V213.03Z" fill="white"/>
<path d="M531.6 205.59L538.97 201.31C541.35 202.68 543.27 206.02 543.27 208.75L535.9 213.03C535.9 210.3 533.98 206.96 531.6 205.59Z" fill="white"/>
<path d="M531.6 203.56C534.95 205.5 537.68 210.21 537.66 214.06V215.77C537.64 219.62 534.9 221.18 531.55 219.24L510.81 207.26C507.46 205.32 504.74 200.62 504.75 196.77V195.06C504.77 191.21 507.5 189.65 510.85 191.58L531.59 203.56H531.6ZM535.89 214.74V213.03C535.9 210.3 533.97 206.96 531.6 205.59L510.86 193.61C508.48 192.24 506.55 193.35 506.54 196.08V197.79C506.53 200.52 508.45 203.86 510.82 205.23L531.56 217.21C533.94 218.58 535.88 217.48 535.88 214.75" fill="#373A3A"/>
<path d="M531.6 203.56L538.97 199.28C542.32 201.22 545.05 205.93 545.03 209.78L537.66 214.06C537.67 210.21 534.95 205.5 531.6 203.56Z" fill="#373A3A"/>
<path d="M510.85 193.61L518.22 189.33L538.97 201.31L531.6 205.59L510.85 193.61Z" fill="white"/>
<path d="M543.26 215.37L535.89 219.65C536.98 219.02 537.66 217.67 537.66 215.76L545.03 211.48C545.03 213.39 544.35 214.74 543.26 215.37Z" fill="#373A3A"/>
<path d="M537.67 214.06L545.04 209.77L545.03 211.48L537.66 215.77L537.67 214.06Z" fill="#373A3A"/>
<path d="M510.86 191.58L518.23 187.3L538.97 199.28L531.6 203.56L510.86 191.58Z" fill="#373A3A"/>
<path d="M531.6 205.59C533.98 206.96 535.9 210.3 535.9 213.03V214.74C535.89 217.47 533.95 218.58 531.57 217.2L510.83 205.22C508.45 203.85 506.53 200.51 506.54 197.78V196.07C506.55 193.34 508.49 192.23 510.86 193.6L531.6 205.58V205.59Z" fill="white"/>
<path d="M569.36 261.41L576.73 257.13C576.73 259.85 578.64 263.19 581.02 264.56L573.65 268.84C571.27 267.47 569.35 264.13 569.36 261.41Z" fill="#373A3A"/>
<path d="M569.37 259.69L576.74 255.41L576.73 257.13L569.36 261.41L569.37 259.69Z" fill="#373A3A"/>
<path d="M570.62 256.93L577.99 252.65C577.22 253.1 576.74 254.05 576.73 255.41L569.36 259.69C569.36 258.33 569.84 257.38 570.62 256.93Z" fill="#373A3A"/>
<path d="M570.62 256.93L577.99 252.65C578.77 252.2 579.86 252.26 581.05 252.95L573.68 257.23C572.48 256.54 571.4 256.48 570.62 256.93Z" fill="white"/>
<path d="M569.37 254.77L576.74 250.49C577.85 249.85 579.38 249.94 581.06 250.91L573.69 255.19C572 254.22 570.47 254.13 569.37 254.77Z" fill="#373A3A"/>
<path d="M573.65 268.84L581.02 264.56L601.77 276.54L594.4 280.82L573.65 268.84Z" fill="#373A3A"/>
<path d="M604.83 276.83L597.46 281.11C596.68 281.57 595.59 281.5 594.4 280.82L601.77 276.54C602.96 277.23 604.05 277.29 604.83 276.83Z" fill="#373A3A"/>
<path d="M604.83 276.83L597.46 281.11C598.23 280.66 598.71 279.71 598.72 278.35L606.09 274.07C606.09 275.42 605.61 276.38 604.83 276.83Z" fill="white"/>
<path d="M598.72 276.64L606.09 272.36V274.08L598.72 278.36V276.64Z" fill="white"/>
<path d="M594.44 269.21L601.81 264.93C604.18 266.3 606.11 269.63 606.1 272.36L598.73 276.64C598.73 273.91 596.81 270.58 594.44 269.21Z" fill="white"/>
<path d="M594.44 267.17C597.79 269.11 600.51 273.81 600.5 277.66V279.38C600.48 283.23 597.75 284.79 594.4 282.86L573.65 270.88C570.3 268.94 567.58 264.24 567.59 260.39V258.67C567.61 254.82 570.34 253.26 573.69 255.19L594.44 267.17ZM598.72 278.36V276.64C598.73 273.91 596.8 270.58 594.44 269.21L573.69 257.23C571.31 255.86 569.38 256.96 569.37 259.69V261.41C569.36 264.13 571.28 267.47 573.65 268.84L594.4 280.82C596.77 282.19 598.71 281.08 598.72 278.36Z" fill="#373A3A"/>
<path d="M594.44 267.17L601.81 262.89C605.16 264.83 607.88 269.53 607.87 273.38L600.5 277.66C600.51 273.81 597.79 269.1 594.44 267.17Z" fill="#373A3A"/>
<path d="M573.69 257.23L581.05 252.95L601.8 264.93L594.44 269.21L573.69 257.23Z" fill="white"/>
<path d="M606.09 279L598.72 283.28C599.81 282.65 600.49 281.3 600.49 279.38L607.86 275.1C607.86 277.01 607.18 278.36 606.09 279Z" fill="#373A3A"/>
<path d="M600.5 277.67L607.87 273.39L607.86 275.1L600.49 279.38L600.5 277.67Z" fill="#373A3A"/>
<path d="M573.69 255.19L581.06 250.91L601.81 262.89L594.44 267.17L573.69 255.19Z" fill="#373A3A"/>
<path d="M594.44 269.21C596.81 270.58 598.74 273.91 598.73 276.64V278.36C598.72 281.08 596.78 282.19 594.41 280.82L573.66 268.84C571.28 267.47 569.36 264.13 569.37 261.41V259.69C569.38 256.96 571.32 255.86 573.69 257.23L594.44 269.21Z" fill="white"/>
<path d="M553.87 225.12L561.24 220.84C561.24 223.57 563.16 226.91 565.53 228.28L558.16 232.56C555.79 231.19 553.86 227.85 553.87 225.12Z" fill="#373A3A"/>
<path d="M553.88 223.42L561.25 219.13L561.24 220.84L553.87 225.12L553.88 223.42Z" fill="#373A3A"/>
<path d="M555.14 220.65L562.51 216.37C561.74 216.82 561.25 217.78 561.25 219.13L553.88 223.41C553.88 222.05 554.37 221.1 555.14 220.65Z" fill="#373A3A"/>
<path d="M555.14 220.65L562.51 216.37C563.29 215.91 564.38 215.98 565.57 216.66L558.2 220.94C557.01 220.25 555.93 220.19 555.14 220.65Z" fill="white"/>
<path d="M553.88 218.5L561.25 214.22C562.36 213.58 563.89 213.67 565.57 214.64L558.2 218.92C556.51 217.95 554.98 217.86 553.88 218.5Z" fill="#373A3A"/>
<path d="M558.16 232.56L565.53 228.28L601.85 249.25L594.48 253.53L558.16 232.56Z" fill="#373A3A"/>
<path d="M604.91 249.54L597.54 253.82C596.76 254.28 595.67 254.21 594.48 253.53L601.85 249.25C603.04 249.94 604.12 250 604.91 249.54Z" fill="#373A3A"/>
<path d="M604.91 249.54L597.54 253.82C598.31 253.37 598.8 252.41 598.8 251.06L606.17 246.78C606.17 248.14 605.68 249.09 604.91 249.54Z" fill="white"/>
<path d="M598.8 249.35L606.17 245.07V246.78L598.8 251.06V249.35Z" fill="white"/>
<path d="M594.51 241.91L601.88 237.63C604.25 239 606.18 242.34 606.17 245.07L598.8 249.35C598.8 246.62 596.88 243.28 594.51 241.91Z" fill="white"/>
<path d="M594.51 241.91C596.88 243.28 598.81 246.62 598.8 249.35V251.06C598.79 253.79 596.85 254.9 594.48 253.53L558.16 232.56C555.79 231.19 553.86 227.85 553.87 225.12V223.41C553.88 220.68 555.82 219.57 558.19 220.94L594.51 241.91Z" fill="white"/>
<path d="M594.52 239.88C597.87 241.82 600.59 246.52 600.58 250.37V252.08C600.56 255.93 597.83 257.49 594.48 255.56L558.16 234.59C554.81 232.65 552.09 227.95 552.1 224.1V222.39C552.12 218.54 554.85 216.98 558.2 218.91L594.52 239.88ZM598.8 251.06V249.35C598.81 246.62 596.88 243.28 594.52 241.91L558.2 220.94C555.83 219.57 553.89 220.68 553.88 223.41V225.12C553.87 227.85 555.8 231.19 558.16 232.56L594.48 253.53C596.85 254.9 598.79 253.79 598.8 251.06Z" fill="#373A3A"/>
<path d="M594.52 239.88L601.89 235.6C605.24 237.54 607.96 242.24 607.95 246.09L600.58 250.37C600.59 246.52 597.87 241.81 594.52 239.88Z" fill="#373A3A"/>
<path d="M558.2 220.95L565.57 216.67L601.88 237.63L594.51 241.91L558.2 220.95Z" fill="white"/>
<path d="M606.17 251.7L598.8 255.98C599.89 255.35 600.57 254 600.57 252.08L607.94 247.8C607.94 249.71 607.26 251.06 606.17 251.7Z" fill="#373A3A"/>
<path d="M600.58 250.38L607.95 246.09L607.94 247.8L600.57 252.09L600.58 250.38Z" fill="#373A3A"/>
<path d="M558.2 218.92L565.57 214.63L601.89 235.6L594.52 239.88L558.2 218.92Z" fill="#373A3A"/>
<path d="M330.74 375.53L260.97 335.28V345.16L330.74 385.42V375.53Z" fill="#FF8385"/>
<path d="M300.91 334.38C304.11 336.23 309.26 336.23 312.46 334.43C312.51 334.43 312.51 334.38 312.55 334.38C315.75 332.48 315.75 329.55 312.55 327.66C312.41 327.57 312.28 327.52 312.14 327.43C308.89 325.85 304.02 325.9 300.95 327.66C297.7 329.56 297.7 332.53 300.9 334.38H300.91Z" fill="#FF8385"/>
<path d="M323.61 347.92L335.93 355L348.21 347.92L335.93 340.78L323.61 347.92Z" fill="white" stroke="#373A3A" stroke-width="2.5" stroke-miterlimit="10"/>
<path d="M330.74 375.53V385.42L422.13 332.66V322.78L330.74 375.53Z" fill="#FF8385"/>
<path d="M337.06 319.3L350.65 311.45L363.78 303.87L353.8 298.09L327.09 313.53L337.06 319.3Z" fill="white" stroke="#373A3A" stroke-width="2.5" stroke-miterlimit="10"/>
<path d="M365.22 330.99C368.33 332.84 375.1 331.85 380.34 328.82C385.53 325.84 387.2 321.92 384.04 320.11C380.88 318.3 374.16 319.25 368.92 322.28C363.78 325.26 362.11 329.09 365.08 330.94C365.14 330.94 365.187 330.957 365.22 330.99Z" fill="#3A3A3A"/>
<path d="M300.91 327.7C303.98 325.94 308.85 325.89 312.1 327.47C312.24 327.56 312.37 327.61 312.51 327.7C315.71 329.55 315.71 332.53 312.51 334.42C312.46 334.42 312.46 334.47 312.42 334.47C309.22 336.28 304.07 336.28 300.87 334.42C297.71 332.52 297.71 329.55 300.92 327.7H300.91ZM368.97 322.28C374.16 319.3 380.93 318.31 384.09 320.11C387.25 321.92 385.58 325.84 380.39 328.82C375.2 331.8 368.39 332.84 365.27 330.99C365.22 330.99 365.18 330.94 365.13 330.9C362.15 329.05 363.82 325.21 368.97 322.28ZM350.65 311.45L337.07 319.3L327.1 313.52L353.82 298.09L363.79 303.87L350.66 311.45H350.65ZM260.97 335.28L330.74 375.54L422.13 322.78L352.36 282.52L260.97 335.28ZM335.93 355L323.61 347.87L335.93 340.78L348.25 347.87L335.93 355Z" fill="white" stroke="#373A3A" stroke-width="2.5" stroke-miterlimit="10"/>
<path d="M422.13 322.78V332.66L330.74 385.42L260.97 345.16V335.28" stroke="#3A3A3A" stroke-width="2.5" stroke-linecap="round" stroke-linejoin="round"/>
<path d="M260.97 335.28L352.36 282.52L422.13 322.78L330.74 375.53L260.97 335.28Z" stroke="#3A3A3A" stroke-width="2.5" stroke-linecap="round" stroke-linejoin="round"/>
<path d="M330.74 375.53V385.42" stroke="#3A3A3A" stroke-width="2.5" stroke-linecap="round" stroke-linejoin="round"/>
<path d="M337.06 319.3L350.65 311.45L363.78 303.87L353.8 298.09L327.09 313.53L337.06 319.3Z" stroke="#3A3A3A" stroke-width="2.5" stroke-linecap="round" stroke-linejoin="round"/>
<path d="M365.13 330.9C365.13 330.9 365.22 330.95 365.27 330.99C368.38 332.84 375.15 331.85 380.39 328.82C385.58 325.84 387.25 321.92 384.09 320.11C380.93 318.3 374.21 319.25 368.97 322.28C363.83 325.21 362.16 329.05 365.13 330.9Z" stroke="#3A3A3A" stroke-width="2.5" stroke-linecap="round" stroke-linejoin="round"/>
<path d="M312.42 334.42C309.22 336.23 304.07 336.23 300.87 334.37C297.67 332.51 297.67 329.5 300.87 327.65C303.94 325.89 308.81 325.84 312.06 327.42C312.2 327.51 312.33 327.56 312.47 327.65C315.67 329.5 315.67 332.48 312.47 334.37C312.52 334.42 312.47 334.42 312.42 334.42Z" stroke="#3A3A3A" stroke-width="2.5" stroke-linecap="round" stroke-linejoin="round"/>
<path d="M335.93 355L348.21 347.92L335.93 340.78L323.61 347.92L335.93 355Z" stroke="#3A3A3A" stroke-width="2.5" stroke-linecap="round" stroke-linejoin="round"/>
<path d="M358.32 320.07H365.58V315.87" stroke="#3A3A3A" stroke-width="2.5" stroke-linecap="round" stroke-linejoin="round"/>
<path d="M365.13 330.9L359.22 334.33C355.65 336.41 349.88 336.41 346.31 334.33L329.7 324.76C326.13 322.68 320.36 322.68 316.79 324.76L312.1 327.47" stroke="#3A3A3A" stroke-width="2.5" stroke-linecap="round" stroke-linejoin="round"/>
<path d="M350.65 311.45L365.58 320.07" stroke="#3A3A3A" stroke-width="2.5" stroke-linecap="round" stroke-linejoin="round"/>
<path d="M319.28 342.59H326.55V338.39" stroke="#3A3A3A" stroke-width="2.5" stroke-linecap="round" stroke-linejoin="round"/>
<path d="M312.42 334.42L326.55 342.59" stroke="#3A3A3A" stroke-width="2.5" stroke-linecap="round" stroke-linejoin="round"/>
</svg>
