<svg width="92" height="71" viewBox="0 0 92 71" fill="none" xmlns="http://www.w3.org/2000/svg">
<path d="M91.0523 38.22H-2.86102e-06" stroke="white" stroke-opacity="0.5" stroke-width="1.5"/>
<path d="M84.3077 38.22L50.5846 6.72V69.72L84.3077 38.22Z" fill="#EC2F37" fill-opacity="0.3"/>
<path d="M51.085 68.5677L83.5762 38.22L51.085 7.87137V68.5677Z" stroke="white" stroke-opacity="0.5"/>
<path d="M50.5845 0V69.72M16.8615 0V69.72" stroke="white" stroke-opacity="0.5" stroke-width="1.5"/>
<path d="M50.5846 6.72L84.3077 38.22L50.5846 69.72" stroke="white" stroke-opacity="0.5" stroke-width="1.5"/>
<path d="M16.8615 6.72L50.5845 38.22L16.8615 69.72" stroke="white" stroke-opacity="0.5" stroke-width="1.5"/>
<path d="M79.9869 11.97C79.4631 11.97 79.0384 11.5469 79.0384 11.025C79.0384 10.5031 79.4631 10.08 79.9869 10.08C80.5107 10.08 80.9354 10.5031 80.9354 11.025C80.9354 11.5469 80.5107 11.97 79.9869 11.97Z" stroke="white" stroke-opacity="0.5" stroke-width="1.5"/>
<path d="M75.5608 11.97C75.0369 11.97 74.6123 11.5469 74.6123 11.025C74.6123 10.5031 75.0369 10.08 75.5608 10.08C76.0846 10.08 76.5092 10.5031 76.5092 11.025C76.5092 11.5469 76.0846 11.97 75.5608 11.97Z" stroke="white" stroke-opacity="0.5" stroke-width="1.5"/>
<path d="M71.1346 11.97C70.6108 11.97 70.1861 11.5469 70.1861 11.025C70.1861 10.5031 70.6108 10.08 71.1346 10.08C71.6584 10.08 72.0831 10.5031 72.0831 11.025C72.0831 11.5469 71.6584 11.97 71.1346 11.97Z" stroke="white" stroke-opacity="0.5" stroke-width="1.5"/>
</svg>
